<?xml version="1.0" encoding="utf-8"?>
<!-- Generator: Adobe Illustrator 16.0.4, SVG Export Plug-In . SVG Version: 6.00 Build 0)  -->
<!DOCTYPE svg PUBLIC "-//W3C//DTD SVG 1.1//EN" "http://www.w3.org/Graphics/SVG/1.1/DTD/svg11.dtd">
<svg version="1.1" id="Layer_1" xmlns="http://www.w3.org/2000/svg" xmlns:xlink="http://www.w3.org/1999/xlink" x="0px" y="0px"
	 width="221.5px" height="264px" viewBox="0.25 0 221.5 264" enable-background="new 0.25 0 221.5 264" xml:space="preserve">
<path fill="none" stroke="#000000" stroke-linecap="round" stroke-linejoin="round" stroke-miterlimit="10" d="M91.233,11.326"/>
<path fill="none" stroke="#000000" stroke-linecap="round" stroke-linejoin="round" stroke-miterlimit="10" d="M89.233,12.929"/>
<g>
	<path fill="#7B94A8" d="M110.25,0h-18c-1.104,0-2,0.896-2,2s0.896,2,2,2h18c1.104,0,2-0.896,2-2S111.354,0,110.25,0z"/>
	<path fill="#7B94A8" d="M110.25,7h-18c-1.104,0-2,0.896-2,2s0.896,2,2,2h18c1.104,0,2-0.896,2-2S111.354,7,110.25,7z"/>
	<path fill="#7B94A8" d="M110.25,14h-18c-1.104,0-2,0.896-2,2s0.896,2,2,2h18c1.104,0,2-0.896,2-2S111.354,14,110.25,14z"/>
</g>
<g>
	<path fill="#2D3A44" d="M132.25,0h-18c-1.104,0-2,0.896-2,2s0.896,2,2,2h18c1.104,0,2-0.896,2-2S133.354,0,132.25,0z"/>
	<path fill="#2D3A44" d="M132.25,7h-18c-1.104,0-2,0.896-2,2s0.896,2,2,2h18c1.104,0,2-0.896,2-2S133.354,7,132.25,7z"/>
	<path fill="#2D3A44" d="M132.25,14h-18c-1.104,0-2,0.896-2,2s0.896,2,2,2h18c1.104,0,2-0.896,2-2S133.354,14,132.25,14z"/>
</g>
<g>
	<path fill="#FFFFFF" d="M53.25,1.969h-2.026c-0.388-1.216-1.535-2.061-2.917-1.96L37.171,0.825
		c-1.61,0.118-2.921,1.529-2.921,3.144v21c0,1.604,1.243,3.047,2.831,3.284l11.169,1.661c0.148,0.022,0.293,0.032,0.435,0.032
		c1.249,0,2.263-0.827,2.579-1.977h1.986c1.654,0,3-1.346,3-3v-20C56.25,3.314,54.904,1.969,53.25,1.969z M49.375,27.219
		c0,0.484-0.353,0.79-0.831,0.716l-11.168-1.661c-0.6-0.089-1.126-0.699-1.126-1.305v-21c0-0.581,0.489-1.106,1.068-1.149L48.526,2
		c0.484,0,0.849,0.369,0.849,0.859V27.219z M54.25,24.969c0,0.551-0.449,1-1,1h-1.875v-22h1.875c0.551,0,1,0.449,1,1V24.969z"/>
	<path fill="#FFFFFF" d="M47.138,3.717c-0.001,0-0.002,0-0.003,0l-8.792,0.572c-0.402,0.026-0.718,0.362-0.718,0.765v6.102
		c0,0.413,0.336,0.749,0.749,0.749h0.002l8.792-0.062c0.413-0.001,0.748-0.338,0.748-0.751V4.45
		C47.917,4.046,47.589,3.717,47.138,3.717z M46.917,10.847l-8.292,0.056v-5.63l8.292-0.54V10.847z"/>
	<path fill="#FFFFFF" d="M45.917,13.625c-1.103,0-2,0.897-2,2s0.897,2,2,2s2-0.897,2-2S47.02,13.625,45.917,13.625z M45.917,16.625
		c-0.551,0-1-0.449-1-1s0.449-1,1-1s1,0.449,1,1S46.468,16.625,45.917,16.625z"/>
</g>
<g>
	<path fill="#FFFFFF" d="M38.273,39.967c-1.1,0-1.994,0.894-1.994,1.993c0,1.1,0.894,1.993,1.994,1.993
		c1.099,0,1.993-0.894,1.993-1.993C40.267,40.861,39.373,39.967,38.273,39.967z M38.273,42.957c-0.549,0-0.997-0.448-0.997-0.997
		s0.448-0.997,0.997-0.997s0.997,0.448,0.997,0.997S38.822,42.957,38.273,42.957z"/>
	<path fill="#FFFFFF" d="M38.273,45.947c-1.1,0-1.994,0.894-1.994,1.993c0,1.1,0.894,1.993,1.994,1.993
		c1.099,0,1.993-0.894,1.993-1.993C40.267,46.841,39.373,45.947,38.273,45.947z M38.273,48.937c-0.549,0-0.997-0.448-0.997-0.997
		c0-0.549,0.448-0.997,0.997-0.997s0.997,0.448,0.997,0.997C39.27,48.489,38.822,48.937,38.273,48.937z"/>
	<path fill="#FFFFFF" d="M38.273,51.927c-1.1,0-1.994,0.894-1.994,1.993c0,1.1,0.894,1.993,1.994,1.993
		c1.099,0,1.993-0.894,1.993-1.993C40.267,52.821,39.373,51.927,38.273,51.927z M38.273,54.917c-0.549,0-0.997-0.448-0.997-0.997
		s0.448-0.997,0.997-0.997s0.997,0.448,0.997,0.997S38.822,54.917,38.273,54.917z"/>
	<path fill="#FFFFFF" d="M55.217,30H35.283c-1.648,0-2.99,1.342-2.99,2.99v23.92c0,1.648,1.342,2.99,2.99,2.99h19.934
		c1.648,0,2.99-1.342,2.99-2.99V32.99C58.207,31.342,56.865,30,55.217,30z M56.213,56.91c0,0.549-0.448,0.997-0.997,0.997H35.283
		c-0.549,0-0.997-0.448-0.997-0.997V32.99c0-0.549,0.448-0.997,0.997-0.997h19.934c0.549,0,0.997,0.448,0.997,0.997L56.213,56.91
		L56.213,56.91z"/>
	<path fill="#FFFFFF" d="M53.722,40.434H42.758c-0.275,0-0.499,0.223-0.499,0.498s0.224,0.499,0.499,0.499h10.963
		c0.275,0,0.499-0.223,0.499-0.499C54.22,40.657,53.998,40.434,53.722,40.434z"/>
	<path fill="#FFFFFF" d="M42.758,43.424h8.97c0.275,0,0.498-0.223,0.498-0.499c0-0.275-0.223-0.498-0.498-0.498h-8.97
		c-0.275,0-0.499,0.223-0.499,0.498C42.26,43.201,42.483,43.424,42.758,43.424z"/>
	<path fill="#FFFFFF" d="M53.722,46.414H42.758c-0.275,0-0.499,0.223-0.499,0.498s0.224,0.499,0.499,0.499h10.963
		c0.275,0,0.499-0.223,0.499-0.499C54.22,46.637,53.998,46.414,53.722,46.414z"/>
	<path fill="#FFFFFF" d="M42.758,49.404h7.973c0.275,0,0.499-0.223,0.499-0.499c0-0.275-0.223-0.498-0.499-0.498h-7.973
		c-0.275,0-0.499,0.223-0.499,0.498C42.26,49.181,42.483,49.404,42.758,49.404z"/>
	<path fill="#FFFFFF" d="M53.722,52.394H42.758c-0.275,0-0.499,0.223-0.499,0.498s0.224,0.499,0.499,0.499h10.963
		c0.275,0,0.499-0.223,0.499-0.499C54.22,52.617,53.998,52.394,53.722,52.394z"/>
	<path fill="#FFFFFF" d="M51.729,54.387h-8.97c-0.275,0-0.499,0.223-0.499,0.499c0,0.276,0.224,0.498,0.499,0.498h8.97
		c0.275,0,0.498-0.223,0.498-0.498C52.227,54.611,52.004,54.387,51.729,54.387z"/>
	<path fill="#FFFFFF" d="M37.277,36.603h15.946c0.55,0,0.997-0.447,0.997-0.997c0-0.55-0.447-0.997-0.997-0.997H37.277
		c-0.55,0-0.997,0.447-0.997,0.997C36.28,36.156,36.727,36.603,37.277,36.603z"/>
</g>
<g>
	<path fill="#FFFFFF" d="M36.25,87.957h2c1.103,0,2-0.894,2-1.993V70.017c0-1.099-0.897-1.993-2-1.993h-2c-1.103,0-2,0.894-2,1.993
		v15.947C34.25,87.062,35.147,87.957,36.25,87.957z M36.25,70.017h2l-0.003,15.947H36.25V70.017z"/>
	<path fill="#FFFFFF" d="M44.25,87.957h2c1.103,0,2-0.894,2-1.993v-23.92c0-1.1-0.897-1.994-2-1.994h-2c-1.103,0-2,0.894-2,1.994
		v23.92C42.25,87.062,43.147,87.957,44.25,87.957z M44.25,62.043h2l-0.003,23.92H44.25V62.043z"/>
	<path fill="#FFFFFF" d="M52.25,87.957h2c1.103,0,2-0.894,2-1.993v-9.967c0-1.099-0.897-1.993-2-1.993h-2c-1.103,0-2,0.894-2,1.993
		v9.967C50.25,87.062,51.147,87.957,52.25,87.957z M52.25,75.997h2l-0.003,9.967H52.25V75.997z"/>
	<path fill="#FFFFFF" d="M58.75,88.953h-27c-0.276,0-0.5,0.225-0.5,0.499s0.224,0.499,0.5,0.499h27c0.276,0,0.5-0.225,0.5-0.499
		S59.026,88.953,58.75,88.953z"/>
</g>
<path fill="#FFFFFF" d="M45.214,90.05c-8.256,0-14.95,6.694-14.95,14.95s6.693,14.95,14.95,14.95c8.257,0,14.95-6.694,14.95-14.95
	S53.471,90.05,45.214,90.05z M45.214,91.047c7.695,0,13.954,6.258,13.954,13.953c0,2.965-0.936,5.71-2.519,7.973
	c-0.044-0.038-0.077-0.085-0.129-0.117c-1.948-1.156-4.269-1.956-6.919-2.388c1.165-1.56,1.843-3.714,1.843-6.046
	c0-4.672-2.795-8.472-6.229-8.472c-3.434,0-6.229,3.799-6.229,8.472c0,2.331,0.676,4.481,1.839,6.041
	c-2.733,0.433-5.071,1.222-6.97,2.353c-0.045,0.028-0.075,0.071-0.115,0.104c-1.561-2.251-2.479-4.98-2.479-7.92
	C31.261,97.305,37.52,91.047,45.214,91.047z M45.214,118.953c-4.041,0-7.673-1.736-10.224-4.489
	c2.081-1.213,4.785-1.975,8.046-2.265c0.274-0.008,0.544-0.129,0.733-0.35c0.263-0.309,0.315-0.744,0.13-1.104
	c-0.093-0.182-0.236-0.325-0.408-0.417c-1.53-1.064-2.515-3.371-2.515-5.905c0-3.51,1.939-6.479,4.236-6.479
	c2.297,0,4.236,2.968,4.236,6.479c0,2.538-0.987,4.846-2.519,5.909c-0.151,0.084-0.28,0.208-0.372,0.363
	c-0.195,0.33-0.184,0.745,0.03,1.062c0.192,0.288,0.509,0.444,0.83,0.444c0.001,0,0.002,0,0.003,0c3.102,0.28,5.852,1.08,7.974,2.31
	C52.847,117.236,49.231,118.953,45.214,118.953z"/>
<path fill="#FFFFFF" d="M58.183,167.111c0.018-0.025,0.029-0.057,0.046-0.084c0.05-0.084,0.1-0.168,0.138-0.26
	c0.016-0.037,0.023-0.078,0.037-0.117c0.029-0.084,0.06-0.166,0.077-0.256c0.026-0.129,0.04-0.269,0.04-0.396
	s-0.014-0.268-0.04-0.396c-0.018-0.09-0.048-0.172-0.077-0.256c-0.014-0.039-0.021-0.08-0.037-0.117
	c-0.038-0.092-0.088-0.176-0.138-0.26c-0.017-0.027-0.028-0.059-0.046-0.085c-0.073-0.108-0.156-0.21-0.249-0.304l-6.499-6.498
	c-0.781-0.781-2.048-0.781-2.828,0c-0.781,0.781-0.781,2.047,0,2.828l3.085,3.09H34.479c-1.104,0-2,0.896-2,2s0.896,2,2,2h17.213
	l-3.086,3.086c-0.781,0.781-0.781,2.047,0,2.828c0.39,0.391,0.902,0.586,1.414,0.586s1.023-0.195,1.414-0.586l6.499-6.498
	C58.026,167.322,58.109,167.221,58.183,167.111z"/>
<g>
	<path fill="#415463" d="M83.294,1.969h-2.026c-0.388-1.216-1.535-2.061-2.917-1.96L67.215,0.825
		c-1.61,0.118-2.921,1.529-2.921,3.144v21c0,1.604,1.243,3.047,2.831,3.284l11.169,1.661c0.148,0.022,0.293,0.032,0.435,0.032
		c1.249,0,2.263-0.827,2.579-1.977h1.986c1.654,0,3-1.346,3-3v-20C86.294,3.314,84.948,1.969,83.294,1.969z M79.419,27.219
		c0,0.484-0.353,0.79-0.831,0.716L67.42,26.274c-0.6-0.089-1.126-0.699-1.126-1.305v-21c0-0.581,0.489-1.106,1.068-1.149L78.57,2
		c0.484,0,0.849,0.369,0.849,0.859V27.219z M84.294,24.969c0,0.551-0.449,1-1,1h-1.875v-22h1.875c0.551,0,1,0.449,1,1V24.969z"/>
	<path fill="#415463" d="M77.182,3.717c-0.001,0-0.002,0-0.003,0l-8.792,0.572c-0.402,0.026-0.718,0.362-0.718,0.765v6.102
		c0,0.413,0.336,0.749,0.749,0.749h0.002l8.792-0.062c0.413-0.001,0.748-0.338,0.748-0.751V4.45
		C77.961,4.046,77.633,3.717,77.182,3.717z M76.961,10.847l-8.292,0.056v-5.63l8.292-0.54V10.847z"/>
	<path fill="#415463" d="M75.961,13.625c-1.103,0-2,0.897-2,2s0.897,2,2,2s2-0.897,2-2S77.064,13.625,75.961,13.625z M75.961,16.625
		c-0.551,0-1-0.449-1-1s0.449-1,1-1s1,0.449,1,1S76.512,16.625,75.961,16.625z"/>
</g>
<g>
	<path fill="#415463" d="M68.316,39.967c-1.099,0-1.993,0.894-1.993,1.993c0,1.1,0.894,1.993,1.993,1.993
		c1.099,0,1.993-0.894,1.993-1.993C70.311,40.861,69.416,39.967,68.316,39.967z M68.316,42.957c-0.549,0-0.997-0.448-0.997-0.997
		s0.448-0.997,0.997-0.997c0.549,0,0.997,0.448,0.997,0.997S68.866,42.957,68.316,42.957z"/>
	<path fill="#415463" d="M68.316,45.947c-1.099,0-1.993,0.894-1.993,1.993c0,1.1,0.894,1.993,1.993,1.993
		c1.099,0,1.993-0.894,1.993-1.993C70.311,46.841,69.416,45.947,68.316,45.947z M68.316,48.937c-0.549,0-0.997-0.448-0.997-0.997
		c0-0.549,0.448-0.997,0.997-0.997c0.549,0,0.997,0.448,0.997,0.997C69.313,48.489,68.866,48.937,68.316,48.937z"/>
	<path fill="#415463" d="M68.316,51.927c-1.099,0-1.993,0.894-1.993,1.993c0,1.1,0.894,1.993,1.993,1.993
		c1.099,0,1.993-0.894,1.993-1.993C70.311,52.821,69.416,51.927,68.316,51.927z M68.316,54.917c-0.549,0-0.997-0.448-0.997-0.997
		s0.448-0.997,0.997-0.997c0.549,0,0.997,0.448,0.997,0.997S68.866,54.917,68.316,54.917z"/>
	<path fill="#415463" d="M85.261,30H65.327c-1.648,0-2.99,1.342-2.99,2.99v23.92c0,1.648,1.342,2.99,2.99,2.99h19.934
		c1.648,0,2.99-1.342,2.99-2.99V32.99C88.25,31.342,86.909,30,85.261,30z M86.256,56.91c0,0.549-0.448,0.997-0.997,0.997H65.327
		c-0.549,0-0.997-0.448-0.997-0.997V32.99c0-0.549,0.448-0.997,0.997-0.997h19.934c0.549,0,0.997,0.448,0.997,0.997L86.256,56.91
		L86.256,56.91z"/>
	<path fill="#415463" d="M83.766,40.434H72.802c-0.275,0-0.498,0.223-0.498,0.498s0.223,0.499,0.498,0.499h10.963
		c0.275,0,0.499-0.223,0.499-0.499C84.264,40.657,84.041,40.434,83.766,40.434z"/>
	<path fill="#415463" d="M72.802,43.424h8.97c0.275,0,0.498-0.223,0.498-0.499c0-0.275-0.223-0.498-0.498-0.498h-8.97
		c-0.275,0-0.498,0.223-0.498,0.498C72.304,43.201,72.526,43.424,72.802,43.424z"/>
	<path fill="#415463" d="M83.766,46.414H72.802c-0.275,0-0.498,0.223-0.498,0.498s0.223,0.499,0.498,0.499h10.963
		c0.275,0,0.499-0.223,0.499-0.499C84.264,46.637,84.041,46.414,83.766,46.414z"/>
	<path fill="#415463" d="M72.802,49.404h7.974c0.275,0,0.498-0.223,0.498-0.499c0-0.275-0.223-0.498-0.498-0.498h-7.974
		c-0.275,0-0.498,0.223-0.498,0.498C72.304,49.181,72.526,49.404,72.802,49.404z"/>
	<path fill="#415463" d="M83.766,52.394H72.802c-0.275,0-0.498,0.223-0.498,0.498s0.223,0.499,0.498,0.499h10.963
		c0.275,0,0.499-0.223,0.499-0.499C84.264,52.617,84.041,52.394,83.766,52.394z"/>
	<path fill="#415463" d="M81.771,54.387h-8.97c-0.275,0-0.498,0.223-0.498,0.499c0,0.276,0.223,0.498,0.498,0.498h8.97
		c0.275,0,0.498-0.223,0.498-0.498C82.27,54.611,82.047,54.387,81.771,54.387z"/>
	<path fill="#415463" d="M67.32,36.603h15.947c0.55,0,0.997-0.447,0.997-0.997c0-0.55-0.447-0.997-0.997-0.997H67.32
		c-0.55,0-0.997,0.447-0.997,0.997C66.324,36.156,66.771,36.603,67.32,36.603z"/>
</g>
<g>
	<path fill="#415463" d="M66.25,87.957h2c1.103,0,2-0.894,2-1.993V70.017c0-1.099-0.897-1.993-2-1.993h-2c-1.103,0-2,0.894-2,1.993
		v15.947C64.25,87.062,65.147,87.957,66.25,87.957z M66.25,70.017h2l-0.003,15.947H66.25V70.017z"/>
	<path fill="#415463" d="M74.25,87.957h2c1.103,0,2-0.894,2-1.993v-23.92c0-1.1-0.897-1.994-2-1.994h-2c-1.103,0-2,0.894-2,1.994
		v23.92C72.25,87.062,73.147,87.957,74.25,87.957z M74.25,62.043h2l-0.003,23.92H74.25V62.043z"/>
	<path fill="#415463" d="M82.25,87.957h2c1.103,0,2-0.894,2-1.993v-9.967c0-1.099-0.897-1.993-2-1.993h-2c-1.103,0-2,0.894-2,1.993
		v9.967C80.25,87.062,81.147,87.957,82.25,87.957z M82.25,75.997h2l-0.003,9.967H82.25V75.997z"/>
	<path fill="#415463" d="M88.75,88.953h-27c-0.276,0-0.5,0.225-0.5,0.499s0.224,0.499,0.5,0.499h27c0.276,0,0.5-0.225,0.5-0.499
		S89.026,88.953,88.75,88.953z"/>
</g>
<path fill="#415463" d="M75.25,90.05c-8.257,0-14.95,6.694-14.95,14.95s6.693,14.95,14.95,14.95c8.256,0,14.95-6.694,14.95-14.95
	S83.507,90.05,75.25,90.05z M75.25,91.047c7.694,0,13.953,6.258,13.953,13.953c0,2.965-0.936,5.71-2.519,7.973
	c-0.043-0.038-0.077-0.085-0.129-0.117c-1.948-1.156-4.269-1.956-6.918-2.388c1.165-1.56,1.843-3.714,1.843-6.046
	c0-4.672-2.795-8.472-6.229-8.472c-3.435,0-6.229,3.799-6.229,8.472c0,2.331,0.676,4.481,1.839,6.041
	c-2.733,0.433-5.072,1.222-6.97,2.353c-0.045,0.028-0.075,0.071-0.115,0.104c-1.561-2.251-2.479-4.98-2.479-7.92
	C61.297,97.305,67.556,91.047,75.25,91.047z M75.25,118.953c-4.041,0-7.674-1.736-10.224-4.489c2.081-1.213,4.785-1.975,8.046-2.265
	c0.274-0.008,0.544-0.129,0.733-0.35c0.263-0.309,0.315-0.744,0.13-1.104c-0.093-0.182-0.237-0.325-0.408-0.417
	c-1.53-1.064-2.514-3.371-2.514-5.905c0-3.51,1.939-6.479,4.236-6.479c2.296,0,4.236,2.968,4.236,6.479
	c0,2.538-0.987,4.846-2.52,5.909c-0.151,0.084-0.28,0.208-0.372,0.363c-0.195,0.33-0.183,0.745,0.03,1.062
	c0.192,0.288,0.509,0.444,0.83,0.444c0.001,0,0.002,0,0.003,0c3.102,0.28,5.852,1.08,7.974,2.31
	C82.883,117.236,79.267,118.953,75.25,118.953z"/>
<g>
	<path fill="#A9BAC7" d="M23.25,1.969h-2.026c-0.388-1.216-1.535-2.061-2.917-1.96L7.171,0.825C5.561,0.943,4.25,2.354,4.25,3.969
		v21c0,1.604,1.243,3.047,2.831,3.284l11.169,1.661c0.148,0.022,0.293,0.032,0.435,0.032c1.249,0,2.263-0.827,2.579-1.977h1.986
		c1.654,0,3-1.346,3-3v-20C26.25,3.314,24.904,1.969,23.25,1.969z M19.375,27.219c0,0.484-0.353,0.79-0.831,0.716L7.375,26.274
		c-0.599-0.089-1.125-0.699-1.125-1.305v-21c0-0.581,0.489-1.107,1.068-1.149L18.526,2c0.484,0,0.849,0.369,0.849,0.859V27.219z
		 M24.25,24.969c0,0.551-0.449,1-1,1h-1.875v-22h1.875c0.551,0,1,0.449,1,1V24.969z"/>
	<path fill="#A9BAC7" d="M17.138,3.717c-0.001,0-0.002,0-0.003,0L8.343,4.289C7.94,4.315,7.625,4.651,7.625,5.054v6.102
		c0,0.413,0.336,0.749,0.749,0.749h0.002l8.792-0.062c0.413-0.001,0.748-0.338,0.748-0.751V4.45
		C17.917,4.046,17.589,3.717,17.138,3.717z M16.917,10.847l-8.292,0.056v-5.63l8.292-0.54V10.847z"/>
	<path fill="#A9BAC7" d="M15.917,13.625c-1.103,0-2,0.897-2,2s0.897,2,2,2s2-0.897,2-2S17.02,13.625,15.917,13.625z M15.917,16.625
		c-0.551,0-1-0.449-1-1s0.449-1,1-1s1,0.449,1,1S16.468,16.625,15.917,16.625z"/>
</g>
<g>
	<path fill="#A9BAC7" d="M8.274,39.967c-1.1,0-1.994,0.894-1.994,1.993c0,1.1,0.894,1.993,1.994,1.993
		c1.099,0,1.993-0.894,1.993-1.993S9.373,39.967,8.274,39.967z M8.274,42.957c-0.549,0-0.997-0.448-0.997-0.997
		s0.448-0.997,0.997-0.997s0.997,0.448,0.997,0.997S8.822,42.957,8.274,42.957z"/>
	<path fill="#A9BAC7" d="M8.274,45.947c-1.1,0-1.994,0.894-1.994,1.993c0,1.1,0.894,1.993,1.994,1.993
		c1.099,0,1.993-0.894,1.993-1.993S9.373,45.947,8.274,45.947z M8.274,48.937c-0.549,0-0.997-0.448-0.997-0.997
		c0-0.549,0.448-0.997,0.997-0.997s0.997,0.448,0.997,0.997C9.271,48.489,8.822,48.937,8.274,48.937z"/>
	<path fill="#A9BAC7" d="M8.274,51.927c-1.1,0-1.994,0.894-1.994,1.993c0,1.1,0.894,1.993,1.994,1.993
		c1.099,0,1.993-0.894,1.993-1.993S9.373,51.927,8.274,51.927z M8.274,54.917c-0.549,0-0.997-0.448-0.997-0.997
		s0.448-0.997,0.997-0.997s0.997,0.448,0.997,0.997S8.822,54.917,8.274,54.917z"/>
	<path fill="#A9BAC7" d="M25.217,30H5.283c-1.648,0-2.99,1.342-2.99,2.99v23.92c0,1.648,1.341,2.99,2.99,2.99h19.934
		c1.648,0,2.99-1.342,2.99-2.99V32.99C28.207,31.342,26.865,30,25.217,30z M26.213,56.91c0,0.549-0.448,0.997-0.997,0.997H5.283
		c-0.549,0-0.997-0.448-0.997-0.997V32.99c0-0.549,0.448-0.997,0.997-0.997h19.934c0.549,0,0.997,0.448,0.997,0.997L26.213,56.91
		L26.213,56.91z"/>
	<path fill="#A9BAC7" d="M23.722,40.434H12.758c-0.275,0-0.499,0.223-0.499,0.498s0.224,0.499,0.499,0.499h10.963
		c0.275,0,0.498-0.223,0.498-0.499C24.22,40.657,23.998,40.434,23.722,40.434z"/>
	<path fill="#A9BAC7" d="M12.758,43.424h8.97c0.275,0,0.499-0.223,0.499-0.499c0-0.275-0.223-0.498-0.499-0.498h-8.97
		c-0.275,0-0.499,0.223-0.499,0.498C12.26,43.201,12.483,43.424,12.758,43.424z"/>
	<path fill="#A9BAC7" d="M23.722,46.415H12.758c-0.275,0-0.499,0.223-0.499,0.498c0,0.276,0.224,0.499,0.499,0.499h10.963
		c0.275,0,0.498-0.223,0.498-0.499C24.22,46.637,23.998,46.415,23.722,46.415z"/>
	<path fill="#A9BAC7" d="M12.758,49.404h7.973c0.275,0,0.499-0.223,0.499-0.499c0-0.275-0.224-0.498-0.499-0.498h-7.973
		c-0.275,0-0.499,0.223-0.499,0.498C12.26,49.181,12.483,49.404,12.758,49.404z"/>
	<path fill="#A9BAC7" d="M23.722,52.394H12.758c-0.275,0-0.499,0.223-0.499,0.498s0.224,0.499,0.499,0.499h10.963
		c0.275,0,0.498-0.223,0.498-0.499C24.22,52.617,23.998,52.394,23.722,52.394z"/>
	<path fill="#A9BAC7" d="M21.728,54.387h-8.97c-0.275,0-0.499,0.223-0.499,0.499c0,0.276,0.224,0.498,0.499,0.498h8.97
		c0.275,0,0.499-0.223,0.499-0.498C22.227,54.611,22.004,54.387,21.728,54.387z"/>
	<path fill="#A9BAC7" d="M7.276,36.604h15.947c0.55,0,0.997-0.447,0.997-0.997c0-0.55-0.447-0.997-0.997-0.997H7.276
		c-0.55,0-0.997,0.447-0.997,0.997C6.28,36.156,6.727,36.604,7.276,36.604z"/>
</g>
<g>
	<path fill="#A9BAC7" d="M6.25,87.957h2c1.103,0,2-0.894,2-1.993V70.017c0-1.099-0.897-1.993-2-1.993h-2c-1.103,0-2,0.894-2,1.993
		v15.947C4.25,87.062,5.147,87.957,6.25,87.957z M6.25,70.017h2L8.247,85.963H6.25V70.017z"/>
	<path fill="#A9BAC7" d="M14.25,87.957h2c1.103,0,2-0.894,2-1.993v-23.92c0-1.1-0.897-1.994-2-1.994h-2c-1.103,0-2,0.894-2,1.994
		v23.92C12.25,87.062,13.147,87.957,14.25,87.957z M14.25,62.043h2l-0.003,23.92H14.25V62.043z"/>
	<path fill="#A9BAC7" d="M22.25,87.957h2c1.103,0,2-0.894,2-1.993v-9.967c0-1.099-0.897-1.993-2-1.993h-2c-1.103,0-2,0.894-2,1.993
		v9.967C20.25,87.062,21.147,87.957,22.25,87.957z M22.25,75.997h2l-0.003,9.967H22.25V75.997z"/>
	<path fill="#A9BAC7" d="M28.75,88.953h-27c-0.276,0-0.5,0.225-0.5,0.499c0,0.275,0.224,0.499,0.5,0.499h27
		c0.276,0,0.5-0.224,0.5-0.499S29.026,88.953,28.75,88.953z"/>
</g>
<path fill="#A9BAC7" d="M15.25,90.05C6.994,90.05,0.3,96.744,0.3,105s6.694,14.95,14.95,14.95S30.2,113.256,30.2,105
	S23.506,90.05,15.25,90.05z M15.25,91.047c7.694,0,13.953,6.258,13.953,13.953c0,2.965-0.936,5.71-2.518,7.973
	c-0.044-0.038-0.077-0.085-0.128-0.117c-1.949-1.156-4.269-1.956-6.919-2.388c1.165-1.56,1.843-3.714,1.843-6.046
	c0-4.672-2.795-8.472-6.229-8.472s-6.229,3.799-6.229,8.472c0,2.331,0.676,4.481,1.839,6.041c-2.733,0.433-5.071,1.222-6.97,2.353
	c-0.046,0.028-0.075,0.071-0.115,0.104c-1.561-2.251-2.479-4.98-2.479-7.92C1.297,97.305,7.556,91.047,15.25,91.047z M15.25,118.953
	c-4.041,0-7.673-1.736-10.224-4.489c2.081-1.213,4.785-1.975,8.046-2.265c0.274-0.008,0.544-0.129,0.733-0.35
	c0.263-0.309,0.315-0.744,0.13-1.104c-0.093-0.182-0.236-0.325-0.408-0.417c-1.53-1.064-2.515-3.371-2.515-5.905
	c0-3.51,1.939-6.479,4.236-6.479s4.236,2.968,4.236,6.479c0,2.538-0.987,4.846-2.52,5.909c-0.151,0.084-0.28,0.208-0.372,0.363
	c-0.196,0.33-0.184,0.745,0.03,1.062c0.192,0.288,0.508,0.444,0.83,0.444c0.001,0,0.002,0,0.003,0c3.102,0.28,5.852,1.08,7.973,2.31
	C22.883,117.236,19.266,118.953,15.25,118.953z"/>
<path fill="#A9BAC7" d="M28.183,167.111c0.018-0.025,0.029-0.057,0.046-0.084c0.05-0.084,0.1-0.168,0.138-0.26
	c0.016-0.037,0.023-0.078,0.037-0.117c0.029-0.084,0.06-0.166,0.077-0.256c0.026-0.129,0.04-0.269,0.04-0.396
	s-0.014-0.268-0.04-0.396c-0.018-0.09-0.048-0.172-0.077-0.256c-0.014-0.039-0.021-0.08-0.037-0.117
	c-0.038-0.092-0.088-0.176-0.138-0.26c-0.017-0.027-0.028-0.059-0.046-0.085c-0.073-0.108-0.156-0.21-0.249-0.304l-6.499-6.498
	c-0.781-0.781-2.048-0.781-2.828,0c-0.781,0.781-0.781,2.047,0,2.828l3.085,3.09H4.479c-1.104,0-2,0.896-2,2s0.896,2,2,2h17.213
	l-3.086,3.086c-0.781,0.781-0.781,2.047,0,2.828c0.39,0.391,0.902,0.586,1.414,0.586s1.023-0.195,1.414-0.586l6.499-6.498
	C28.026,167.322,28.109,167.221,28.183,167.111z"/>
<path fill="#A9BAC7" d="M2.817,134.889c-0.018,0.025-0.029,0.057-0.046,0.084c-0.05,0.084-0.1,0.168-0.138,0.26
	c-0.016,0.037-0.023,0.078-0.037,0.117c-0.029,0.084-0.06,0.166-0.077,0.256c-0.026,0.129-0.04,0.269-0.04,0.396
	s0.014,0.268,0.04,0.396c0.018,0.09,0.048,0.172,0.077,0.256c0.014,0.039,0.021,0.08,0.037,0.117
	c0.038,0.092,0.088,0.176,0.138,0.26c0.017,0.027,0.028,0.059,0.046,0.085c0.073,0.108,0.156,0.21,0.249,0.304l6.499,6.498
	c0.781,0.781,2.048,0.781,2.828,0c0.781-0.781,0.781-2.047,0-2.828L9.308,138h17.213c1.104,0,2-0.896,2-2s-0.896-2-2-2H9.308
	l3.086-3.086c0.781-0.781,0.781-2.047,0-2.828c-0.39-0.391-0.902-0.586-1.414-0.586s-1.023,0.195-1.414,0.586l-6.499,6.498
	C2.974,134.678,2.891,134.779,2.817,134.889z"/>
<path fill="#FFFFFF" d="M32.817,134.889c-0.018,0.025-0.029,0.057-0.046,0.084c-0.05,0.084-0.1,0.168-0.138,0.26
	c-0.016,0.037-0.023,0.078-0.037,0.117c-0.029,0.084-0.06,0.166-0.077,0.256c-0.026,0.129-0.04,0.269-0.04,0.396
	s0.014,0.268,0.04,0.396c0.018,0.09,0.048,0.172,0.077,0.256c0.014,0.039,0.021,0.08,0.037,0.117
	c0.038,0.092,0.088,0.176,0.138,0.26c0.017,0.027,0.028,0.059,0.046,0.085c0.073,0.108,0.156,0.21,0.249,0.304l6.499,6.498
	c0.781,0.781,2.048,0.781,2.828,0c0.781-0.781,0.781-2.047,0-2.828L39.308,138h17.213c1.104,0,2-0.896,2-2s-0.896-2-2-2H39.308
	l3.086-3.086c0.781-0.781,0.781-2.047,0-2.828c-0.39-0.391-0.902-0.586-1.414-0.586s-1.023,0.195-1.414,0.586l-6.499,6.498
	C32.974,134.678,32.891,134.779,32.817,134.889z"/>
<path fill="#88DB81" d="M75.25,120.05c-8.257,0-14.95,6.693-14.95,14.95s6.693,14.95,14.95,14.95S90.2,143.257,90.2,135
	S83.507,120.05,75.25,120.05z M78.958,127.5c0.829,0,1.5,1.062,1.5,2.375s-0.671,2.375-1.5,2.375c-0.828,0-1.5-1.062-1.5-2.375
	S78.13,127.5,78.958,127.5z M71.542,127.5c0.829,0,1.5,1.062,1.5,2.375s-0.671,2.375-1.5,2.375c-0.828,0-1.5-1.062-1.5-2.375
	S70.713,127.5,71.542,127.5z M75.25,143.488c-3.299,0-6.201-1.686-7.9-4.238h15.803C81.452,141.805,78.548,143.488,75.25,143.488z"
	/>
<path fill="#46C075" d="M75.25,150.05c-8.257,0-14.95,6.693-14.95,14.95s6.693,14.95,14.95,14.95S90.2,173.257,90.2,165
	S83.507,150.05,75.25,150.05z M78.958,157.5c0.829,0,1.5,1.062,1.5,2.375s-0.671,2.375-1.5,2.375c-0.828,0-1.5-1.062-1.5-2.375
	S78.13,157.5,78.958,157.5z M71.542,157.5c0.829,0,1.5,1.062,1.5,2.375s-0.671,2.375-1.5,2.375c-0.828,0-1.5-1.062-1.5-2.375
	S70.713,157.5,71.542,157.5z M75.25,173.488c-3.299,0-6.201-1.686-7.9-4.238h15.803C81.452,171.805,78.548,173.488,75.25,173.488z"
	/>
<path fill="#FDB343" d="M75.25,180.05c-8.257,0-14.95,6.693-14.95,14.95s6.693,14.95,14.95,14.95S90.2,203.257,90.2,195
	S83.507,180.05,75.25,180.05z M77.025,186.076l-0.119,3.191l-0.504,7.344h-2.305l-0.504-7.344l-0.119-3.191H77.025z M75.25,203.82
	c-1.225,0-2.137-0.961-2.137-2.209c0-1.271,0.912-2.231,2.137-2.231s2.137,0.96,2.137,2.231
	C77.387,202.859,76.475,203.82,75.25,203.82z"/>
<path fill="#FD7F3F" d="M75.25,210.05c-8.257,0-14.95,6.693-14.95,14.95s6.693,14.95,14.95,14.95S90.2,233.257,90.2,225
	S83.507,210.05,75.25,210.05z M77.025,216.076l-0.119,3.191l-0.504,7.344h-2.305l-0.504-7.344l-0.119-3.191H77.025z M75.25,233.82
	c-1.225,0-2.137-0.961-2.137-2.209c0-1.271,0.912-2.231,2.137-2.231s2.137,0.96,2.137,2.231
	C77.387,232.859,76.475,233.82,75.25,233.82z"/>
<g>
	<path fill="#505050" d="M107.121,56.524c-0.11,0-0.224-0.012-0.334-0.035c-3.249-0.666-6.207-2.446-8.326-5.016
		c-2.15-2.607-3.336-5.906-3.336-9.29c0-3.353,1.165-6.628,3.279-9.222c2.085-2.557,4.998-4.348,8.205-5.047
		c0.895-0.194,1.777,0.373,1.973,1.27c0.195,0.894-0.373,1.777-1.268,1.972c-2.476,0.539-4.727,1.923-6.34,3.902
		c-1.633,2.003-2.531,4.533-2.531,7.125c0,2.616,0.914,5.165,2.576,7.177c1.639,1.988,3.924,3.365,6.432,3.878
		c0.896,0.183,1.477,1.06,1.291,1.958C108.582,55.982,107.893,56.524,107.121,56.524z"/>
	<path fill="#505050" d="M111.066,50.186c-4.412,0-8.002-3.59-8.002-8.002c0-4.413,3.59-8.003,8.002-8.003
		c0.916,0,1.658,0.744,1.658,1.659c0,0.916-0.742,1.659-1.658,1.659c-2.584,0-4.686,2.102-4.686,4.685s2.102,4.685,4.686,4.685
		c0.916,0,1.658,0.743,1.658,1.659S111.982,50.186,111.066,50.186z"/>
	<circle fill="#505050" cx="113.856" cy="42.184" r="2.222"/>
</g>
<g>
	<path fill="#505050" d="M138.556,36.718c2.525,0,4.477,1.675,4.497,1.692l0.123,0.107l1.965-4.062l-0.081-0.062
		c-0.026-0.02-2.604-1.958-6.881-1.958c-3.004,0-5.739,1.142-7.7,3.216c-1.833,1.939-2.885,4.61-2.885,7.327
		c0,5.787,4.284,9.829,10.417,9.829c4.832,0,6.978-2.377,7.067-2.479l0.054-0.061l-1.701-3.762l-0.128,0.12
		c-0.021,0.019-2.056,1.898-4.914,1.898c-3.114,0-5.126-2.292-5.126-5.84C133.262,39.116,135.39,36.718,138.556,36.718z"/>
	<path fill="#505050" d="M165.814,46.339V32.94h-5.459v12.544c-1.254,1.1-3.09,2.536-4.706,2.536c-1.382,0-1.849-0.901-1.849-3.572
		V32.94h-5.502v13.987c0,5.116,3.369,5.88,5.377,5.88c3.336,0,5.841-1.935,7.134-3.215c0.183,1.339,0.553,2.975,0.557,2.992
		l0.024,0.106l5.295-0.485l-0.035-0.141C166.643,52.03,165.814,48.607,165.814,46.339z"/>
	<path fill="#505050" d="M181.773,32.436c-2.717,0-4.599,2.18-5.588,3.718v-3.656l-5.291,0.882v18.924h5.501V40.749
		c0.793-1.16,2.397-3.064,4.37-3.064c0.886,0,1.749,0.364,1.758,0.368l0.146,0.062l0.866-5.197l0.015-0.086l-0.075-0.043
		C183.449,32.774,182.845,32.436,181.773,32.436z"/>
	<path fill="#505050" d="M197.104,32.436c-2.719,0-4.6,2.179-5.588,3.717v-3.656l-5.291,0.882v18.924h5.501V40.749
		c0.792-1.16,2.395-3.064,4.37-3.064c0.886,0,1.748,0.364,1.757,0.368l0.146,0.062l0.867-5.197l0.015-0.086l-0.076-0.043
		C198.779,32.774,198.174,32.436,197.104,32.436z"/>
	<rect x="201.638" y="32.94" fill="#505050" width="5.501" height="19.363"/>
	<path fill="#505050" d="M204.409,29.031c1.85,0,3.191-1.289,3.191-3.065s-1.342-3.066-3.191-3.066c-1.874,0-3.233,1.29-3.233,3.066
		S202.535,29.031,204.409,29.031z"/>
</g>
<g>
	<path fill="#FFFFFF" d="M107.121,91.524c-0.11,0-0.224-0.012-0.334-0.035c-3.249-0.666-6.207-2.446-8.326-5.016
		c-2.15-2.607-3.336-5.906-3.336-9.29c0-3.353,1.165-6.628,3.279-9.222c2.085-2.557,4.998-4.348,8.205-5.047
		c0.895-0.194,1.777,0.373,1.973,1.27c0.195,0.894-0.373,1.777-1.268,1.972c-2.476,0.539-4.727,1.923-6.34,3.902
		c-1.633,2.003-2.531,4.533-2.531,7.125c0,2.616,0.914,5.165,2.576,7.177c1.639,1.988,3.924,3.365,6.432,3.878
		c0.896,0.183,1.477,1.06,1.291,1.958C108.582,90.982,107.893,91.524,107.121,91.524z"/>
	<path fill="#FFFFFF" d="M111.066,85.186c-4.412,0-8.002-3.59-8.002-8.002c0-4.413,3.59-8.003,8.002-8.003
		c0.916,0,1.658,0.744,1.658,1.659c0,0.916-0.742,1.659-1.658,1.659c-2.584,0-4.686,2.102-4.686,4.685s2.102,4.685,4.686,4.685
		c0.916,0,1.658,0.743,1.658,1.659S111.982,85.186,111.066,85.186z"/>
	<circle fill="#FFFFFF" cx="113.856" cy="77.184" r="2.222"/>
</g>
<g>
	<path fill="#FFFFFF" d="M138.556,71.718c2.525,0,4.477,1.675,4.497,1.692l0.123,0.107l1.965-4.062l-0.081-0.062
		c-0.026-0.02-2.604-1.958-6.881-1.958c-3.004,0-5.739,1.142-7.7,3.216c-1.833,1.939-2.885,4.61-2.885,7.327
		c0,5.787,4.284,9.829,10.417,9.829c4.832,0,6.978-2.377,7.067-2.479l0.054-0.061l-1.701-3.762l-0.128,0.12
		c-0.021,0.019-2.056,1.898-4.914,1.898c-3.114,0-5.126-2.292-5.126-5.84C133.262,74.116,135.39,71.718,138.556,71.718z"/>
	<path fill="#FFFFFF" d="M165.814,81.339V67.94h-5.459v12.544c-1.254,1.1-3.09,2.536-4.706,2.536c-1.382,0-1.849-0.901-1.849-3.572
		V67.94h-5.502v13.987c0,5.116,3.369,5.88,5.377,5.88c3.336,0,5.841-1.935,7.134-3.215c0.183,1.339,0.553,2.975,0.557,2.992
		l0.024,0.106l5.295-0.485l-0.035-0.141C166.643,87.03,165.814,83.607,165.814,81.339z"/>
	<path fill="#FFFFFF" d="M181.773,67.436c-2.717,0-4.599,2.18-5.588,3.718v-3.656l-5.291,0.882v18.924h5.501V75.749
		c0.793-1.16,2.397-3.064,4.37-3.064c0.886,0,1.749,0.364,1.758,0.368l0.146,0.062l0.866-5.197l0.015-0.086l-0.075-0.043
		C183.449,67.774,182.845,67.436,181.773,67.436z"/>
	<path fill="#FFFFFF" d="M197.104,67.436c-2.719,0-4.6,2.179-5.588,3.717v-3.656l-5.291,0.882v18.924h5.501V75.749
		c0.792-1.16,2.395-3.064,4.37-3.064c0.886,0,1.748,0.364,1.757,0.368l0.146,0.062l0.867-5.197l0.015-0.086l-0.076-0.043
		C198.779,67.774,198.174,67.436,197.104,67.436z"/>
	<rect x="201.638" y="67.94" fill="#FFFFFF" width="5.501" height="19.363"/>
	<path fill="#FFFFFF" d="M204.409,64.031c1.85,0,3.191-1.289,3.191-3.065s-1.342-3.066-3.191-3.066c-1.874,0-3.233,1.29-3.233,3.066
		S202.535,64.031,204.409,64.031z"/>
</g>
<g>
	<path fill="#C45906" d="M14.289,195.703c0.822-0.796,1.362-2.049,1.362-3.473c0-2.41-1.521-4.363-3.397-4.363
		c-1.875,0-3.397,1.953-3.397,4.363c0,1.424,0.54,2.677,1.362,3.473c-2.953,0.659-5.129,2.711-5.278,5.176
		C7.065,202.215,9.566,203,12.253,203c2.688,0,5.188-0.785,7.314-2.121C19.418,198.414,17.241,196.362,14.289,195.703z"/>
	<path fill="#C45906" d="M8.49,195.126c-0.446-0.856-0.689-1.854-0.689-2.896c0-2.296,1.177-4.251,2.831-5.045
		c0.204-0.556,0.329-1.166,0.329-1.821c0-2.41-1.521-4.364-3.397-4.364c-1.875,0-3.397,1.954-3.397,4.364
		c0,1.423,0.54,2.677,1.362,3.474c-2.953,0.658-5.129,2.71-5.278,5.175c1.894,1.19,4.088,1.939,6.445,2.09
		C7.233,195.719,7.834,195.389,8.49,195.126z"/>
	<path fill="#C45906" d="M16.706,192.23c0,1.041-0.243,2.039-0.689,2.896c0.655,0.263,1.257,0.593,1.794,0.976
		c2.354-0.15,4.546-0.899,6.438-2.089c-0.149-2.465-2.326-4.517-5.278-5.175c0.822-0.797,1.362-2.051,1.362-3.474
		c0-2.41-1.521-4.364-3.397-4.364c-1.876,0-3.397,1.954-3.397,4.364c0,0.654,0.125,1.264,0.328,1.817
		C15.524,187.974,16.706,189.932,16.706,192.23z"/>
</g>
<g>
	<circle fill="#C45906" cx="30.466" cy="189.66" r="1.493"/>
	<circle fill="#C45906" cx="30.549" cy="194.39" r="1.493"/>
	<circle fill="#C45906" cx="30.549" cy="199.036" r="1.493"/>
	<path fill="#C45906" d="M44.092,180.05H28.158c-1.317,0-2.39,1.073-2.39,2.391v19.119c0,1.317,1.072,2.391,2.39,2.391h15.934
		c1.317,0,2.39-1.073,2.39-2.391V182.44C46.482,181.123,45.409,180.05,44.092,180.05z M44.888,201.56
		c0,0.438-0.358,0.798-0.797,0.798H28.158c-0.438,0-0.796-0.359-0.796-0.798V182.44c0-0.438,0.358-0.798,0.796-0.798h15.934
		c0.439,0,0.797,0.359,0.797,0.798L44.888,201.56z"/>
	<path fill="#C45906" d="M42.896,188.39h-8.764c-0.22,0-0.399,0.179-0.399,0.398s0.179,0.399,0.399,0.399h8.763
		c0.22,0,0.398-0.179,0.398-0.399C43.295,188.568,43.118,188.39,42.896,188.39z"/>
	<path fill="#C45906" d="M34.133,190.779h7.17c0.22,0,0.398-0.178,0.398-0.398c0-0.219-0.178-0.397-0.398-0.397h-7.17
		c-0.22,0-0.399,0.179-0.399,0.397C33.734,190.602,33.913,190.779,34.133,190.779z"/>
	<path fill="#C45906" d="M42.896,193.171h-8.764c-0.22,0-0.399,0.179-0.399,0.397c0,0.222,0.179,0.4,0.399,0.4h8.763
		c0.22,0,0.398-0.179,0.398-0.4C43.295,193.348,43.118,193.171,42.896,193.171z"/>
	<path fill="#C45906" d="M34.133,195.561h6.373c0.22,0,0.399-0.178,0.399-0.399c0-0.221-0.179-0.398-0.399-0.398h-6.373
		c-0.22,0-0.399,0.178-0.399,0.398C33.734,195.383,33.913,195.561,34.133,195.561z"/>
	<path fill="#C45906" d="M42.896,197.951h-8.764c-0.22,0-0.399,0.178-0.399,0.397s0.179,0.397,0.399,0.397h8.763
		c0.22,0,0.398-0.178,0.398-0.397C43.295,198.129,43.118,197.951,42.896,197.951z"/>
	<path fill="#C45906" d="M41.303,199.543h-7.17c-0.22,0-0.399,0.178-0.399,0.398s0.179,0.398,0.399,0.398h7.17
		c0.22,0,0.398-0.178,0.398-0.398C41.702,199.723,41.523,199.543,41.303,199.543z"/>
	<path fill="#C45906" d="M42.498,183.734H29.751c-0.44,0-0.797,0.357-0.797,0.798c0,0.438,0.358,0.797,0.797,0.797h12.747
		c0.44,0,0.797-0.357,0.797-0.797C43.295,184.092,42.938,183.734,42.498,183.734z"/>
</g>
<g>
	<path fill="#C45906" d="M103.928,101.261l-3.261,3.262l-0.969-0.97c-0.391-0.391-1.023-0.391-1.414,0s-0.391,1.023,0,1.414
		l1.676,1.677c0.188,0.188,0.442,0.293,0.707,0.293s0.52-0.105,0.707-0.293l3.968-3.969c0.391-0.391,0.391-1.023,0-1.414
		S104.319,100.87,103.928,101.261z"/>
	<path fill="#C45906" d="M113.243,103h-3.489v-2c0-2.481-2.019-4.5-4.5-4.5h-2.004V93c0-0.553-0.448-1-1-1s-1,0.447-1,1v3.5h-1.996
		c-2.481,0-4.5,2.019-4.5,4.5v2H91.25c-0.552,0-1,0.447-1,1s0.448,1,1,1h3.504v2c0,2.481,2.019,4.5,4.5,4.5h1.996v3.5
		c0,0.553,0.448,1,1,1s1-0.447,1-1v-3.5h2.004c2.481,0,4.5-2.019,4.5-4.5v-2h3.489c0.552,0,1-0.447,1-1S113.795,103,113.243,103z
		 M108.754,107c0,1.93-1.57,3.5-3.5,3.5h-6c-1.93,0-3.5-1.57-3.5-3.5v-6c0-1.93,1.57-3.5,3.5-3.5h6c1.93,0,3.5,1.57,3.5,3.5V107z"/>
</g>
<g>
	<path fill="#C45906" d="M157.254,109c0,1.1-0.9,2-2,2h-10c-1.1,0-2-0.9-2-2V99c0-1.1,0.9-2,2-2h10c1.1,0,2,0.9,2,2V109z"/>
</g>
<g>
	<path fill="#C45906" d="M121.48,97.454c-0.985-0.489-1.791,0.011-1.791,1.11v11c0,1.1,0.804,1.596,1.787,1.101l11.427-5.75
		c0.983-0.495,0.98-1.3-0.004-1.789L121.48,97.454z"/>
</g>
<g>
	<path fill="#A2A2A2" d="M103.928,125.261l-3.261,3.262l-0.969-0.97c-0.391-0.391-1.023-0.391-1.414,0s-0.391,1.023,0,1.414
		l1.676,1.677c0.188,0.188,0.442,0.293,0.707,0.293s0.52-0.105,0.707-0.293l3.968-3.969c0.391-0.391,0.391-1.023,0-1.414
		S104.319,124.87,103.928,125.261z"/>
	<path fill="#A2A2A2" d="M113.243,127h-3.489v-2c0-2.481-2.019-4.5-4.5-4.5h-2.004V117c0-0.553-0.448-1-1-1s-1,0.447-1,1v3.5h-1.996
		c-2.481,0-4.5,2.019-4.5,4.5v2H91.25c-0.552,0-1,0.447-1,1s0.448,1,1,1h3.504v2c0,2.481,2.019,4.5,4.5,4.5h1.996v3.5
		c0,0.553,0.448,1,1,1s1-0.447,1-1v-3.5h2.004c2.481,0,4.5-2.019,4.5-4.5v-2h3.489c0.552,0,1-0.447,1-1S113.795,127,113.243,127z
		 M108.754,131c0,1.93-1.57,3.5-3.5,3.5h-6c-1.93,0-3.5-1.57-3.5-3.5v-6c0-1.93,1.57-3.5,3.5-3.5h6c1.93,0,3.5,1.57,3.5,3.5V131z"/>
</g>
<g>
	<path fill="#A2A2A2" d="M157.254,133c0,1.1-0.9,2-2,2h-10c-1.1,0-2-0.9-2-2v-10c0-1.1,0.9-2,2-2h10c1.1,0,2,0.9,2,2V133z"/>
</g>
<g>
	<path fill="#A2A2A2" d="M121.48,121.454c-0.985-0.489-1.791,0.011-1.791,1.11v11c0,1.1,0.804,1.596,1.787,1.101l11.427-5.75
		c0.983-0.495,0.98-1.3-0.004-1.789L121.48,121.454z"/>
</g>
<g>
	<path fill="#C45906" d="M46.189,216"/>
</g>
</svg>
