<?xml version="1.0" encoding="utf-8"?>
<!-- Generator: Adobe Illustrator 16.0.4, SVG Export Plug-In . SVG Version: 6.00 Build 0)  -->
<!DOCTYPE svg PUBLIC "-//W3C//DTD SVG 1.1//EN" "http://www.w3.org/Graphics/SVG/1.1/DTD/svg11.dtd">
<svg version="1.1" id="Layer_1" xmlns="http://www.w3.org/2000/svg" xmlns:xlink="http://www.w3.org/1999/xlink" x="0px" y="0px"
	 width="279.5px" height="235px" viewBox="0 0 279.5 235" enable-background="new 0 0 279.5 235" xml:space="preserve">
<path fill="none" stroke="#000000" stroke-linecap="round" stroke-linejoin="round" stroke-miterlimit="10" d="M90.983,11.326"/>
<path fill="none" stroke="#000000" stroke-linecap="round" stroke-linejoin="round" stroke-miterlimit="10" d="M88.983,12.929"/>
<g>
	<path fill="#7B94A8" d="M110.25,0h-18c-1.104,0-2,0.896-2,2s0.896,2,2,2h18c1.104,0,2-0.896,2-2S111.354,0,110.25,0z"/>
	<path fill="#7B94A8" d="M110.25,7h-18c-1.104,0-2,0.896-2,2s0.896,2,2,2h18c1.104,0,2-0.896,2-2S111.354,7,110.25,7z"/>
	<path fill="#7B94A8" d="M110.25,14h-18c-1.104,0-2,0.896-2,2s0.896,2,2,2h18c1.104,0,2-0.896,2-2S111.354,14,110.25,14z"/>
</g>
<g>
	<path fill="#2D3A44" d="M132.219,0h-18c-1.104,0-2,0.896-2,2s0.896,2,2,2h18c1.104,0,2-0.896,2-2S133.323,0,132.219,0z"/>
	<path fill="#2D3A44" d="M132.219,7h-18c-1.104,0-2,0.896-2,2s0.896,2,2,2h18c1.104,0,2-0.896,2-2S133.323,7,132.219,7z"/>
	<path fill="#2D3A44" d="M132.219,14h-18c-1.104,0-2,0.896-2,2s0.896,2,2,2h18c1.104,0,2-0.896,2-2S133.323,14,132.219,14z"/>
</g>
<path d="M223.13,135.467l-13.597-13.597c-2.494-2.494-6.572-2.494-9.065,0l-13.598,13.597c-2.493,2.493-2.493,6.572,0,9.065
	l13.598,13.597c2.493,2.494,6.572,2.494,9.065,0l13.597-13.597C225.624,142.039,225.624,137.96,223.13,135.467z M211.168,145.889
	c-1.495,1.307-3.141,1.896-5.331,1.896c-4.328,0-7.719-3.399-7.719-7.738c0-4.479,3.37-7.814,7.839-7.814
	c2.007,0,3.596,0.479,5,1.521c0.518,0.392,0.823,1.008,0.823,1.663c0,1.131-0.931,2.051-2.071,2.051c-0.607,0-1.02-0.26-1.215-0.386
	c-0.859-0.644-1.639-0.911-2.557-0.911c-1.994,0-3.498,1.632-3.498,3.797c0,2.229,1.504,3.875,3.498,3.875
	c1.211,0,1.951-0.396,2.688-0.979c0.354-0.295,0.805-0.461,1.264-0.461c1.098,0,1.99,0.889,1.99,1.976
	C211.881,144.948,211.622,145.502,211.168,145.889z"/>
<g>
	<path fill="#FFFFFF" d="M53.25,1.969h-2.026c-0.388-1.216-1.535-2.061-2.917-1.96L37.171,0.825
		c-1.61,0.118-2.921,1.529-2.921,3.144v21c0,1.604,1.243,3.047,2.831,3.284l11.169,1.661c0.148,0.022,0.293,0.032,0.435,0.032
		c1.249,0,2.263-0.827,2.579-1.977h1.986c1.654,0,3-1.346,3-3v-20C56.25,3.314,54.904,1.969,53.25,1.969z M49.375,27.219
		c0,0.484-0.353,0.79-0.831,0.716l-11.168-1.661c-0.6-0.089-1.126-0.699-1.126-1.305v-21c0-0.581,0.489-1.106,1.068-1.149L48.526,2
		c0.484,0,0.849,0.369,0.849,0.859V27.219z M54.25,24.969c0,0.551-0.449,1-1,1h-1.875v-22h1.875c0.551,0,1,0.449,1,1V24.969z"/>
	<path fill="#FFFFFF" d="M47.138,3.717c-0.001,0-0.002,0-0.003,0l-8.792,0.572c-0.402,0.026-0.718,0.362-0.718,0.765v6.102
		c0,0.413,0.336,0.749,0.749,0.749h0.002l8.792-0.062c0.413-0.001,0.748-0.338,0.748-0.751V4.45
		C47.917,4.046,47.589,3.717,47.138,3.717z M46.917,10.847l-8.292,0.056v-5.63l8.292-0.54V10.847z"/>
	<path fill="#FFFFFF" d="M45.917,13.625c-1.103,0-2,0.897-2,2s0.897,2,2,2s2-0.897,2-2S47.02,13.625,45.917,13.625z M45.917,16.625
		c-0.551,0-1-0.449-1-1s0.449-1,1-1s1,0.449,1,1S46.468,16.625,45.917,16.625z"/>
</g>
<g>
	<path fill="#FFFFFF" d="M38.273,39.967c-1.1,0-1.994,0.894-1.994,1.993c0,1.1,0.894,1.993,1.994,1.993
		c1.099,0,1.993-0.894,1.993-1.993C40.267,40.861,39.373,39.967,38.273,39.967z M38.273,42.957c-0.549,0-0.997-0.448-0.997-0.997
		s0.448-0.997,0.997-0.997s0.997,0.448,0.997,0.997S38.822,42.957,38.273,42.957z"/>
	<path fill="#FFFFFF" d="M38.273,45.947c-1.1,0-1.994,0.894-1.994,1.993c0,1.1,0.894,1.993,1.994,1.993
		c1.099,0,1.993-0.894,1.993-1.993C40.267,46.841,39.373,45.947,38.273,45.947z M38.273,48.937c-0.549,0-0.997-0.448-0.997-0.997
		c0-0.549,0.448-0.997,0.997-0.997s0.997,0.448,0.997,0.997C39.27,48.489,38.822,48.937,38.273,48.937z"/>
	<path fill="#FFFFFF" d="M38.273,51.927c-1.1,0-1.994,0.894-1.994,1.993c0,1.1,0.894,1.993,1.994,1.993
		c1.099,0,1.993-0.894,1.993-1.993C40.267,52.821,39.373,51.927,38.273,51.927z M38.273,54.917c-0.549,0-0.997-0.448-0.997-0.997
		s0.448-0.997,0.997-0.997s0.997,0.448,0.997,0.997S38.822,54.917,38.273,54.917z"/>
	<path fill="#FFFFFF" d="M55.217,30H35.283c-1.648,0-2.99,1.342-2.99,2.99v23.92c0,1.648,1.342,2.99,2.99,2.99h19.934
		c1.648,0,2.99-1.342,2.99-2.99V32.99C58.207,31.342,56.865,30,55.217,30z M56.213,56.91c0,0.549-0.448,0.997-0.997,0.997H35.283
		c-0.549,0-0.997-0.448-0.997-0.997V32.99c0-0.549,0.448-0.997,0.997-0.997h19.934c0.549,0,0.997,0.448,0.997,0.997L56.213,56.91
		L56.213,56.91z"/>
	<path fill="#FFFFFF" d="M53.722,40.434H42.758c-0.275,0-0.499,0.223-0.499,0.498s0.224,0.499,0.499,0.499h10.963
		c0.275,0,0.499-0.223,0.499-0.499C54.22,40.657,53.998,40.434,53.722,40.434z"/>
	<path fill="#FFFFFF" d="M42.758,43.424h8.97c0.275,0,0.498-0.223,0.498-0.499c0-0.275-0.223-0.498-0.498-0.498h-8.97
		c-0.275,0-0.499,0.223-0.499,0.498C42.26,43.201,42.483,43.424,42.758,43.424z"/>
	<path fill="#FFFFFF" d="M53.722,46.414H42.758c-0.275,0-0.499,0.223-0.499,0.498s0.224,0.499,0.499,0.499h10.963
		c0.275,0,0.499-0.223,0.499-0.499C54.22,46.637,53.998,46.414,53.722,46.414z"/>
	<path fill="#FFFFFF" d="M42.758,49.404h7.973c0.275,0,0.499-0.223,0.499-0.499c0-0.275-0.223-0.498-0.499-0.498h-7.973
		c-0.275,0-0.499,0.223-0.499,0.498C42.26,49.181,42.483,49.404,42.758,49.404z"/>
	<path fill="#FFFFFF" d="M53.722,52.394H42.758c-0.275,0-0.499,0.223-0.499,0.498s0.224,0.499,0.499,0.499h10.963
		c0.275,0,0.499-0.223,0.499-0.499C54.22,52.617,53.998,52.394,53.722,52.394z"/>
	<path fill="#FFFFFF" d="M51.729,54.387h-8.97c-0.275,0-0.499,0.223-0.499,0.499c0,0.276,0.224,0.498,0.499,0.498h8.97
		c0.275,0,0.498-0.223,0.498-0.498C52.227,54.611,52.004,54.387,51.729,54.387z"/>
	<path fill="#FFFFFF" d="M37.277,36.603h15.946c0.55,0,0.997-0.447,0.997-0.997c0-0.55-0.447-0.997-0.997-0.997H37.277
		c-0.55,0-0.997,0.447-0.997,0.997C36.28,36.156,36.727,36.603,37.277,36.603z"/>
</g>
<g>
	<path fill="#FFFFFF" d="M36.25,88h2c1.103,0,2-0.897,2-2V70c0-1.103-0.897-2-2-2h-2c-1.103,0-2,0.897-2,2v16
		C34.25,87.103,35.147,88,36.25,88z M36.25,70h2l-0.003,16H36.25V70z"/>
	<path fill="#FFFFFF" d="M44.25,88h2c1.103,0,2-0.897,2-2V62c0-1.103-0.897-2-2-2h-2c-1.103,0-2,0.897-2,2v24
		C42.25,87.103,43.147,88,44.25,88z M44.25,62h2l-0.003,24H44.25V62z"/>
	<path fill="#FFFFFF" d="M52.25,88h2c1.103,0,2-0.897,2-2V76c0-1.103-0.897-2-2-2h-2c-1.103,0-2,0.897-2,2v10
		C50.25,87.103,51.147,88,52.25,88z M52.25,76h2l-0.003,10H52.25V76z"/>
	<path fill="#FFFFFF" d="M58.75,89h-27c-0.276,0-0.5,0.225-0.5,0.5s0.224,0.5,0.5,0.5h27c0.276,0,0.5-0.225,0.5-0.5
		S59.026,89,58.75,89z"/>
</g>
<path fill="#FFFFFF" d="M45.25,90c-8.284,0-15,6.716-15,15s6.716,15,15,15s15-6.716,15-15S53.534,90,45.25,90z M45.25,91
	c7.72,0,14,6.279,14,14c0,2.975-0.939,5.729-2.527,8c-0.044-0.038-0.077-0.086-0.129-0.117c-1.955-1.16-4.283-1.963-6.942-2.396
	c1.169-1.565,1.849-3.726,1.849-6.066c0-4.688-2.804-8.5-6.25-8.5s-6.25,3.812-6.25,8.5c0,2.339,0.678,4.496,1.845,6.061
	c-2.742,0.434-5.088,1.226-6.993,2.361c-0.046,0.028-0.075,0.071-0.115,0.104c-1.566-2.259-2.488-4.997-2.488-7.947
	C31.25,97.279,37.53,91,45.25,91z M45.25,119c-4.054,0-7.699-1.742-10.258-4.504c2.088-1.217,4.801-1.982,8.073-2.273
	c0.275-0.008,0.546-0.129,0.736-0.351c0.264-0.31,0.316-0.746,0.13-1.108c-0.093-0.182-0.237-0.326-0.409-0.418
	c-1.535-1.068-2.523-3.382-2.523-5.925c0-3.522,1.946-6.5,4.25-6.5s4.25,2.978,4.25,6.5c0,2.546-0.99,4.862-2.528,5.929
	c-0.151,0.084-0.281,0.209-0.373,0.364c-0.196,0.331-0.184,0.747,0.03,1.065c0.193,0.289,0.51,0.445,0.833,0.445
	c0.001,0,0.002,0,0.003,0c3.112,0.281,5.871,1.084,8,2.318C52.908,117.277,49.28,119,45.25,119z"/>
<path fill="#FFFFFF" d="M57.933,167.111c0.018-0.025,0.029-0.057,0.046-0.084c0.05-0.084,0.1-0.168,0.138-0.26
	c0.016-0.037,0.023-0.078,0.037-0.117c0.029-0.084,0.06-0.166,0.077-0.256c0.026-0.129,0.04-0.268,0.04-0.396
	s-0.014-0.268-0.04-0.396c-0.018-0.09-0.048-0.172-0.077-0.256c-0.014-0.039-0.021-0.08-0.037-0.117
	c-0.038-0.092-0.088-0.176-0.138-0.26c-0.017-0.027-0.028-0.059-0.046-0.085c-0.073-0.108-0.156-0.21-0.249-0.304l-6.499-6.498
	c-0.781-0.781-2.048-0.781-2.828,0c-0.781,0.781-0.781,2.047,0,2.828l3.085,3.09H34.229c-1.104,0-2,0.896-2,2s0.896,2,2,2h17.213
	l-3.086,3.086c-0.781,0.781-0.781,2.047,0,2.828c0.39,0.391,0.902,0.586,1.414,0.586s1.023-0.195,1.414-0.586l6.499-6.498
	C57.776,167.322,57.859,167.221,57.933,167.111z"/>
<g>
	<path fill="#415463" d="M83.25,1.969h-2.026c-0.388-1.216-1.535-2.061-2.917-1.96L67.171,0.825
		c-1.61,0.118-2.921,1.529-2.921,3.144v21c0,1.604,1.243,3.047,2.831,3.284l11.169,1.661c0.148,0.022,0.293,0.032,0.435,0.032
		c1.249,0,2.263-0.827,2.579-1.977h1.986c1.654,0,3-1.346,3-3v-20C86.25,3.314,84.904,1.969,83.25,1.969z M79.375,27.219
		c0,0.484-0.353,0.79-0.831,0.716l-11.168-1.661c-0.6-0.089-1.126-0.699-1.126-1.305v-21c0-0.581,0.489-1.106,1.068-1.149L78.526,2
		c0.484,0,0.849,0.369,0.849,0.859V27.219z M84.25,24.969c0,0.551-0.449,1-1,1h-1.875v-22h1.875c0.551,0,1,0.449,1,1V24.969z"/>
	<path fill="#415463" d="M77.138,3.717c-0.001,0-0.002,0-0.003,0l-8.792,0.572c-0.402,0.026-0.718,0.362-0.718,0.765v6.102
		c0,0.413,0.336,0.749,0.749,0.749h0.002l8.792-0.062c0.413-0.001,0.748-0.338,0.748-0.751V4.45
		C77.917,4.046,77.589,3.717,77.138,3.717z M76.917,10.847l-8.292,0.056v-5.63l8.292-0.54V10.847z"/>
	<path fill="#415463" d="M75.917,13.625c-1.103,0-2,0.897-2,2s0.897,2,2,2s2-0.897,2-2S77.02,13.625,75.917,13.625z M75.917,16.625
		c-0.551,0-1-0.449-1-1s0.449-1,1-1s1,0.449,1,1S76.468,16.625,75.917,16.625z"/>
</g>
<g>
	<path fill="#415463" d="M68.173,39.967c-1.099,0-1.993,0.894-1.993,1.993c0,1.1,0.894,1.993,1.993,1.993
		c1.099,0,1.993-0.894,1.993-1.993C70.167,40.861,69.272,39.967,68.173,39.967z M68.173,42.957c-0.549,0-0.997-0.448-0.997-0.997
		s0.448-0.997,0.997-0.997c0.549,0,0.997,0.448,0.997,0.997S68.722,42.957,68.173,42.957z"/>
	<path fill="#415463" d="M68.173,45.947c-1.099,0-1.993,0.894-1.993,1.993c0,1.1,0.894,1.993,1.993,1.993
		c1.099,0,1.993-0.894,1.993-1.993C70.167,46.841,69.272,45.947,68.173,45.947z M68.173,48.937c-0.549,0-0.997-0.448-0.997-0.997
		c0-0.549,0.448-0.997,0.997-0.997c0.549,0,0.997,0.448,0.997,0.997C69.17,48.489,68.722,48.937,68.173,48.937z"/>
	<path fill="#415463" d="M68.173,51.927c-1.099,0-1.993,0.894-1.993,1.993c0,1.1,0.894,1.993,1.993,1.993
		c1.099,0,1.993-0.894,1.993-1.993C70.167,52.821,69.272,51.927,68.173,51.927z M68.173,54.917c-0.549,0-0.997-0.448-0.997-0.997
		s0.448-0.997,0.997-0.997c0.549,0,0.997,0.448,0.997,0.997S68.722,54.917,68.173,54.917z"/>
	<path fill="#415463" d="M85.117,30H65.183c-1.648,0-2.99,1.342-2.99,2.99v23.92c0,1.648,1.342,2.99,2.99,2.99h19.934
		c1.648,0,2.99-1.342,2.99-2.99V32.99C88.106,31.342,86.765,30,85.117,30z M86.113,56.91c0,0.549-0.448,0.997-0.997,0.997H65.183
		c-0.549,0-0.997-0.448-0.997-0.997V32.99c0-0.549,0.448-0.997,0.997-0.997h19.934c0.549,0,0.997,0.448,0.997,0.997L86.113,56.91
		L86.113,56.91z"/>
	<path fill="#415463" d="M83.622,40.434H72.658c-0.275,0-0.498,0.223-0.498,0.498s0.223,0.499,0.498,0.499h10.963
		c0.275,0,0.499-0.223,0.499-0.499C84.12,40.657,83.897,40.434,83.622,40.434z"/>
	<path fill="#415463" d="M72.658,43.424h8.97c0.275,0,0.498-0.223,0.498-0.499c0-0.275-0.223-0.498-0.498-0.498h-8.97
		c-0.275,0-0.498,0.223-0.498,0.498C72.16,43.201,72.383,43.424,72.658,43.424z"/>
	<path fill="#415463" d="M83.622,46.414H72.658c-0.275,0-0.498,0.223-0.498,0.498s0.223,0.499,0.498,0.499h10.963
		c0.275,0,0.499-0.223,0.499-0.499C84.12,46.637,83.897,46.414,83.622,46.414z"/>
	<path fill="#415463" d="M72.658,49.404h7.974c0.275,0,0.498-0.223,0.498-0.499c0-0.275-0.223-0.498-0.498-0.498h-7.974
		c-0.275,0-0.498,0.223-0.498,0.498C72.16,49.181,72.383,49.404,72.658,49.404z"/>
	<path fill="#415463" d="M83.622,52.394H72.658c-0.275,0-0.498,0.223-0.498,0.498s0.223,0.499,0.498,0.499h10.963
		c0.275,0,0.499-0.223,0.499-0.499C84.12,52.617,83.897,52.394,83.622,52.394z"/>
	<path fill="#415463" d="M81.628,54.387h-8.97c-0.275,0-0.498,0.223-0.498,0.499c0,0.276,0.223,0.498,0.498,0.498h8.97
		c0.275,0,0.498-0.223,0.498-0.498C82.126,54.611,81.904,54.387,81.628,54.387z"/>
	<path fill="#415463" d="M67.177,36.603h15.947c0.55,0,0.997-0.447,0.997-0.997c0-0.55-0.447-0.997-0.997-0.997H67.177
		c-0.55,0-0.997,0.447-0.997,0.997C66.18,36.156,66.627,36.603,67.177,36.603z"/>
</g>
<g>
	<path fill="#415463" d="M66.25,88h2c1.103,0,2-0.897,2-2V70c0-1.103-0.897-2-2-2h-2c-1.103,0-2,0.897-2,2v16
		C64.25,87.103,65.147,88,66.25,88z M66.25,70h2l-0.003,16H66.25V70z"/>
	<path fill="#415463" d="M74.25,88h2c1.103,0,2-0.897,2-2V62c0-1.103-0.897-2-2-2h-2c-1.103,0-2,0.897-2,2v24
		C72.25,87.103,73.147,88,74.25,88z M74.25,62h2l-0.003,24H74.25V62z"/>
	<path fill="#415463" d="M82.25,88h2c1.103,0,2-0.897,2-2V76c0-1.103-0.897-2-2-2h-2c-1.103,0-2,0.897-2,2v10
		C80.25,87.103,81.147,88,82.25,88z M82.25,76h2l-0.003,10H82.25V76z"/>
	<path fill="#415463" d="M88.75,89h-27c-0.276,0-0.5,0.225-0.5,0.5s0.224,0.5,0.5,0.5h27c0.276,0,0.5-0.225,0.5-0.5
		S89.026,89,88.75,89z"/>
</g>
<path fill="#415463" d="M75.25,90c-8.284,0-15,6.716-15,15s6.716,15,15,15s15-6.716,15-15S83.534,90,75.25,90z M75.25,91
	c7.72,0,14,6.279,14,14c0,2.975-0.939,5.729-2.527,8c-0.044-0.038-0.077-0.086-0.129-0.117c-1.955-1.16-4.283-1.963-6.942-2.396
	c1.169-1.565,1.849-3.726,1.849-6.066c0-4.688-2.804-8.5-6.25-8.5s-6.25,3.812-6.25,8.5c0,2.339,0.678,4.496,1.845,6.061
	c-2.742,0.434-5.088,1.226-6.993,2.361c-0.046,0.028-0.075,0.071-0.115,0.104c-1.566-2.259-2.488-4.997-2.488-7.947
	C61.25,97.279,67.53,91,75.25,91z M75.25,119c-4.054,0-7.699-1.742-10.258-4.504c2.088-1.217,4.801-1.982,8.073-2.273
	c0.275-0.008,0.546-0.129,0.736-0.351c0.264-0.31,0.316-0.746,0.13-1.108c-0.093-0.182-0.237-0.326-0.409-0.418
	c-1.535-1.068-2.523-3.382-2.523-5.925c0-3.522,1.946-6.5,4.25-6.5s4.25,2.978,4.25,6.5c0,2.546-0.99,4.862-2.528,5.929
	c-0.151,0.084-0.281,0.209-0.373,0.364c-0.196,0.331-0.184,0.747,0.03,1.065c0.193,0.289,0.51,0.445,0.833,0.445
	c0.001,0,0.002,0,0.003,0c3.112,0.281,5.871,1.084,8,2.318C82.908,117.277,79.28,119,75.25,119z"/>
<g>
	<path fill="#A9BAC7" d="M23.25,1.969h-2.026c-0.388-1.216-1.535-2.061-2.917-1.96L7.171,0.825C5.561,0.943,4.25,2.354,4.25,3.969
		v21c0,1.604,1.243,3.047,2.831,3.284l11.169,1.661c0.148,0.022,0.293,0.032,0.435,0.032c1.249,0,2.263-0.827,2.579-1.977h1.986
		c1.654,0,3-1.346,3-3v-20C26.25,3.314,24.904,1.969,23.25,1.969z M19.375,27.219c0,0.484-0.353,0.79-0.831,0.716L7.375,26.274
		c-0.599-0.089-1.125-0.699-1.125-1.305v-21c0-0.581,0.489-1.107,1.068-1.149L18.526,2c0.484,0,0.849,0.369,0.849,0.859V27.219z
		 M24.25,24.969c0,0.551-0.449,1-1,1h-1.875v-22h1.875c0.551,0,1,0.449,1,1V24.969z"/>
	<path fill="#A9BAC7" d="M17.138,3.717c-0.001,0-0.002,0-0.003,0L8.343,4.289C7.94,4.315,7.625,4.651,7.625,5.054v6.102
		c0,0.413,0.336,0.749,0.749,0.749h0.002l8.792-0.062c0.413-0.001,0.748-0.338,0.748-0.751V4.45
		C17.917,4.046,17.589,3.717,17.138,3.717z M16.917,10.847l-8.292,0.056v-5.63l8.292-0.54V10.847z"/>
	<path fill="#A9BAC7" d="M15.917,13.625c-1.103,0-2,0.897-2,2s0.897,2,2,2s2-0.897,2-2S17.02,13.625,15.917,13.625z M15.917,16.625
		c-0.551,0-1-0.449-1-1s0.449-1,1-1s1,0.449,1,1S16.468,16.625,15.917,16.625z"/>
</g>
<g>
	<path fill="#A9BAC7" d="M8.374,39.967c-1.1,0-1.994,0.894-1.994,1.993c0,1.1,0.894,1.993,1.994,1.993
		c1.099,0,1.993-0.894,1.993-1.993S9.473,39.967,8.374,39.967z M8.374,42.957c-0.549,0-0.997-0.448-0.997-0.997
		s0.448-0.997,0.997-0.997s0.997,0.448,0.997,0.997S8.922,42.957,8.374,42.957z"/>
	<path fill="#A9BAC7" d="M8.374,45.947c-1.1,0-1.994,0.894-1.994,1.993c0,1.1,0.894,1.993,1.994,1.993
		c1.099,0,1.993-0.894,1.993-1.993S9.473,45.947,8.374,45.947z M8.374,48.937c-0.549,0-0.997-0.448-0.997-0.997
		c0-0.549,0.448-0.997,0.997-0.997s0.997,0.448,0.997,0.997C9.371,48.489,8.922,48.937,8.374,48.937z"/>
	<path fill="#A9BAC7" d="M8.374,51.927c-1.1,0-1.994,0.894-1.994,1.993c0,1.1,0.894,1.993,1.994,1.993
		c1.099,0,1.993-0.894,1.993-1.993S9.473,51.927,8.374,51.927z M8.374,54.917c-0.549,0-0.997-0.448-0.997-0.997
		s0.448-0.997,0.997-0.997s0.997,0.448,0.997,0.997S8.922,54.917,8.374,54.917z"/>
	<path fill="#A9BAC7" d="M25.317,30H5.383c-1.648,0-2.99,1.342-2.99,2.99v23.92c0,1.648,1.341,2.99,2.99,2.99h19.934
		c1.648,0,2.99-1.342,2.99-2.99V32.99C28.307,31.342,26.965,30,25.317,30z M26.313,56.91c0,0.549-0.448,0.997-0.997,0.997H5.383
		c-0.549,0-0.997-0.448-0.997-0.997V32.99c0-0.549,0.448-0.997,0.997-0.997h19.934c0.549,0,0.997,0.448,0.997,0.997L26.313,56.91
		L26.313,56.91z"/>
	<path fill="#A9BAC7" d="M23.822,40.434H12.858c-0.275,0-0.499,0.223-0.499,0.498s0.224,0.499,0.499,0.499h10.963
		c0.275,0,0.498-0.223,0.498-0.499C24.32,40.657,24.098,40.434,23.822,40.434z"/>
	<path fill="#A9BAC7" d="M12.858,43.424h8.97c0.275,0,0.499-0.223,0.499-0.499c0-0.275-0.223-0.498-0.499-0.498h-8.97
		c-0.275,0-0.499,0.223-0.499,0.498C12.36,43.201,12.583,43.424,12.858,43.424z"/>
	<path fill="#A9BAC7" d="M23.822,46.415H12.858c-0.275,0-0.499,0.223-0.499,0.498c0,0.276,0.224,0.499,0.499,0.499h10.963
		c0.275,0,0.498-0.223,0.498-0.499C24.32,46.637,24.098,46.415,23.822,46.415z"/>
	<path fill="#A9BAC7" d="M12.858,49.404h7.973c0.275,0,0.499-0.223,0.499-0.499c0-0.275-0.224-0.498-0.499-0.498h-7.973
		c-0.275,0-0.499,0.223-0.499,0.498C12.36,49.181,12.583,49.404,12.858,49.404z"/>
	<path fill="#A9BAC7" d="M23.822,52.394H12.858c-0.275,0-0.499,0.223-0.499,0.498s0.224,0.499,0.499,0.499h10.963
		c0.275,0,0.498-0.223,0.498-0.499C24.32,52.617,24.098,52.394,23.822,52.394z"/>
	<path fill="#A9BAC7" d="M21.828,54.387h-8.97c-0.275,0-0.499,0.223-0.499,0.499c0,0.276,0.224,0.498,0.499,0.498h8.97
		c0.275,0,0.499-0.223,0.499-0.498C22.327,54.611,22.104,54.387,21.828,54.387z"/>
	<path fill="#A9BAC7" d="M7.376,36.604h15.947c0.55,0,0.997-0.447,0.997-0.997c0-0.55-0.447-0.997-0.997-0.997H7.376
		c-0.55,0-0.997,0.447-0.997,0.997C6.38,36.156,6.827,36.604,7.376,36.604z"/>
</g>
<g>
	<path fill="#A9BAC7" d="M6.25,88h2c1.103,0,2-0.897,2-2V70c0-1.103-0.897-2-2-2h-2c-1.103,0-2,0.897-2,2v16
		C4.25,87.103,5.147,88,6.25,88z M6.25,70h2L8.247,86H6.25V70z"/>
	<path fill="#A9BAC7" d="M14.25,88h2c1.103,0,2-0.897,2-2V62c0-1.103-0.897-2-2-2h-2c-1.103,0-2,0.897-2,2v24
		C12.25,87.103,13.147,88,14.25,88z M14.25,62h2l-0.003,24H14.25V62z"/>
	<path fill="#A9BAC7" d="M22.25,88h2c1.103,0,2-0.897,2-2V76c0-1.103-0.897-2-2-2h-2c-1.103,0-2,0.897-2,2v10
		C20.25,87.103,21.147,88,22.25,88z M22.25,76h2l-0.003,10H22.25V76z"/>
	<path fill="#A9BAC7" d="M28.75,89h-27c-0.276,0-0.5,0.225-0.5,0.5c0,0.276,0.224,0.5,0.5,0.5h27c0.276,0,0.5-0.224,0.5-0.5
		S29.026,89,28.75,89z"/>
</g>
<path fill="#A9BAC7" d="M15.25,90c-8.284,0-15,6.716-15,15s6.716,15,15,15s15-6.716,15-15S23.534,90,15.25,90z M15.25,91
	c7.72,0,14,6.279,14,14c0,2.975-0.939,5.729-2.527,8c-0.044-0.038-0.077-0.086-0.129-0.117c-1.955-1.16-4.283-1.963-6.942-2.396
	c1.169-1.565,1.849-3.726,1.849-6.066c0-4.688-2.804-8.5-6.25-8.5s-6.25,3.812-6.25,8.5c0,2.339,0.678,4.496,1.845,6.061
	c-2.742,0.434-5.088,1.226-6.993,2.361c-0.046,0.028-0.075,0.071-0.115,0.104C2.172,110.688,1.25,107.95,1.25,105
	C1.25,97.279,7.53,91,15.25,91z M15.25,119c-4.054,0-7.699-1.742-10.258-4.504c2.088-1.217,4.801-1.982,8.073-2.273
	c0.275-0.008,0.546-0.129,0.736-0.351c0.264-0.31,0.316-0.746,0.13-1.108c-0.093-0.182-0.237-0.326-0.409-0.418
	c-1.535-1.068-2.523-3.382-2.523-5.925c0-3.522,1.946-6.5,4.25-6.5s4.25,2.978,4.25,6.5c0,2.546-0.99,4.862-2.528,5.929
	c-0.151,0.084-0.281,0.209-0.373,0.364c-0.196,0.331-0.184,0.747,0.03,1.065c0.193,0.289,0.51,0.445,0.833,0.445
	c0.001,0,0.002,0,0.003,0c3.112,0.281,5.871,1.084,8,2.318C22.908,117.277,19.28,119,15.25,119z"/>
<path fill="#A9BAC7" d="M27.933,167.111c0.018-0.025,0.029-0.057,0.046-0.084c0.05-0.084,0.1-0.168,0.138-0.26
	c0.016-0.037,0.023-0.078,0.037-0.117c0.029-0.084,0.06-0.166,0.077-0.256c0.026-0.129,0.04-0.268,0.04-0.396
	s-0.014-0.268-0.04-0.396c-0.018-0.09-0.048-0.172-0.077-0.256c-0.014-0.039-0.021-0.08-0.037-0.117
	c-0.038-0.092-0.088-0.176-0.138-0.26c-0.017-0.027-0.028-0.059-0.046-0.085c-0.073-0.108-0.156-0.21-0.249-0.304l-6.499-6.498
	c-0.781-0.781-2.048-0.781-2.828,0c-0.781,0.781-0.781,2.047,0,2.828l3.085,3.09H4.229c-1.104,0-2,0.896-2,2s0.896,2,2,2h17.213
	l-3.086,3.086c-0.781,0.781-0.781,2.047,0,2.828c0.39,0.391,0.902,0.586,1.414,0.586s1.023-0.195,1.414-0.586l6.499-6.498
	C27.776,167.322,27.859,167.221,27.933,167.111z"/>
<path fill="#A9BAC7" d="M2.567,134.889c-0.018,0.025-0.029,0.057-0.046,0.084c-0.05,0.084-0.1,0.168-0.138,0.26
	c-0.016,0.037-0.023,0.078-0.037,0.117c-0.029,0.084-0.06,0.166-0.077,0.256c-0.026,0.129-0.04,0.268-0.04,0.396
	s0.014,0.268,0.04,0.396c0.018,0.09,0.048,0.172,0.077,0.256c0.014,0.039,0.021,0.08,0.037,0.117
	c0.038,0.092,0.088,0.176,0.138,0.26c0.017,0.027,0.028,0.059,0.046,0.085c0.073,0.108,0.156,0.21,0.249,0.304l6.499,6.498
	c0.781,0.781,2.048,0.781,2.828,0c0.781-0.781,0.781-2.047,0-2.828L9.058,138h17.213c1.104,0,2-0.896,2-2s-0.896-2-2-2H9.058
	l3.086-3.086c0.781-0.781,0.781-2.047,0-2.828c-0.39-0.391-0.902-0.586-1.414-0.586s-1.023,0.195-1.414,0.586l-6.499,6.498
	C2.724,134.678,2.641,134.779,2.567,134.889z"/>
<path fill="#FFFFFF" d="M32.567,134.889c-0.018,0.025-0.029,0.057-0.046,0.084c-0.05,0.084-0.1,0.168-0.138,0.26
	c-0.016,0.037-0.023,0.078-0.037,0.117c-0.029,0.084-0.06,0.166-0.077,0.256c-0.026,0.129-0.04,0.268-0.04,0.396
	s0.014,0.268,0.04,0.396c0.018,0.09,0.048,0.172,0.077,0.256c0.014,0.039,0.021,0.08,0.037,0.117
	c0.038,0.092,0.088,0.176,0.138,0.26c0.017,0.027,0.028,0.059,0.046,0.085c0.073,0.108,0.156,0.21,0.249,0.304l6.499,6.498
	c0.781,0.781,2.048,0.781,2.828,0c0.781-0.781,0.781-2.047,0-2.828L39.058,138h17.213c1.104,0,2-0.896,2-2s-0.896-2-2-2H39.058
	l3.086-3.086c0.781-0.781,0.781-2.047,0-2.828c-0.39-0.391-0.902-0.586-1.414-0.586s-1.023,0.195-1.414,0.586l-6.499,6.498
	C32.724,134.678,32.641,134.779,32.567,134.889z"/>
</svg>
