<?xml version="1.0" encoding="utf-8"?>
<!-- Generator: Adobe Illustrator 16.0.4, SVG Export Plug-In . SVG Version: 6.00 Build 0)  -->
<!DOCTYPE svg PUBLIC "-//W3C//DTD SVG 1.1//EN" "http://www.w3.org/Graphics/SVG/1.1/DTD/svg11.dtd">
<svg version="1.1" id="Layer_1" xmlns="http://www.w3.org/2000/svg" xmlns:xlink="http://www.w3.org/1999/xlink" x="0px" y="0px"
	 width="131.091px" height="27.266px" viewBox="0 0 131.091 27.266" enable-background="new 0 0 131.091 27.266"
	 xml:space="preserve">
<g>
	<path fill="#FFFFFF" d="M0,11.739V7.41L17.512,0v4.29L4.056,9.595l13.456,5.265v4.252L0,11.739z"/>
	<path fill="#FFFFFF" d="M20.669,10.183c0-5.772,4.173-9.867,9.984-9.867c3.861,0,6.201,1.677,7.449,3.394l-3.237,3.042
		c-0.897-1.326-2.262-2.028-3.979-2.028c-3.003,0-5.109,2.184-5.109,5.46s2.106,5.499,5.109,5.499c1.716,0,3.081-0.779,3.979-2.027
		l3.237,3.003c-1.248,1.755-3.588,3.432-7.449,3.432C24.843,20.089,20.669,15.994,20.669,10.183z"/>
	<path fill="#FFFFFF" d="M54.054,19.621v-2.379c-1.287,1.443-3.549,2.847-6.63,2.847c-4.134,0-6.084-2.262-6.084-5.928V0.783h4.953
		v11.428c0,2.613,1.365,3.471,3.471,3.471c1.911,0,3.432-1.053,4.29-2.145V0.783h4.953v18.838H54.054z"/>
	<path fill="#FFFFFF" d="M63.14,19.621V0.783h4.953v2.574c1.326-1.677,3.667-3.042,6.007-3.042v4.836
		c-0.351-0.078-0.819-0.117-1.365-0.117c-1.638,0-3.821,0.937-4.642,2.146v12.441H63.14z"/>
	<path fill="#FFFFFF" d="M77.18,19.621V0.783h4.953v2.574c1.326-1.677,3.666-3.042,6.007-3.042v4.836
		c-0.352-0.078-0.819-0.117-1.365-0.117c-1.639,0-3.822,0.937-4.642,2.146v12.441H77.18z"/>
	<path fill="#FFFFFF" d="M92.638,22.546c0.429,0.195,1.092,0.312,1.56,0.312c1.287,0,2.146-0.352,2.613-1.365l0.702-1.599
		L89.868,0.783h5.305l4.914,13.104l4.914-13.104h5.343l-8.854,21.919c-1.403,3.549-3.899,4.485-7.138,4.563
		c-0.584,0-1.832-0.117-2.457-0.273L92.638,22.546z"/>
	<path fill="#FFFFFF" d="M113.579,19.111v-4.252l13.455-5.265L113.579,4.29V0l17.512,7.41v4.329L113.579,19.111z"/>
</g>
</svg>
