<?xml version="1.0" encoding="utf-8"?>
<!-- Generator: Adobe Illustrator 16.0.4, SVG Export Plug-In . SVG Version: 6.00 Build 0)  -->
<!DOCTYPE svg PUBLIC "-//W3C//DTD SVG 1.1//EN" "http://www.w3.org/Graphics/SVG/1.1/DTD/svg11.dtd">
<svg version="1.1" id="Layer_1" xmlns="http://www.w3.org/2000/svg" xmlns:xlink="http://www.w3.org/1999/xlink" x="0px" y="0px"
	 width="350px" height="200px" viewBox="0 0 350 200" enable-background="new 0 0 350 200" xml:space="preserve">
<g>
	<path fill="#EDEDED" d="M311.477,200V31.312c0-3.789-2.7-6.888-6-6.888H12.022c-3.3,0-6,3.1-6,6.888V200H311.477z"/>
	<rect x="6.022" y="57.58" fill="#556E82" width="305.455" height="26.255"/>
	<g>
		<path fill="#FFFFFF" d="M212.34,45.642c0,2.2-1.8,4-4,4H64.129c-2.2,0-4-1.8-4-4V39.01c0-2.2,1.8-4,4-4H208.34c2.2,0,4,1.8,4,4
			V45.642z"/>
	</g>
	<circle fill="#DB4C00" cx="17.388" cy="41.655" r="5"/>
	<circle fill="#EAB200" cx="33.521" cy="41.655" r="5"/>
	<circle fill="#65B214" cx="48.137" cy="41.655" r="5"/>
	<path fill="#E7EEF2" d="M45.021,66.207h-15c-2.484,0-4.5,2.016-4.5,4.5s2.016,4.5,4.5,4.5h15c2.484,0,4.5-2.016,4.5-4.5
		S47.505,66.207,45.021,66.207z"/>
	<path fill="#FFFFFF" d="M212.028,200v-94.871c0-2.199-1.8-4-4-4H30.006c-2.2,0-4,1.801-4,4V200H212.028z"/>
	<path fill="#F7B86D" d="M212.028,122.629v-17.5c0-2.199-1.34-4-2.978-4H28.983c-1.638,0-2.978,1.801-2.978,4v17.5H212.028z"/>
	<g>
		<path fill="#DAE4EA" d="M226.579,109.267c12.092,15.034,30.628,24.665,51.423,24.665c20.796,0,39.332-9.631,51.424-24.665H226.579
			z"/>
		<path fill="#556E82" d="M212.028,67.958c0,15.641,5.455,30.001,14.551,41.309h102.847c9.096-11.308,14.55-25.668,14.55-41.309
			c0-19.763-8.702-37.484-22.469-49.575h-87.01C220.73,30.474,212.028,48.195,212.028,67.958z"/>
		<g>
			<path fill="#65B214" d="M254.674,58.004c-5.621,0-10.193-4.573-10.193-10.193s4.572-10.193,10.193-10.193h46.657
				c5.621,0,10.193,4.572,10.193,10.193s-4.572,10.193-10.193,10.193H254.674z"/>
			<path fill="#415463" d="M301.331,38.618c5.076,0,9.193,4.116,9.193,9.193s-4.117,9.193-9.193,9.193h-46.657
				c-5.078,0-9.193-4.116-9.193-9.193s4.115-9.193,9.193-9.193H301.331 M301.331,36.618h-46.657
				c-6.172,0-11.193,5.021-11.193,11.193s5.021,11.193,11.193,11.193h46.657c6.172,0,11.193-5.021,11.193-11.193
				S307.503,36.618,301.331,36.618L301.331,36.618z"/>
		</g>
		<g>
			<path fill="#ACB8BF" d="M254.674,57.504c-5.345,0-9.693-4.349-9.693-9.693s4.349-9.693,9.693-9.693
				c5.346,0,9.694,4.348,9.694,9.693S260.02,57.504,254.674,57.504z"/>
			<path fill="#415463" d="M254.674,38.618c5.076,0,9.194,4.116,9.194,9.193s-4.118,9.193-9.194,9.193
				c-5.078,0-9.193-4.116-9.193-9.193S249.596,38.618,254.674,38.618 M254.674,37.618c-5.621,0-10.193,4.572-10.193,10.193
				s4.572,10.193,10.193,10.193s10.194-4.573,10.194-10.193S260.295,37.618,254.674,37.618L254.674,37.618z"/>
		</g>
		<circle fill="#E7EEF2" cx="254.674" cy="47.811" r="6.657"/>
		<g>
			<path fill="#ED8F00" d="M254.674,91.809c-5.621,0-10.193-4.573-10.193-10.193s4.572-10.193,10.193-10.193h46.657
				c5.621,0,10.193,4.573,10.193,10.193s-4.572,10.193-10.193,10.193H254.674z"/>
			<path fill="#415463" d="M301.331,72.422c5.076,0,9.193,4.116,9.193,9.193s-4.117,9.193-9.193,9.193h-46.657
				c-5.078,0-9.193-4.116-9.193-9.193s4.115-9.193,9.193-9.193H301.331 M301.331,70.422h-46.657
				c-6.172,0-11.193,5.021-11.193,11.193s5.021,11.193,11.193,11.193h46.657c6.172,0,11.193-5.021,11.193-11.193
				S307.503,70.422,301.331,70.422L301.331,70.422z"/>
		</g>
		<g>
			<path fill="#ACB8BF" d="M301.457,91.309c-5.346,0-9.694-4.349-9.694-9.693s4.349-9.693,9.694-9.693
				c5.345,0,9.692,4.349,9.692,9.693S306.802,91.309,301.457,91.309z"/>
			<path fill="#415463" d="M301.457,72.422c5.076,0,9.192,4.116,9.192,9.193s-4.116,9.193-9.192,9.193
				c-5.078,0-9.194-4.116-9.194-9.193S296.379,72.422,301.457,72.422 M301.457,71.422c-5.621,0-10.194,4.573-10.194,10.193
				s4.573,10.193,10.194,10.193c5.62,0,10.192-4.573,10.192-10.193S307.077,71.422,301.457,71.422L301.457,71.422z"/>
		</g>
		<circle fill="#E7EEF2" cx="301.455" cy="81.616" r="6.657"/>
		<g>
			<rect x="270.428" y="43.921" fill="none" width="43.67" height="19.308"/>
			<path fill="#FFFFFF" d="M271.277,44.462h1.621v7.193h-1.621V44.462z"/>
			<path fill="#FFFFFF" d="M274.531,47.065c0.662-0.331,0.994-0.739,0.994-1.401c-0.033,0.011-0.066,0.011-0.1,0.011
				c-0.475,0-0.85-0.309-0.85-0.805c0-0.552,0.354-0.905,0.85-0.905c0.672,0,1.037,0.53,1.037,1.445c0,1.037-0.52,1.842-1.578,2.361
				L274.531,47.065z"/>
			<path fill="#FFFFFF" d="M277.908,44.462h1.721l1.203,3.232l0.43,1.258h0.043l0.432-1.258l1.168-3.232h1.711v7.193h-1.512v-2.637
				c0-0.706,0.133-1.754,0.209-2.449h-0.043l-0.596,1.666l-1.104,2.791h-0.65l-1.104-2.791l-0.574-1.666h-0.043
				c0.076,0.695,0.197,1.743,0.197,2.449v2.637h-1.488V44.462z"/>
			<path fill="#FFFFFF" d="M288.268,48.025c0-2.35,1.322-3.696,3.266-3.696c1.941,0,3.264,1.357,3.264,3.696
				c0,2.35-1.322,3.762-3.264,3.762C289.59,51.787,288.268,50.375,288.268,48.025z M293.133,48.025c0-1.435-0.619-2.295-1.6-2.295
				c-0.982,0-1.602,0.86-1.602,2.295c0,1.445,0.619,2.361,1.602,2.361C292.514,50.386,293.133,49.47,293.133,48.025z"/>
			<path fill="#FFFFFF" d="M296.154,44.462h1.621v2.945h0.045l2.141-2.945h1.787l-2.174,2.868l2.57,4.325h-1.775l-1.754-3.034
				l-0.84,1.103v1.931h-1.621V44.462z"/>
		</g>
		<g>
			<rect x="254.033" y="77.409" fill="none" width="43.67" height="19.307"/>
			<path fill="#FFFFFF" d="M254.883,77.949h1.621v2.769h2.482v-2.769h1.633v7.193h-1.633v-3h-2.482v3h-1.621V77.949z"/>
			<path fill="#FFFFFF" d="M262.318,77.949h4.5v1.368h-2.879v1.445h2.449v1.357h-2.449v1.655h2.99v1.368h-4.611V77.949z"/>
			<path fill="#FFFFFF" d="M268.363,77.949h1.621v5.825h2.848v1.368h-4.469V77.949z"/>
			<path fill="#FFFFFF" d="M274.078,77.949h2.627c1.555,0,2.812,0.574,2.812,2.317c0,1.688-1.291,2.438-2.812,2.438h-1.006v2.438
				h-1.621V77.949z M276.605,81.413c0.893,0,1.322-0.397,1.322-1.147c0-0.75-0.463-1.026-1.322-1.026h-0.906v2.173H276.605z"/>
			<path fill="#FFFFFF" d="M281.789,83.233c0.564,0,0.982,0.441,0.982,1.026c0,0.573-0.418,1.015-0.982,1.015
				c-0.562,0-0.98-0.441-0.98-1.015C280.809,83.675,281.227,83.233,281.789,83.233z M281.029,79.218l-0.057-1.467h1.633
				l-0.055,1.467l-0.23,3.376h-1.061L281.029,79.218z"/>
		</g>
		<g>
			
				<polyline fill="none" stroke="#E7EEF2" stroke-width="3" stroke-linecap="round" stroke-linejoin="round" stroke-miterlimit="10" points="
				226.153,47.208 234.091,49.411 232.028,57.587 			"/>
			<path fill="none" stroke="#E7EEF2" stroke-width="3" stroke-linecap="round" stroke-linejoin="round" stroke-miterlimit="10" d="
				M231.728,76.813c-3.077-1.65-5.584-4.39-6.884-7.925c-2.817-7.665,1.113-16.163,8.776-18.98"/>
		</g>
		<g>
			
				<polyline fill="none" stroke="#E7EEF2" stroke-width="3" stroke-linecap="round" stroke-linejoin="round" stroke-miterlimit="10" points="
				329.617,76.813 321.681,74.611 323.741,66.434 			"/>
			<path fill="none" stroke="#E7EEF2" stroke-width="3" stroke-linecap="round" stroke-linejoin="round" stroke-miterlimit="10" d="
				M324.044,47.208c3.077,1.65,5.584,4.39,6.884,7.925c2.817,7.666-1.113,16.163-8.776,18.98"/>
		</g>
		<g>
			<path opacity="0.1" fill="#FFFFFF" d="M254.992,6.114c21.339-7.915,46.196-4.565,65.011,10.967
				c28.1,23.196,32.072,64.779,8.878,92.878c-6.467,7.828-14.356,13.785-22.984,17.802L254.992,6.114z"/>
		</g>
		
			<circle fill="none" stroke="#415463" stroke-width="4" stroke-linecap="round" stroke-linejoin="round" stroke-miterlimit="10" cx="278.002" cy="67.958" r="65.974"/>
	</g>
	<g>
		<rect x="37.521" y="107.629" fill="none" width="131.5" height="10.539"/>
		<path fill="#FFFFFF" d="M38.444,108.221h1.763v3.01h2.699v-3.01h1.775v7.82h-1.775v-3.262h-2.699v3.262h-1.763V108.221z"/>
		<path fill="#FFFFFF" d="M48.056,109.709h-2.147v-1.488h6.069v1.488h-2.147v6.332h-1.775V109.709z"/>
		<path fill="#FFFFFF" d="M53.204,108.221h1.871l1.307,3.514l0.468,1.367h0.048l0.467-1.367l1.271-3.514h1.859v7.82h-1.643v-2.867
			c0-0.768,0.144-1.906,0.228-2.662h-0.048l-0.648,1.811l-1.199,3.035h-0.708l-1.199-3.035l-0.624-1.811h-0.048
			c0.084,0.756,0.216,1.895,0.216,2.662v2.867h-1.619V108.221z"/>
		<path fill="#FFFFFF" d="M62.348,108.221h1.763v6.332h3.094v1.488h-4.857V108.221z"/>
		<path fill="#FFFFFF" d="M71.06,108.221h2.675c1.619,0,2.878,0.443,2.878,1.943c0,0.695-0.396,1.451-1.308,1.691v0.047
			c1.116,0.205,1.691,0.793,1.691,1.836c0,1.594-1.343,2.303-3.035,2.303H71.06V108.221z M73.651,111.375
			c0.863,0,1.235-0.371,1.235-0.959s-0.396-0.828-1.224-0.828h-0.839v1.787H73.651z M73.819,114.674
			c0.959,0,1.451-0.359,1.451-1.068c0-0.684-0.48-0.982-1.451-0.982h-0.996v2.051H73.819z"/>
		<path fill="#FFFFFF" d="M81.306,112.215c-0.036-0.527-0.3-0.863-0.936-0.863c-0.503,0-1.007,0.203-1.583,0.539l-0.624-1.164
			c0.755-0.455,1.607-0.779,2.542-0.779c1.523,0,2.363,0.863,2.363,2.688v3.406H81.63l-0.132-0.611h-0.036
			c-0.504,0.443-1.067,0.754-1.739,0.754c-1.079,0-1.763-0.791-1.763-1.799C77.96,113.139,78.956,112.455,81.306,112.215z
			 M80.323,114.816c0.408,0,0.672-0.191,0.983-0.502v-1.045c-1.259,0.168-1.667,0.527-1.667,0.984
			C79.639,114.637,79.903,114.816,80.323,114.816z"/>
		<path fill="#FFFFFF" d="M84.848,114.254c0.54,0.408,1.031,0.623,1.535,0.623c0.528,0,0.755-0.191,0.755-0.504
			c0-0.395-0.6-0.576-1.211-0.814c-0.72-0.277-1.571-0.768-1.571-1.752c0-1.104,0.899-1.859,2.279-1.859
			c0.912,0,1.583,0.373,2.099,0.756l-0.792,1.057c-0.432-0.312-0.839-0.504-1.259-0.504c-0.456,0-0.671,0.168-0.671,0.467
			c0,0.385,0.551,0.527,1.163,0.756c0.756,0.275,1.607,0.695,1.607,1.787c0,1.08-0.851,1.918-2.446,1.918
			c-0.78,0-1.679-0.334-2.279-0.826L84.848,114.254z"/>
		<path fill="#FFFFFF" d="M89.756,108.293c0-0.539,0.432-0.912,1.02-0.912c0.6,0,1.019,0.373,1.019,0.912s-0.419,0.924-1.019,0.924
			C90.188,109.217,89.756,108.832,89.756,108.293z M89.9,110.092h1.763v5.949H89.9V110.092z"/>
		<path fill="#FFFFFF" d="M95.958,109.947c0.732,0,1.343,0.277,1.739,0.684l-0.804,1.092c-0.288-0.24-0.552-0.348-0.828-0.348
			c-0.852,0-1.391,0.66-1.391,1.691s0.564,1.691,1.332,1.691c0.432,0,0.779-0.205,1.067-0.432l0.708,1.115
			c-0.576,0.504-1.332,0.742-1.979,0.742c-1.655,0-2.938-1.139-2.938-3.117S94.315,109.947,95.958,109.947z"/>
		<path fill="#FFFFFF" d="M99.08,114.254c0.54,0.408,1.031,0.623,1.535,0.623c0.528,0,0.755-0.191,0.755-0.504
			c0-0.395-0.6-0.576-1.211-0.814c-0.72-0.277-1.571-0.768-1.571-1.752c0-1.104,0.899-1.859,2.279-1.859
			c0.911,0,1.583,0.373,2.099,0.756l-0.792,1.057c-0.432-0.312-0.839-0.504-1.259-0.504c-0.456,0-0.672,0.168-0.672,0.467
			c0,0.385,0.552,0.527,1.164,0.756c0.755,0.275,1.607,0.695,1.607,1.787c0,1.08-0.852,1.918-2.446,1.918
			c-0.78,0-1.679-0.334-2.279-0.826L99.08,114.254z"/>
	</g>
	<line fill="none" stroke="#DAE4EA" stroke-miterlimit="10" x1="26.527" y1="150" x2="211.466" y2="150"/>
	<line fill="none" stroke="#DAE4EA" stroke-miterlimit="10" x1="26.527" y1="178" x2="211.466" y2="178"/>
	
		<line fill="none" stroke="#ACB8BF" stroke-width="2" stroke-linecap="round" stroke-miterlimit="10" x1="36.006" y1="129.34" x2="58.673" y2="129.34"/>
	
		<line fill="none" stroke="#ACB8BF" stroke-width="2" stroke-linecap="round" stroke-miterlimit="10" x1="64.784" y1="129.34" x2="80.118" y2="129.34"/>
	
		<line fill="none" stroke="#ACB8BF" stroke-width="2" stroke-linecap="round" stroke-miterlimit="10" x1="86.229" y1="129.34" x2="117.896" y2="129.34"/>
	
		<line fill="none" stroke="#ACB8BF" stroke-width="2" stroke-linecap="round" stroke-miterlimit="10" x1="124.007" y1="129.34" x2="138.84" y2="129.34"/>
	
		<line fill="none" stroke="#ACB8BF" stroke-width="2" stroke-linecap="round" stroke-miterlimit="10" x1="36.006" y1="157.34" x2="56.673" y2="157.34"/>
	
		<line fill="none" stroke="#ACB8BF" stroke-width="2" stroke-linecap="round" stroke-miterlimit="10" x1="62.877" y1="157.34" x2="79.377" y2="157.34"/>
	
		<line fill="none" stroke="#ACB8BF" stroke-width="2" stroke-linecap="round" stroke-miterlimit="10" x1="127.802" y1="157.34" x2="144.302" y2="157.34"/>
	
		<line fill="none" stroke="#ACB8BF" stroke-width="2" stroke-linecap="round" stroke-miterlimit="10" x1="85.582" y1="157.34" x2="104.082" y2="157.34"/>
	
		<line fill="none" stroke="#ACB8BF" stroke-width="2" stroke-linecap="round" stroke-miterlimit="10" x1="150.506" y1="157.34" x2="169.007" y2="157.34"/>
	
		<line fill="none" stroke="#ACB8BF" stroke-width="2" stroke-linecap="round" stroke-miterlimit="10" x1="110.286" y1="157.34" x2="121.598" y2="157.34"/>
	<g>
		<path fill="#DB4C00" d="M55.673,141.168c0,1.1-0.9,2-2,2H38.006c-1.1,0-2-0.9-2-2v-1.666c0-1.1,0.9-2,2-2h15.667c1.1,0,2,0.9,2,2
			V141.168z"/>
	</g>
	<g>
		<path fill="#EAB200" d="M95.34,141.168c0,1.1-0.9,2-2,2H77.673c-1.1,0-2-0.9-2-2v-1.666c0-1.1,0.9-2,2-2H93.34c1.1,0,2,0.9,2,2
			V141.168z"/>
	</g>
	<g>
		<path fill="#65B214" d="M136.234,141.168c0,1.1-0.9,2-2,2h-15.667c-1.1,0-2-0.9-2-2v-1.666c0-1.1,0.9-2,2-2h15.667
			c1.1,0,2,0.9,2,2V141.168z"/>
	</g>
	<g>
		<path fill="#DB4C00" d="M55.673,170.168c0,1.1-0.9,2-2,2H38.006c-1.1,0-2-0.9-2-2v-1.666c0-1.1,0.9-2,2-2h15.667c1.1,0,2,0.9,2,2
			V170.168z"/>
	</g>
	<g>
		<path fill="#EAB200" d="M95.34,170.168c0,1.1-0.9,2-2,2H77.673c-1.1,0-2-0.9-2-2v-1.666c0-1.1,0.9-2,2-2H93.34c1.1,0,2,0.9,2,2
			V170.168z"/>
	</g>
	<g>
		<path fill="#65B214" d="M136.234,170.168c0,1.1-0.9,2-2,2h-15.667c-1.1,0-2-0.9-2-2v-1.666c0-1.1,0.9-2,2-2h15.667
			c1.1,0,2,0.9,2,2V170.168z"/>
	</g>
	<g>
		<path opacity="0.7" fill="#FFFFFF" d="M55.673,141.168c0,1.1-0.9,2-2,2H38.006c-1.1,0-2-0.9-2-2v-1.666c0-1.1,0.9-2,2-2h15.667
			c1.1,0,2,0.9,2,2V141.168z"/>
	</g>
	<g>
		<path opacity="0.7" fill="#FFFFFF" d="M95.34,141.168c0,1.1-0.9,2-2,2H77.673c-1.1,0-2-0.9-2-2v-1.666c0-1.1,0.9-2,2-2H93.34
			c1.1,0,2,0.9,2,2V141.168z"/>
	</g>
	<g>
		<path opacity="0.7" fill="#FFFFFF" d="M95.34,170.168c0,1.1-0.9,2-2,2H77.673c-1.1,0-2-0.9-2-2v-1.666c0-1.1,0.9-2,2-2H93.34
			c1.1,0,2,0.9,2,2V170.168z"/>
	</g>
	<g>
		<path opacity="0.7" fill="#FFFFFF" d="M136.234,170.168c0,1.1-0.9,2-2,2h-15.667c-1.1,0-2-0.9-2-2v-1.666c0-1.1,0.9-2,2-2h15.667
			c1.1,0,2,0.9,2,2V170.168z"/>
	</g>
	<polygon fill="#65B214" points="211.633,134.664 211.633,122.645 199.613,122.645 	"/>
	<polygon fill="#DB4C00" points="211.674,162.502 211.674,150.482 199.654,150.482 	"/>
	
		<line fill="none" stroke="#ACB8BF" stroke-width="2" stroke-linecap="round" stroke-miterlimit="10" x1="36.006" y1="185.172" x2="56.673" y2="185.172"/>
	
		<line fill="none" stroke="#ACB8BF" stroke-width="2" stroke-linecap="round" stroke-miterlimit="10" x1="62.877" y1="185.172" x2="79.377" y2="185.172"/>
	
		<line fill="none" stroke="#ACB8BF" stroke-width="2" stroke-linecap="round" stroke-miterlimit="10" x1="102.523" y1="185.172" x2="119.023" y2="185.172"/>
	
		<line fill="none" stroke="#ACB8BF" stroke-width="2" stroke-linecap="round" stroke-miterlimit="10" x1="85.006" y1="185.172" x2="96.319" y2="185.172"/>
	<g>
		<path fill="#DB4C00" d="M55.673,198c0,1.1-0.9,2-2,2H38.006c-1.1,0-2-0.9-2-2v-1.666c0-1.1,0.9-2,2-2h15.667c1.1,0,2,0.9,2,2V198z
			"/>
	</g>
	<g>
		<path fill="#EAB200" d="M95.34,198c0,1.1-0.9,2-2,2H77.673c-1.1,0-2-0.9-2-2v-1.666c0-1.1,0.9-2,2-2H93.34c1.1,0,2,0.9,2,2V198z"
			/>
	</g>
	<g>
		<path fill="#65B214" d="M136.234,198c0,1.1-0.9,2-2,2h-15.667c-1.1,0-2-0.9-2-2v-1.666c0-1.1,0.9-2,2-2h15.667c1.1,0,2,0.9,2,2
			V198z"/>
	</g>
	<g>
		<path opacity="0.7" fill="#FFFFFF" d="M55.673,198c0,1.1-0.9,2-2,2H38.006c-1.1,0-2-0.9-2-2v-1.666c0-1.1,0.9-2,2-2h15.667
			c1.1,0,2,0.9,2,2V198z"/>
	</g>
	<g>
		<path opacity="0.7" fill="#FFFFFF" d="M136.234,198c0,1.1-0.9,2-2,2h-15.667c-1.1,0-2-0.9-2-2v-1.666c0-1.1,0.9-2,2-2h15.667
			c1.1,0,2,0.9,2,2V198z"/>
	</g>
	<polygon fill="#EAB200" points="211.674,190.334 211.674,178.314 199.654,178.314 	"/>
	<path fill="#F7B86D" d="M26.506,200v-94.871c0-1.93,1.57-3.5,3.5-3.5h178.022c1.93,0,3.5,1.57,3.5,3.5V200h1v-94.871
		c0-2.48-2.019-4.5-4.5-4.5H30.006c-2.481,0-4.5,2.02-4.5,4.5V200H26.506z"/>
</g>
<g>
</g>
<g>
</g>
<g>
</g>
<g>
</g>
<g>
</g>
<g>
</g>
<g>
</g>
<g>
</g>
<g>
</g>
<g>
</g>
<g>
</g>
<g>
</g>
<g>
</g>
<g>
</g>
<g>
</g>
</svg>
