<?xml version="1.0" encoding="utf-8"?>
<!-- Generator: Adobe Illustrator 16.0.4, SVG Export Plug-In . SVG Version: 6.00 Build 0)  -->
<!DOCTYPE svg PUBLIC "-//W3C//DTD SVG 1.1//EN" "http://www.w3.org/Graphics/SVG/1.1/DTD/svg11.dtd">
<svg version="1.1" id="Layer_1" xmlns="http://www.w3.org/2000/svg" xmlns:xlink="http://www.w3.org/1999/xlink" x="0px" y="0px"
	 width="137px" height="25px" viewBox="0 0 137 25" enable-background="new 0 0 137 25" xml:space="preserve">
<g>
	<path fill="#FFFFFF" d="M0.185,12.421c0-7.415,5.507-12.418,12.599-12.418c4.823,0,7.847,2.483,9.611,5.363L18.83,7.238
		c-1.151-2.016-3.491-3.492-6.047-3.492c-4.751,0-8.279,3.6-8.279,8.675c0,5.003,3.528,8.675,8.279,8.675
		c2.556,0,4.896-1.512,6.047-3.492l3.6,1.801c-1.835,2.88-4.823,5.436-9.646,5.436C5.692,24.84,0.185,19.8,0.185,12.421z"/>
	<path fill="#FFFFFF" d="M34.06,14.904V0.399h4.284v14.398c0,3.814,2.124,6.299,6.119,6.299s6.119-2.484,6.119-6.299V0.399h4.283
		v14.505c0,5.939-3.419,9.936-10.402,9.936C37.516,24.84,34.06,20.844,34.06,14.904z"/>
	<path fill="#FFFFFF" d="M81.613,24.408l-5.291-8.963h-4.211v8.963H67.9V0.399h10.547c4.751,0,7.883,3.06,7.883,7.523
		c0,4.248-2.809,6.587-5.723,7.055l5.902,9.432H81.613z M82.01,7.886c0-2.304-1.728-3.779-4.104-3.779h-5.795v7.631h5.795
		C80.282,11.737,82.01,10.226,82.01,7.886z"/>
	<path fill="#FFFFFF" d="M113.979,24.408l-5.293-8.963h-4.211v8.963h-4.211V0.399h10.547c4.752,0,7.883,3.06,7.883,7.523
		c0,4.248-2.807,6.587-5.723,7.055l5.903,9.432H113.979z M114.374,7.886c0-2.304-1.728-3.779-4.104-3.779h-5.795v7.631h5.795
		C112.646,11.737,114.374,10.226,114.374,7.886z"/>
	<path fill="#FFFFFF" d="M132.789,24.408V0.399H137v24.009H132.789z"/>
</g>
<rect x="-1.327" y="38.562" fill="none" width="142.5" height="30.75"/>
<text transform="matrix(1 0 0 1 -1.3271 62.5742)" font-family="'ProximaNova-Semibold'" font-size="36" letter-spacing="7">C</text>
<text transform="matrix(1 0 0 1 31.5049 62.5742)" font-family="'ProximaNova-Semibold'" font-size="36" letter-spacing="6">U</text>
<text transform="matrix(1 0 0 1 64.9839 62.5742)" font-family="'ProximaNova-Semibold'" font-size="36" letter-spacing="9">RR</text>
<text transform="matrix(1 0 0 1 129.7119 62.5742)" font-family="'ProximaNova-Semibold'" font-size="36" letter-spacing="7">I</text>
</svg>
