<?xml version="1.0" encoding="utf-8"?>
<!-- Generator: Adobe Illustrator 16.0.4, SVG Export Plug-In . SVG Version: 6.00 Build 0)  -->
<!DOCTYPE svg PUBLIC "-//W3C//DTD SVG 1.1//EN" "http://www.w3.org/Graphics/SVG/1.1/DTD/svg11.dtd">
<svg version="1.1" id="Layer_1" xmlns="http://www.w3.org/2000/svg" xmlns:xlink="http://www.w3.org/1999/xlink" x="0px" y="0px"
	 width="88.818px" height="88.818px" viewBox="0 0 88.818 88.818" enable-background="new 0 0 88.818 88.818" xml:space="preserve">
<path fill="#F15A29" d="M85.678,37.005L51.812,3.141c-4.071-4.072-10.734-4.072-14.806,0L3.141,37.005
	c-4.071,4.072-4.071,10.734,0,14.807l33.865,33.865c4.072,4.072,10.735,4.072,14.806,0l33.865-33.865
	C89.75,47.74,89.75,41.077,85.678,37.005z M44.319,38.947c-0.577,3.386-2.327,6.668-3.844,9.713
	c-1.718,3.448-3.578,6.818-5.487,10.164c-0.937,1.634-1.894,3.255-2.869,4.867c-0.508,0.841-1.023,1.678-1.546,2.511
	c-0.432,0.689-1.158,1.584-1.798,2.095c-0.499,0.396-0.834,0.246-0.932-0.136c-0.186-0.728,0.259-1.912,0.528-2.554
	c0.763-1.82,1.561-3.626,2.356-5.433c2.381-5.406,5.052-10.729,7.319-16.185c0.16-0.354,1.659-3.199,1.259-3.383
	c-0.475-0.219-3.722,3.139-4.046,3.428c-0.7,0.627-1.401,1.254-2.102,1.881c-2.009,1.798-4.029,3.583-6.043,5.373
	c-0.744,0.64-3.182,3.034-3.962,2.59c-0.641-0.364,0.053-2.257,0.259-2.726c0.542-1.238,1.101-2.471,1.666-3.7
	c1.456-3.168,5.72-8.551,4.981-9.515c-1.072-1.398-6.228,0.748-8.283,2.135c-0.434,0.293-3.302,2.574-3.463,1.722
	c-0.14-0.746,1.238-1.889,1.772-2.387c0.582-0.541,1.174-1.067,1.78-1.577c2.103-1.765,8.51-4.316,11.175-2.493
	c2.082,1.425,0.604,4.137-0.71,5.839c1.702-1.722,4.594-4.449,6.548-5.619c1.315-0.788,3.003-1.344,4.366-0.32
	C44.402,36.109,44.544,37.62,44.319,38.947z M68.734,50.847c-0.582,0.54-1.174,1.067-1.78,1.577
	c-2.103,1.765-8.511,4.315-11.176,2.492c-2.082-1.425-0.606-4.135,0.71-5.839c-1.703,1.723-4.594,4.45-6.547,5.618
	c-1.315,0.789-3.004,1.345-4.367,0.32c-1.158-0.87-1.3-2.381-1.076-3.708c0.577-3.387,2.326-6.668,3.845-9.714
	c1.716-3.448,3.577-6.818,5.486-10.163c0.937-1.634,1.893-3.256,2.868-4.869c0.509-0.84,1.023-1.677,1.546-2.51
	c0.433-0.689,1.157-1.584,1.799-2.094c0.499-0.398,0.833-0.247,0.932,0.136c0.185,0.727-0.259,1.911-0.529,2.552
	c-0.763,1.821-1.56,3.626-2.355,5.433c-2.381,5.407-5.052,10.728-7.319,16.184c-0.16,0.354-1.659,3.2-1.26,3.385
	c0.476,0.219,3.723-3.14,4.047-3.429c0.7-0.627,1.4-1.254,2.101-1.881c2.01-1.798,4.029-3.582,6.045-5.375
	c0.743-0.638,3.182-3.033,3.962-2.589c0.641,0.365-0.052,2.257-0.259,2.726c-0.542,1.238-1.102,2.471-1.665,3.701
	c-1.456,3.167-5.721,8.55-4.981,9.514c1.071,1.397,6.228-0.748,8.283-2.135c0.434-0.293,3.302-2.574,3.463-1.722
	C70.647,49.206,69.268,50.349,68.734,50.847z"/>
</svg>
