<?xml version="1.0" encoding="utf-8"?>
<!-- Generator: Adobe Illustrator 16.0.4, SVG Export Plug-In . SVG Version: 6.00 Build 0)  -->
<!DOCTYPE svg PUBLIC "-//W3C//DTD SVG 1.1//EN" "http://www.w3.org/Graphics/SVG/1.1/DTD/svg11.dtd">
<svg version="1.1" id="Layer_1" xmlns="http://www.w3.org/2000/svg" xmlns:xlink="http://www.w3.org/1999/xlink" x="0px" y="0px"
	 width="350px" height="200px" viewBox="0 0 350 200" enable-background="new 0 0 350 200" xml:space="preserve">
<g>
	<line fill="none" stroke="#DAE4EA" stroke-miterlimit="10" x1="20.956" y1="23.399" x2="20.956" y2="92.906"/>
	<circle fill="#FFFFFF" stroke="#69A6CC" stroke-miterlimit="10" cx="20.956" cy="81.63" r="2.499"/>
	
		<line fill="#ED8F00" stroke="#ACB8BF" stroke-linecap="round" stroke-miterlimit="10" x1="30.702" y1="79.131" x2="67.688" y2="79.131"/>
	
		<line fill="#ED8F00" stroke="#ACB8BF" stroke-linecap="round" stroke-miterlimit="10" x1="30.702" y1="83.628" x2="66.19" y2="83.628"/>
	<path fill="#FFFFFF" stroke="#ED8F00" stroke-miterlimit="10" d="M79.087,78.938v10.875c0,2.252-1.35,4.094-3,4.094H13.112
		c-1.65,0-3-1.842-3-4.094V78.938H79.087z"/>
	<path fill="none" stroke="#ED8F00" stroke-width="2" stroke-miterlimit="10" d="M78.863,90.875c0,1.65-1.35,3-3,3H12.888
		c-1.65,0-3-1.35-3-3V9.906c0-1.65,1.35-3,3-3h62.975c1.65,0,3,1.35,3,3V90.875z"/>
	<path fill="#ED8F00" d="M78.863,23.399V12.562c0-3.11-2.025-5.656-4.499-5.656H14.387c-2.474,0-4.499,2.546-4.499,5.656v10.837
		H78.863z"/>
	<circle fill="#FFFFFF" stroke="#69A6CC" stroke-miterlimit="10" cx="20.956" cy="33.646" r="2.499"/>
	<circle fill="#FFFFFF" stroke="#69A6CC" stroke-miterlimit="10" cx="20.956" cy="45.643" r="2.499"/>
	<circle fill="#FFFFFF" stroke="#69A6CC" stroke-miterlimit="10" cx="20.956" cy="57.638" r="2.499"/>
	<circle fill="#FFFFFF" stroke="#69A6CC" stroke-miterlimit="10" cx="20.956" cy="69.634" r="2.499"/>
	
		<line fill="#ED8F00" stroke="#ACB8BF" stroke-linecap="round" stroke-miterlimit="10" x1="30.702" y1="31.147" x2="69.548" y2="31.147"/>
	
		<line fill="#ED8F00" stroke="#ACB8BF" stroke-linecap="round" stroke-miterlimit="10" x1="30.702" y1="35.647" x2="66.19" y2="35.647"/>
	
		<line fill="#ED8F00" stroke="#ACB8BF" stroke-linecap="round" stroke-miterlimit="10" x1="30.702" y1="43.143" x2="64.769" y2="43.143"/>
	
		<line fill="#ED8F00" stroke="#ACB8BF" stroke-linecap="round" stroke-miterlimit="10" x1="30.702" y1="47.642" x2="62.746" y2="47.642"/>
	
		<line fill="#ED8F00" stroke="#ACB8BF" stroke-linecap="round" stroke-miterlimit="10" x1="30.702" y1="55.14" x2="67.688" y2="55.14"/>
	
		<line fill="#ED8F00" stroke="#ACB8BF" stroke-linecap="round" stroke-miterlimit="10" x1="30.702" y1="59.638" x2="66.19" y2="59.638"/>
	
		<line fill="#ED8F00" stroke="#ACB8BF" stroke-linecap="round" stroke-miterlimit="10" x1="30.702" y1="67.135" x2="66.792" y2="67.135"/>
	
		<line fill="#ED8F00" stroke="#ACB8BF" stroke-linecap="round" stroke-miterlimit="10" x1="30.702" y1="71.632" x2="55.678" y2="71.632"/>
	<circle fill="#FFFFFF" cx="71.031" cy="15.154" r="2.999"/>
	<line fill="none" stroke="#DAE4EA" stroke-miterlimit="10" x1="20.956" y1="123.431" x2="20.956" y2="192.938"/>
	<path fill="#ED8F00" d="M78.863,123.431v-10.837c0-3.11-2.025-5.656-4.499-5.656H14.387c-2.474,0-4.499,2.546-4.499,5.656v10.837
		H78.863z"/>
	<circle fill="#FFFFFF" stroke="#69A6CC" stroke-miterlimit="10" cx="20.956" cy="133.678" r="2.499"/>
	<circle fill="#FFFFFF" stroke="#69A6CC" stroke-miterlimit="10" cx="20.956" cy="145.674" r="2.499"/>
	<circle fill="#FFFFFF" stroke="#69A6CC" stroke-miterlimit="10" cx="20.956" cy="157.669" r="2.499"/>
	<circle fill="#FFFFFF" stroke="#69A6CC" stroke-miterlimit="10" cx="20.956" cy="169.665" r="2.499"/>
	<circle fill="#FFFFFF" stroke="#69A6CC" stroke-miterlimit="10" cx="20.956" cy="181.661" r="2.499"/>
	
		<line fill="#ED8F00" stroke="#ACB8BF" stroke-linecap="round" stroke-miterlimit="10" x1="30.702" y1="131.179" x2="62.112" y2="131.179"/>
	
		<line fill="#ED8F00" stroke="#ACB8BF" stroke-linecap="round" stroke-miterlimit="10" x1="30.702" y1="135.679" x2="66.19" y2="135.679"/>
	
		<line fill="#ED8F00" stroke="#ACB8BF" stroke-linecap="round" stroke-miterlimit="10" x1="30.702" y1="143.174" x2="64.769" y2="143.174"/>
	
		<line fill="#ED8F00" stroke="#ACB8BF" stroke-linecap="round" stroke-miterlimit="10" x1="30.702" y1="147.673" x2="68.112" y2="147.673"/>
	
		<line fill="#ED8F00" stroke="#ACB8BF" stroke-linecap="round" stroke-miterlimit="10" x1="30.702" y1="155.171" x2="64.112" y2="155.171"/>
	
		<line fill="#ED8F00" stroke="#ACB8BF" stroke-linecap="round" stroke-miterlimit="10" x1="30.702" y1="159.669" x2="66.19" y2="159.669"/>
	
		<line fill="#ED8F00" stroke="#ACB8BF" stroke-linecap="round" stroke-miterlimit="10" x1="30.702" y1="167.166" x2="66.792" y2="167.166"/>
	
		<line fill="#ED8F00" stroke="#ACB8BF" stroke-linecap="round" stroke-miterlimit="10" x1="30.702" y1="171.663" x2="63.112" y2="171.663"/>
	
		<line fill="#ED8F00" stroke="#ACB8BF" stroke-linecap="round" stroke-miterlimit="10" x1="30.702" y1="179.162" x2="58.112" y2="179.162"/>
	
		<line fill="#ED8F00" stroke="#ACB8BF" stroke-linecap="round" stroke-miterlimit="10" x1="30.702" y1="183.659" x2="62.112" y2="183.659"/>
	<circle fill="#FFFFFF" cx="71.031" cy="115.186" r="2.999"/>
	<line fill="none" stroke="#DAE4EA" stroke-miterlimit="10" x1="104.205" y1="23.399" x2="104.205" y2="92.906"/>
	<path fill="#ED8F00" d="M162.112,23.399V12.562c0-3.11-2.025-5.656-4.499-5.656H97.635c-2.474,0-4.499,2.546-4.499,5.656v10.837
		H162.112z"/>
	<circle fill="#FFFFFF" stroke="#69A6CC" stroke-miterlimit="10" cx="104.204" cy="33.646" r="2.499"/>
	<circle fill="#FFFFFF" stroke="#69A6CC" stroke-miterlimit="10" cx="104.204" cy="45.643" r="2.499"/>
	<circle fill="#FFFFFF" stroke="#69A6CC" stroke-miterlimit="10" cx="104.204" cy="57.638" r="2.499"/>
	<circle fill="#FFFFFF" stroke="#69A6CC" stroke-miterlimit="10" cx="104.204" cy="69.634" r="2.499"/>
	<circle fill="#FFFFFF" stroke="#69A6CC" stroke-miterlimit="10" cx="104.204" cy="81.63" r="2.499"/>
	
		<line fill="#ED8F00" stroke="#ACB8BF" stroke-linecap="round" stroke-miterlimit="10" x1="113.951" y1="31.147" x2="145.112" y2="31.147"/>
	
		<line fill="#ED8F00" stroke="#ACB8BF" stroke-linecap="round" stroke-miterlimit="10" x1="113.951" y1="35.647" x2="149.438" y2="35.647"/>
	
		<line fill="#ED8F00" stroke="#ACB8BF" stroke-linecap="round" stroke-miterlimit="10" x1="113.951" y1="43.143" x2="153.112" y2="43.143"/>
	
		<line fill="#ED8F00" stroke="#ACB8BF" stroke-linecap="round" stroke-miterlimit="10" x1="113.951" y1="47.642" x2="149.112" y2="47.642"/>
	
		<line fill="#ED8F00" stroke="#ACB8BF" stroke-linecap="round" stroke-miterlimit="10" x1="113.951" y1="55.14" x2="145.112" y2="55.14"/>
	
		<line fill="#ED8F00" stroke="#ACB8BF" stroke-linecap="round" stroke-miterlimit="10" x1="113.951" y1="59.638" x2="149.438" y2="59.638"/>
	
		<line fill="#ED8F00" stroke="#ACB8BF" stroke-linecap="round" stroke-miterlimit="10" x1="113.951" y1="67.135" x2="150.04" y2="67.135"/>
	
		<line fill="#ED8F00" stroke="#ACB8BF" stroke-linecap="round" stroke-miterlimit="10" x1="113.951" y1="71.632" x2="138.927" y2="71.632"/>
	
		<line fill="#ED8F00" stroke="#ACB8BF" stroke-linecap="round" stroke-miterlimit="10" x1="113.951" y1="79.131" x2="141.112" y2="79.131"/>
	
		<line fill="#ED8F00" stroke="#ACB8BF" stroke-linecap="round" stroke-miterlimit="10" x1="113.951" y1="83.628" x2="149.438" y2="83.628"/>
	<circle fill="#FFFFFF" cx="154.279" cy="15.154" r="2.999"/>
	<g>
		<rect x="15.112" y="11.906" fill="none" width="47" height="6.539"/>
		<path fill="#FFFFFF" d="M15.728,12.3h1.175v2.007h1.799V12.3h1.184v5.213h-1.184v-2.175h-1.799v2.175h-1.175V12.3z"/>
		<path fill="#FFFFFF" d="M22.135,13.292h-1.432V12.3h4.046v0.991h-1.431v4.222h-1.183V13.292z"/>
		<path fill="#FFFFFF" d="M25.567,12.3h1.247l0.872,2.343l0.312,0.911h0.032l0.312-0.911l0.848-2.343h1.239v5.213h-1.095v-1.911
			c0-0.512,0.096-1.271,0.152-1.774h-0.032l-0.432,1.207l-0.8,2.022H27.75l-0.799-2.022l-0.416-1.207h-0.032
			c0.056,0.503,0.144,1.263,0.144,1.774v1.911h-1.08V12.3z"/>
		<path fill="#FFFFFF" d="M31.663,12.3h1.175v4.222h2.063v0.991h-3.238V12.3z"/>
		<path fill="#FFFFFF" d="M37.471,12.3h1.783c1.079,0,1.919,0.296,1.919,1.295c0,0.464-0.264,0.968-0.872,1.128v0.031
			c0.744,0.136,1.127,0.528,1.127,1.224c0,1.063-0.896,1.535-2.023,1.535h-1.935V12.3z M39.198,14.403
			c0.576,0,0.824-0.248,0.824-0.64s-0.264-0.552-0.816-0.552h-0.56v1.191H39.198z M39.31,16.602c0.64,0,0.968-0.24,0.968-0.712
			c0-0.456-0.32-0.655-0.968-0.655h-0.664v1.367H39.31z"/>
		<path fill="#FFFFFF" d="M44.302,14.962c-0.024-0.352-0.2-0.575-0.624-0.575c-0.336,0-0.672,0.136-1.056,0.359l-0.416-0.775
			c0.504-0.304,1.071-0.52,1.695-0.52c1.016,0,1.575,0.575,1.575,1.791v2.271h-0.959l-0.088-0.408h-0.024
			c-0.336,0.296-0.711,0.504-1.159,0.504c-0.72,0-1.175-0.527-1.175-1.199C42.071,15.579,42.735,15.123,44.302,14.962z
			 M43.646,16.698c0.272,0,0.448-0.128,0.656-0.336v-0.695c-0.839,0.111-1.111,0.352-1.111,0.655
			C43.19,16.578,43.366,16.698,43.646,16.698z"/>
		<path fill="#FFFFFF" d="M46.663,16.322c0.36,0.271,0.688,0.416,1.023,0.416c0.352,0,0.503-0.128,0.503-0.336
			c0-0.264-0.399-0.384-0.808-0.544c-0.479-0.184-1.047-0.512-1.047-1.167c0-0.735,0.6-1.239,1.519-1.239
			c0.608,0,1.056,0.248,1.399,0.504l-0.528,0.703c-0.288-0.208-0.56-0.336-0.839-0.336c-0.304,0-0.448,0.112-0.448,0.312
			c0,0.256,0.368,0.353,0.775,0.504c0.504,0.185,1.072,0.464,1.072,1.191c0,0.72-0.568,1.279-1.631,1.279
			c-0.52,0-1.119-0.224-1.519-0.552L46.663,16.322z"/>
		<path fill="#FFFFFF" d="M49.935,12.348c0-0.36,0.288-0.607,0.68-0.607c0.399,0,0.68,0.247,0.68,0.607
			c0,0.359-0.28,0.615-0.68,0.615C50.223,12.963,49.935,12.708,49.935,12.348z M50.031,13.547h1.176v3.966h-1.176V13.547z"/>
		<path fill="#FFFFFF" d="M54.07,13.452c0.488,0,0.896,0.184,1.16,0.455l-0.536,0.728c-0.192-0.159-0.368-0.231-0.552-0.231
			c-0.568,0-0.928,0.439-0.928,1.128c0,0.688,0.376,1.127,0.888,1.127c0.288,0,0.52-0.136,0.711-0.288l0.472,0.744
			c-0.384,0.335-0.887,0.495-1.319,0.495c-1.103,0-1.958-0.76-1.958-2.078C52.007,14.211,52.975,13.452,54.07,13.452z"/>
		<path fill="#FFFFFF" d="M56.151,16.322c0.359,0.271,0.688,0.416,1.023,0.416c0.352,0,0.503-0.128,0.503-0.336
			c0-0.264-0.4-0.384-0.808-0.544c-0.479-0.184-1.047-0.512-1.047-1.167c0-0.735,0.6-1.239,1.52-1.239
			c0.607,0,1.055,0.248,1.399,0.504l-0.528,0.703c-0.288-0.208-0.56-0.336-0.839-0.336c-0.304,0-0.448,0.112-0.448,0.312
			c0,0.256,0.368,0.353,0.775,0.504c0.504,0.185,1.072,0.464,1.072,1.191c0,0.72-0.568,1.279-1.631,1.279
			c-0.52,0-1.119-0.224-1.519-0.552L56.151,16.322z"/>
	</g>
	<g>
		<rect x="15.112" y="111.906" fill="none" width="47" height="6.539"/>
		<path fill="#FFFFFF" d="M18.046,112.205c0.728,0,1.271,0.326,1.615,0.678l-0.647,0.729c-0.256-0.24-0.504-0.393-0.952-0.393
			c-0.808,0-1.375,0.633-1.375,1.68c0,1.072,0.488,1.695,1.463,1.695c0.216,0,0.432-0.057,0.56-0.16v-0.895h-0.864v-0.961h1.903
			v2.398c-0.368,0.354-1.016,0.633-1.743,0.633c-1.407,0-2.527-0.92-2.527-2.67C15.479,113.211,16.631,112.205,18.046,112.205z"/>
		<path fill="#FFFFFF" d="M20.64,112.348c0-0.359,0.288-0.607,0.68-0.607c0.4,0,0.68,0.248,0.68,0.607s-0.28,0.615-0.68,0.615
			C20.927,112.963,20.64,112.707,20.64,112.348z M20.735,113.547h1.175v3.967h-1.175V113.547z"/>
		<path fill="#FFFFFF" d="M23.104,114.467H22.56v-0.871l0.608-0.049l0.136-1.055h0.976v1.055h0.952v0.92h-0.952v1.592
			c0,0.447,0.2,0.631,0.512,0.631c0.128,0,0.272-0.039,0.376-0.08l0.184,0.855c-0.208,0.064-0.496,0.145-0.879,0.145
			c-0.983,0-1.367-0.615-1.367-1.535V114.467z"/>
		<path fill="#FFFFFF" d="M32.061,117.609c-0.432-0.088-0.887-0.271-1.335-0.527c-0.44,0.328-0.983,0.527-1.639,0.527
			c-1.135,0-1.735-0.688-1.735-1.488c0-0.727,0.44-1.143,0.952-1.471c-0.2-0.375-0.32-0.752-0.32-1.078
			c0-0.744,0.543-1.367,1.415-1.367c0.784,0,1.279,0.463,1.279,1.182c0,0.68-0.543,1.111-1.087,1.48
			c0.296,0.344,0.664,0.672,1.048,0.951c0.264-0.344,0.472-0.76,0.6-1.248h1.071c-0.192,0.633-0.472,1.217-0.872,1.76
			c0.328,0.168,0.64,0.287,0.903,0.328L32.061,117.609z M29.239,116.713c0.216,0,0.439-0.07,0.664-0.207
			c-0.408-0.328-0.784-0.695-1.087-1.08c-0.208,0.184-0.352,0.385-0.352,0.625C28.463,116.441,28.775,116.713,29.239,116.713z
			 M29.119,114.188c0.376-0.225,0.664-0.447,0.664-0.801c0-0.248-0.112-0.406-0.36-0.406c-0.264,0-0.472,0.223-0.472,0.582
			C28.951,113.756,29.015,113.971,29.119,114.188z"/>
		<path fill="#FFFFFF" d="M37.086,112.205c0.728,0,1.271,0.326,1.615,0.678l-0.647,0.729c-0.256-0.24-0.504-0.393-0.952-0.393
			c-0.808,0-1.375,0.633-1.375,1.68c0,1.072,0.488,1.695,1.463,1.695c0.216,0,0.432-0.057,0.56-0.16v-0.895h-0.864v-0.961h1.903
			v2.398c-0.368,0.354-1.016,0.633-1.743,0.633c-1.407,0-2.527-0.92-2.527-2.67C34.52,113.211,35.671,112.205,37.086,112.205z"/>
		<path fill="#FFFFFF" d="M39.68,112.348c0-0.359,0.288-0.607,0.68-0.607c0.4,0,0.68,0.248,0.68,0.607s-0.28,0.615-0.68,0.615
			C39.967,112.963,39.68,112.707,39.68,112.348z M39.775,113.547h1.175v3.967h-1.175V113.547z"/>
		<path fill="#FFFFFF" d="M42.144,114.467H41.6v-0.871l0.608-0.049l0.136-1.055h0.976v1.055h0.952v0.92h-0.952v1.592
			c0,0.447,0.2,0.631,0.512,0.631c0.128,0,0.272-0.039,0.376-0.08l0.184,0.855c-0.208,0.064-0.496,0.145-0.879,0.145
			c-0.983,0-1.367-0.615-1.367-1.535V114.467z"/>
		<path fill="#FFFFFF" d="M45.047,111.908h1.176v1.375l-0.056,0.713c0.296-0.266,0.688-0.545,1.223-0.545
			c0.864,0,1.231,0.607,1.231,1.6v2.463h-1.175v-2.311c0-0.576-0.152-0.752-0.488-0.752c-0.296,0-0.479,0.135-0.735,0.383v2.68
			h-1.176V111.908z"/>
		<path fill="#FFFFFF" d="M49.576,113.547h1.175v2.311c0,0.568,0.152,0.752,0.496,0.752c0.296,0,0.472-0.127,0.704-0.439v-2.623
			h1.175v3.967h-0.959l-0.088-0.553h-0.024c-0.336,0.4-0.704,0.648-1.248,0.648c-0.863,0-1.231-0.607-1.231-1.6V113.547z"/>
		<path fill="#FFFFFF" d="M54.159,111.908h1.175v1.375l-0.032,0.607c0.304-0.271,0.68-0.439,1.047-0.439
			c0.959,0,1.559,0.791,1.559,2.008c0,1.367-0.815,2.15-1.671,2.15c-0.352,0-0.72-0.176-1.032-0.512h-0.032l-0.096,0.416h-0.919
			V111.908z M55.966,116.65c0.408,0,0.736-0.352,0.736-1.168c0-0.711-0.216-1.072-0.688-1.072c-0.24,0-0.456,0.113-0.68,0.361v1.623
			C55.542,116.586,55.767,116.65,55.966,116.65z"/>
	</g>
	<g>
		<rect x="100.112" y="11.906" fill="none" width="47" height="6.539"/>
		<path fill="#FFFFFF" d="M102.966,12.205c0.647,0,1.191,0.319,1.543,0.679l-0.647,0.728c-0.264-0.239-0.52-0.392-0.879-0.392
			c-0.728,0-1.295,0.632-1.295,1.68c0,1.071,0.496,1.694,1.263,1.694c0.424,0,0.736-0.184,0.992-0.463l0.647,0.711
			c-0.432,0.504-1.007,0.768-1.655,0.768c-1.351,0-2.455-0.919-2.455-2.67C100.479,13.211,101.623,12.205,102.966,12.205z"/>
		<path fill="#FFFFFF" d="M105.495,16.05c0.375,0.319,0.855,0.543,1.287,0.543c0.488,0,0.728-0.191,0.728-0.503
			c0-0.328-0.296-0.433-0.751-0.624l-0.68-0.288c-0.536-0.216-1.047-0.663-1.047-1.423c0-0.863,0.768-1.551,1.855-1.551
			c0.6,0,1.231,0.239,1.679,0.688l-0.6,0.743c-0.344-0.264-0.664-0.416-1.079-0.416c-0.408,0-0.664,0.176-0.664,0.472
			c0,0.32,0.344,0.432,0.792,0.616l0.671,0.271c0.632,0.256,1.032,0.68,1.032,1.415c0,0.864-0.72,1.615-1.967,1.615
			c-0.68,0-1.399-0.256-1.927-0.751L105.495,16.05z"/>
		<path fill="#FFFFFF" d="M109.799,16.05c0.375,0.319,0.855,0.543,1.287,0.543c0.488,0,0.728-0.191,0.728-0.503
			c0-0.328-0.296-0.433-0.751-0.624l-0.68-0.288c-0.536-0.216-1.047-0.663-1.047-1.423c0-0.863,0.768-1.551,1.855-1.551
			c0.6,0,1.231,0.239,1.679,0.688l-0.6,0.743c-0.344-0.264-0.664-0.416-1.079-0.416c-0.408,0-0.664,0.176-0.664,0.472
			c0,0.32,0.344,0.432,0.792,0.616l0.671,0.271c0.632,0.256,1.032,0.68,1.032,1.415c0,0.864-0.72,1.615-1.967,1.615
			c-0.68,0-1.399-0.256-1.927-0.751L109.799,16.05z"/>
		<path fill="#FFFFFF" d="M115.575,12.3h1.783c1.08,0,1.919,0.296,1.919,1.295c0,0.464-0.264,0.968-0.871,1.128v0.031
			c0.743,0.136,1.127,0.528,1.127,1.224c0,1.063-0.896,1.535-2.022,1.535h-1.935V12.3z M117.302,14.403
			c0.576,0,0.823-0.248,0.823-0.64s-0.264-0.552-0.815-0.552h-0.56v1.191H117.302z M117.414,16.602c0.64,0,0.967-0.24,0.967-0.712
			c0-0.456-0.319-0.655-0.967-0.655h-0.664v1.367H117.414z"/>
		<path fill="#FFFFFF" d="M122.406,14.962c-0.024-0.352-0.2-0.575-0.624-0.575c-0.336,0-0.671,0.136-1.055,0.359l-0.416-0.775
			c0.504-0.304,1.071-0.52,1.695-0.52c1.015,0,1.575,0.575,1.575,1.791v2.271h-0.959l-0.088-0.408h-0.024
			c-0.336,0.296-0.711,0.504-1.159,0.504c-0.72,0-1.175-0.527-1.175-1.199C120.175,15.579,120.839,15.123,122.406,14.962z
			 M121.75,16.698c0.271,0,0.447-0.128,0.655-0.336v-0.695c-0.839,0.111-1.111,0.352-1.111,0.655
			C121.294,16.578,121.47,16.698,121.75,16.698z"/>
		<path fill="#FFFFFF" d="M124.768,16.322c0.36,0.271,0.688,0.416,1.023,0.416c0.352,0,0.503-0.128,0.503-0.336
			c0-0.264-0.399-0.384-0.808-0.544c-0.479-0.184-1.047-0.512-1.047-1.167c0-0.735,0.6-1.239,1.519-1.239
			c0.608,0,1.056,0.248,1.399,0.504l-0.528,0.703c-0.288-0.208-0.56-0.336-0.839-0.336c-0.304,0-0.448,0.112-0.448,0.312
			c0,0.256,0.368,0.353,0.775,0.504c0.504,0.185,1.072,0.464,1.072,1.191c0,0.72-0.568,1.279-1.631,1.279
			c-0.52,0-1.119-0.224-1.519-0.552L124.768,16.322z"/>
		<path fill="#FFFFFF" d="M128.04,12.348c0-0.36,0.288-0.607,0.68-0.607c0.399,0,0.68,0.247,0.68,0.607
			c0,0.359-0.28,0.615-0.68,0.615C128.327,12.963,128.04,12.708,128.04,12.348z M128.135,13.547h1.176v3.966h-1.176V13.547z"/>
		<path fill="#FFFFFF" d="M132.174,13.452c0.488,0,0.896,0.184,1.16,0.455l-0.536,0.728c-0.192-0.159-0.368-0.231-0.552-0.231
			c-0.568,0-0.928,0.439-0.928,1.128c0,0.688,0.376,1.127,0.888,1.127c0.288,0,0.52-0.136,0.711-0.288l0.472,0.744
			c-0.384,0.335-0.887,0.495-1.319,0.495c-1.103,0-1.958-0.76-1.958-2.078C130.112,14.211,131.079,13.452,132.174,13.452z"/>
		<path fill="#FFFFFF" d="M134.255,16.322c0.36,0.271,0.688,0.416,1.023,0.416c0.352,0,0.503-0.128,0.503-0.336
			c0-0.264-0.399-0.384-0.808-0.544c-0.479-0.184-1.047-0.512-1.047-1.167c0-0.735,0.6-1.239,1.519-1.239
			c0.608,0,1.056,0.248,1.399,0.504l-0.528,0.703c-0.288-0.208-0.56-0.336-0.839-0.336c-0.304,0-0.448,0.112-0.448,0.312
			c0,0.256,0.368,0.353,0.775,0.504c0.504,0.185,1.072,0.464,1.072,1.191c0,0.72-0.568,1.279-1.631,1.279
			c-0.52,0-1.119-0.224-1.519-0.552L134.255,16.322z"/>
	</g>
	<g>
		<path fill="#65B214" d="M71.112,86.406c0,1.375-1.35,2.5-3,2.5h-50c-1.65,0-3-1.125-3-2.5s1.35-2.5,3-2.5h50
			C69.762,83.906,71.112,85.031,71.112,86.406z"/>
	</g>
	<rect x="46.112" y="83.906" fill="#EAB200" width="11" height="5"/>
	<path fill="#FFFFFF" stroke="#ED8F00" stroke-miterlimit="10" d="M162.087,78.938v10.875c0,2.252-1.35,4.094-3,4.094H96.112
		c-1.65,0-3-1.842-3-4.094V78.938H162.087z"/>
	<g>
		<path fill="#65B214" d="M154.112,86.406c0,1.375-1.35,2.5-3,2.5h-50c-1.65,0-3-1.125-3-2.5s1.35-2.5,3-2.5h50
			C152.762,83.906,154.112,85.031,154.112,86.406z"/>
	</g>
	<path fill="#DB4C00" d="M152.112,83.906h-12v5h12c1.1,0,2-1.125,2-2.5S153.212,83.906,152.112,83.906z"/>
	<rect x="129.112" y="83.906" fill="#EAB200" width="11" height="5"/>
	<path fill="#FFFFFF" stroke="#ED8F00" stroke-miterlimit="10" d="M79.087,178.938v10.875c0,2.252-1.35,4.094-3,4.094H13.112
		c-1.65,0-3-1.842-3-4.094v-10.875H79.087z"/>
	<g>
		<path fill="#65B214" d="M71.112,186.406c0,1.375-1.35,2.5-3,2.5h-50c-1.65,0-3-1.125-3-2.5s1.35-2.5,3-2.5h50
			C69.762,183.906,71.112,185.031,71.112,186.406z"/>
	</g>
	<rect x="34.237" y="183.906" fill="#EAB200" width="27.875" height="5"/>
	<path fill="#DB4C00" d="M68.112,183.906h-6v5h6c1.65,0,3-1.125,3-2.5S69.762,183.906,68.112,183.906z"/>
	<path fill="#DB4C00" d="M68.112,83.906h-11v5h11c1.65,0,3-1.125,3-2.5S69.762,83.906,68.112,83.906z"/>
	<g>
		<path fill="none" stroke="#ED8F00" stroke-width="2" stroke-miterlimit="10" d="M78.863,190.906c0,1.65-1.35,3-3,3H12.888
			c-1.65,0-3-1.35-3-3v-80.969c0-1.65,1.35-3,3-3h62.975c1.65,0,3,1.35,3,3V190.906z"/>
	</g>
	<g>
		<path fill="none" stroke="#ED8F00" stroke-width="2" stroke-miterlimit="10" d="M162.112,90.875c0,1.65-1.35,3-3,3H96.137
			c-1.65,0-3-1.35-3-3V9.906c0-1.65,1.35-3,3-3h62.975c1.65,0,3,1.35,3,3V90.875z"/>
	</g>
	<path fill="#ED8F00" d="M162.112,123.399v-10.837c0-3.11-2.025-5.656-4.499-5.656H97.635c-2.474,0-4.499,2.546-4.499,5.656v10.837
		H162.112z"/>
	<g>
		<path fill="none" stroke="#ED8F00" stroke-width="2" stroke-miterlimit="10" d="M162.112,190.875c0,1.65-1.35,3-3,3H96.137
			c-1.65,0-3-1.35-3-3v-80.969c0-1.65,1.35-3,3-3h62.975c1.65,0,3,1.35,3,3V190.875z"/>
	</g>
	<g>
		<rect x="100.112" y="112.367" fill="none" width="47" height="6.539"/>
		<path fill="#FFFFFF" d="M101.04,116.535c0.191,0.352,0.463,0.52,0.728,0.52c0.424,0,0.647-0.217,0.647-0.912v-3.381h1.175v3.477
			c0,1.008-0.52,1.832-1.671,1.832c-0.792,0-1.319-0.312-1.679-0.943L101.04,116.535z"/>
		<path fill="#FFFFFF" d="M106.79,115.424c-0.024-0.352-0.2-0.576-0.624-0.576c-0.336,0-0.672,0.137-1.056,0.359l-0.416-0.775
			c0.504-0.303,1.071-0.52,1.695-0.52c1.016,0,1.575,0.576,1.575,1.791v2.271h-0.959l-0.088-0.408h-0.024
			c-0.336,0.295-0.711,0.504-1.159,0.504c-0.72,0-1.175-0.527-1.175-1.199C104.56,116.039,105.223,115.584,106.79,115.424z
			 M106.134,117.158c0.272,0,0.448-0.127,0.656-0.336v-0.695c-0.839,0.111-1.111,0.352-1.111,0.656
			C105.679,117.039,105.854,117.158,106.134,117.158z"/>
		<path fill="#FFFFFF" d="M108.551,114.008h1.184l0.512,1.871c0.104,0.393,0.208,0.809,0.312,1.225h0.032
			c0.096-0.416,0.2-0.832,0.304-1.225l0.52-1.871h1.127l-1.295,3.967h-1.359L108.551,114.008z"/>
		<path fill="#FFFFFF" d="M115.086,115.424c-0.024-0.352-0.2-0.576-0.624-0.576c-0.336,0-0.671,0.137-1.055,0.359l-0.416-0.775
			c0.504-0.303,1.071-0.52,1.695-0.52c1.015,0,1.575,0.576,1.575,1.791v2.271h-0.959l-0.088-0.408h-0.024
			c-0.336,0.295-0.711,0.504-1.159,0.504c-0.72,0-1.175-0.527-1.175-1.199C112.856,116.039,113.52,115.584,115.086,115.424z
			 M114.431,117.158c0.271,0,0.447-0.127,0.655-0.336v-0.695c-0.839,0.111-1.111,0.352-1.111,0.656
			C113.975,117.039,114.151,117.158,114.431,117.158z"/>
		<path fill="#FFFFFF" d="M117.447,116.783c0.36,0.271,0.688,0.416,1.023,0.416c0.352,0,0.503-0.129,0.503-0.336
			c0-0.264-0.399-0.385-0.808-0.545c-0.479-0.184-1.047-0.512-1.047-1.166c0-0.736,0.6-1.24,1.519-1.24
			c0.608,0,1.056,0.248,1.399,0.504l-0.528,0.703c-0.288-0.207-0.56-0.336-0.839-0.336c-0.304,0-0.448,0.113-0.448,0.312
			c0,0.256,0.368,0.352,0.775,0.504c0.504,0.184,1.072,0.463,1.072,1.191c0,0.719-0.568,1.279-1.631,1.279
			c-0.52,0-1.119-0.225-1.519-0.553L117.447,116.783z"/>
		<path fill="#FFFFFF" d="M122.646,113.912c0.488,0,0.896,0.184,1.16,0.455l-0.536,0.729c-0.192-0.16-0.368-0.232-0.552-0.232
			c-0.568,0-0.928,0.439-0.928,1.129c0,0.688,0.376,1.127,0.888,1.127c0.288,0,0.52-0.137,0.711-0.289l0.472,0.744
			c-0.384,0.336-0.887,0.496-1.319,0.496c-1.103,0-1.958-0.76-1.958-2.078C120.583,114.672,121.551,113.912,122.646,113.912z"/>
		<path fill="#FFFFFF" d="M124.551,114.008h0.959l0.08,0.695h0.032c0.288-0.535,0.719-0.791,1.127-0.791
			c0.224,0,0.359,0.033,0.472,0.08l-0.192,1.016c-0.144-0.039-0.264-0.064-0.432-0.064c-0.296,0-0.664,0.191-0.871,0.729v2.303
			h-1.176V114.008z"/>
		<path fill="#FFFFFF" d="M127.639,112.809c0-0.359,0.288-0.607,0.68-0.607c0.399,0,0.68,0.248,0.68,0.607s-0.28,0.615-0.68,0.615
			C127.927,113.424,127.639,113.168,127.639,112.809z M127.735,114.008h1.176v3.967h-1.176V114.008z"/>
		<path fill="#FFFFFF" d="M131.119,118.285v1.16h-1.176v-5.438h0.959l0.08,0.393h0.032c0.312-0.279,0.711-0.488,1.127-0.488
			c0.959,0,1.551,0.791,1.551,2.016c0,1.359-0.815,2.143-1.671,2.143c-0.344,0-0.664-0.152-0.943-0.416L131.119,118.285z
			 M131.75,117.111c0.408,0,0.736-0.352,0.736-1.168c0-0.711-0.216-1.072-0.688-1.072c-0.24,0-0.448,0.113-0.679,0.361v1.623
			C131.326,117.047,131.55,117.111,131.75,117.111z"/>
		<path fill="#FFFFFF" d="M134.687,114.928h-0.544v-0.871l0.608-0.049l0.136-1.055h0.976v1.055h0.952v0.92h-0.952v1.592
			c0,0.447,0.2,0.631,0.512,0.631c0.128,0,0.272-0.039,0.376-0.08l0.184,0.855c-0.208,0.064-0.496,0.145-0.879,0.145
			c-0.983,0-1.367-0.615-1.367-1.535V114.928z"/>
	</g>
	<g>
	</g>
	<polygon fill="#FFFFFF" points="37.446,199.906 202.111,0.906 340.111,0.906 340.111,199.906 	"/>
	<line fill="none" stroke="#E7EEF2" stroke-miterlimit="10" x1="165.112" y1="61.573" x2="340.111" y2="61.573"/>
	<line fill="none" stroke="#E7EEF2" stroke-miterlimit="10" x1="181.428" y1="41.573" x2="340.111" y2="41.573"/>
	<line fill="none" stroke="#E7EEF2" stroke-miterlimit="10" x1="148.297" y1="81.573" x2="340.111" y2="81.573"/>
	<line fill="none" stroke="#E7EEF2" stroke-miterlimit="10" x1="131.731" y1="101.573" x2="340.111" y2="101.573"/>
	<line fill="none" stroke="#E7EEF2" stroke-miterlimit="10" x1="115.112" y1="121.573" x2="340.111" y2="121.573"/>
	<line fill="none" stroke="#E7EEF2" stroke-miterlimit="10" x1="98.6" y1="141.573" x2="340.111" y2="141.573"/>
	<line fill="none" stroke="#E7EEF2" stroke-miterlimit="10" x1="82.035" y1="161.573" x2="340.111" y2="161.573"/>
	
		<line fill="none" stroke="#ACB8BF" stroke-width="2" stroke-linecap="round" stroke-miterlimit="10" x1="44.112" y1="198.906" x2="208.111" y2="0.906"/>
	<g>
		<g>
			<g>
				<g>
					<path fill="#DB4C00" d="M167.872,94.619c0-2.2,1.8-4,4-4h10.24c2.2,0,4,1.8,4,4v63.399c0,2.2-1.8,4-4,4h-10.24
						c-2.2,0-4-1.8-4-4V94.619z"/>
				</g>
				<g>
					<path fill="#DB4C00" d="M243.871,130.318c0-2.2,1.8-4,4-4h10.24c2.2,0,4,1.8,4,4v27.7c0,2.2-1.8,4-4,4h-10.24c-2.2,0-4-1.8-4-4
						V130.318z"/>
				</g>
				<g>
					<path fill="#DB4C00" d="M319.871,139.244c0-2.2,1.8-4,4-4h10.24c2.2,0,4,1.8,4,4v18.774c0,2.2-1.8,4-4,4h-10.24
						c-2.2,0-4-1.8-4-4V139.244z"/>
				</g>
			</g>
		</g>
	</g>
	<g>
		<g>
			<g>
				<g>
					<path fill="#EAB200" d="M147.632,94.619c0-2.2,1.8-4,4-4h10.239c2.2,0,4,1.8,4,4v63.399c0,2.2-1.8,4-4,4h-10.239
						c-2.2,0-4-1.8-4-4V94.619z"/>
				</g>
				<g>
					<path fill="#EAB200" d="M223.631,112.469c0-2.2,1.8-4,4-4h10.24c2.2,0,4,1.8,4,4v45.55c0,2.2-1.8,4-4,4h-10.24
						c-2.2,0-4-1.8-4-4V112.469z"/>
				</g>
				<g>
					<path fill="#EAB200" d="M299.631,139.244c0-2.2,1.8-4,4-4h10.24c2.2,0,4,1.8,4,4v18.774c0,2.2-1.8,4-4,4h-10.24
						c-2.2,0-4-1.8-4-4V139.244z"/>
				</g>
			</g>
		</g>
	</g>
	<g>
		<g>
			<g>
				<g>
					<path fill="#65B214" d="M127.408,130.318c0-2.2,1.8-4,4-4h10.238c2.2,0,4,1.8,4,4v27.7c0,2.2-1.8,4-4,4h-10.238
						c-2.2,0-4-1.8-4-4V130.318z"/>
				</g>
				<g>
					<path fill="#65B214" d="M203.406,76.77c0-2.2,1.8-4,4-4h10.24c2.2,0,4,1.8,4,4v81.249c0,2.2-1.8,4-4,4h-10.24c-2.2,0-4-1.8-4-4
						V76.77z"/>
				</g>
				<g>
					<path fill="#65B214" d="M279.406,41.069c0-2.2,1.8-4,4-4h10.242c2.2,0,4,1.8,4,4v116.949c0,2.2-1.8,4-4,4h-10.242
						c-2.2,0-4-1.8-4-4V41.069z"/>
				</g>
			</g>
		</g>
	</g>
	<g>
		<rect x="130.339" y="169.665" fill="none" width="55.545" height="11.537"/>
		<path fill="#556E82" d="M145.71,170.104h2.007c1.215,0,2.161,0.334,2.161,1.459c0,0.523-0.297,1.09-0.981,1.27v0.037
			c0.837,0.152,1.269,0.594,1.269,1.377c0,1.197-1.008,1.729-2.277,1.729h-2.179V170.104z M147.655,172.473
			c0.648,0,0.927-0.279,0.927-0.721s-0.297-0.621-0.918-0.621h-0.63v1.342H147.655z M147.781,174.947c0.72,0,1.089-0.27,1.089-0.801
			c0-0.514-0.36-0.738-1.089-0.738h-0.747v1.539H147.781z"/>
		<path fill="#556E82" d="M152.893,171.4c1.27,0,1.899,0.928,1.899,2.143c0,0.234-0.027,0.451-0.054,0.559h-2.674
			c0.117,0.676,0.567,0.973,1.161,0.973c0.333,0,0.639-0.1,0.963-0.297l0.441,0.801c-0.459,0.314-1.054,0.504-1.584,0.504
			c-1.279,0-2.26-0.863-2.26-2.34C150.786,172.293,151.821,171.4,152.893,171.4z M153.667,173.283c0-0.514-0.216-0.875-0.748-0.875
			c-0.414,0-0.774,0.279-0.864,0.875H153.667z"/>
		<path fill="#556E82" d="M158.185,170.689c-0.153-0.055-0.315-0.09-0.459-0.09c-0.324,0-0.513,0.18-0.513,0.639v0.271h0.801v1.035
			h-0.801v3.43h-1.324v-3.43h-0.594v-0.982l0.594-0.045v-0.242c0-0.945,0.441-1.721,1.647-1.721c0.369,0,0.693,0.09,0.892,0.162
			L158.185,170.689z"/>
		<path fill="#556E82" d="M160.561,171.4c1.125,0,2.169,0.855,2.169,2.342c0,1.484-1.044,2.34-2.169,2.34
			c-1.135,0-2.179-0.855-2.179-2.34C158.382,172.256,159.426,171.4,160.561,171.4z M160.561,175.012c0.54,0,0.819-0.496,0.819-1.27
			c0-0.775-0.279-1.27-0.819-1.27c-0.549,0-0.819,0.494-0.819,1.27C159.742,174.516,160.012,175.012,160.561,175.012z"/>
		<path fill="#556E82" d="M163.638,171.51h1.081l0.09,0.783h0.036c0.324-0.604,0.81-0.893,1.27-0.893
			c0.252,0,0.405,0.037,0.531,0.09l-0.216,1.145c-0.162-0.045-0.297-0.072-0.486-0.072c-0.333,0-0.747,0.215-0.981,0.818v2.594
			h-1.324V171.51z"/>
		<path fill="#556E82" d="M168.976,171.4c1.27,0,1.899,0.928,1.899,2.143c0,0.234-0.027,0.451-0.054,0.559h-2.674
			c0.117,0.676,0.567,0.973,1.161,0.973c0.333,0,0.639-0.1,0.963-0.297l0.441,0.801c-0.459,0.314-1.054,0.504-1.584,0.504
			c-1.279,0-2.26-0.863-2.26-2.34C166.87,172.293,167.905,171.4,168.976,171.4z M169.75,173.283c0-0.514-0.216-0.875-0.748-0.875
			c-0.414,0-0.774,0.279-0.864,0.875H169.75z"/>
	</g>
	<g>
		<rect x="204.979" y="169.665" fill="none" width="55.545" height="11.537"/>
		<path fill="#556E82" d="M220.021,170.104h1.656c1.792,0,2.944,0.893,2.944,2.908c0,2.018-1.152,2.963-2.872,2.963h-1.729V170.104z
			 M221.596,174.902c1,0,1.666-0.486,1.666-1.891s-0.666-1.836-1.666-1.836h-0.252v3.727H221.596z"/>
		<path fill="#556E82" d="M225.582,171.51h1.324v2.602c0,0.639,0.17,0.846,0.558,0.846c0.333,0,0.53-0.145,0.792-0.496v-2.951h1.324
			v4.465h-1.081l-0.099-0.621h-0.027c-0.379,0.449-0.793,0.729-1.404,0.729c-0.973,0-1.387-0.684-1.387-1.801V171.51z"/>
		<path fill="#556E82" d="M230.738,171.51h1.081l0.09,0.783h0.036c0.324-0.604,0.811-0.893,1.27-0.893
			c0.252,0,0.404,0.037,0.531,0.09l-0.217,1.145c-0.162-0.045-0.297-0.072-0.486-0.072c-0.332,0-0.746,0.215-0.98,0.818v2.594
			h-1.324V171.51z"/>
		<path fill="#556E82" d="M234.213,170.158c0-0.404,0.324-0.684,0.766-0.684c0.449,0,0.766,0.279,0.766,0.684
			c0,0.406-0.316,0.693-0.766,0.693C234.537,170.852,234.213,170.564,234.213,170.158z M234.32,171.51h1.324v4.465h-1.324V171.51z"
			/>
		<path fill="#556E82" d="M236.805,171.51h1.08l0.09,0.566h0.037c0.377-0.359,0.828-0.676,1.432-0.676
			c0.972,0,1.386,0.686,1.386,1.801v2.773h-1.323v-2.602c0-0.648-0.172-0.848-0.549-0.848c-0.334,0-0.541,0.154-0.828,0.434v3.016
			h-1.324V171.51z"/>
		<path fill="#556E82" d="M242.312,175.84v-0.037c-0.233-0.152-0.414-0.387-0.414-0.756c0-0.324,0.217-0.639,0.504-0.838v-0.035
			c-0.314-0.217-0.603-0.639-0.603-1.162c0-1.07,0.882-1.611,1.846-1.611c0.252,0,0.495,0.037,0.692,0.109h1.631v0.963h-0.712
			c0.081,0.135,0.144,0.35,0.144,0.584c0,1.027-0.773,1.504-1.755,1.504c-0.162,0-0.343-0.027-0.54-0.09
			c-0.117,0.1-0.162,0.18-0.162,0.334c0,0.225,0.18,0.332,0.675,0.332h0.72c1.1,0,1.702,0.334,1.702,1.135
			c0,0.928-0.964,1.602-2.493,1.602c-1.045,0-1.873-0.342-1.873-1.133C241.674,176.371,241.898,176.072,242.312,175.84z
			 M243.754,177.045c0.594,0,1.025-0.242,1.025-0.549c0-0.279-0.242-0.352-0.684-0.352h-0.459c-0.307,0-0.486-0.018-0.631-0.053
			c-0.162,0.143-0.242,0.279-0.242,0.441C242.764,176.865,243.159,177.045,243.754,177.045z M244.258,173.012
			c0-0.467-0.262-0.719-0.612-0.719s-0.612,0.242-0.612,0.719c0,0.496,0.262,0.748,0.612,0.748S244.258,173.508,244.258,173.012z"/>
	</g>
	<g>
		<rect x="280.979" y="169.665" fill="none" width="55.545" height="11.537"/>
		<path fill="#556E82" d="M302.493,174.578h-1.792l-0.359,1.396h-1.352l1.838-5.871h1.593l1.837,5.871h-1.404L302.493,174.578z
			 M302.223,173.543l-0.135-0.539c-0.162-0.586-0.324-1.279-0.477-1.891h-0.037c-0.144,0.621-0.297,1.305-0.459,1.891l-0.144,0.539
			H302.223z"/>
		<path fill="#556E82" d="M310.152,175.92c-0.234,0.072-0.559,0.162-0.99,0.162c-1.107,0-1.539-0.693-1.539-1.729v-1.809h-1.377
			v3.43h-1.324v-3.43h-0.594v-0.982l0.594-0.045v-0.242c0-0.945,0.441-1.721,1.647-1.721c0.369,0,0.693,0.09,0.892,0.162
			l-0.243,0.973c-0.153-0.055-0.315-0.09-0.459-0.09c-0.324,0-0.513,0.18-0.513,0.639v0.271h1.449l0.152-1.189h1.099v1.189h1.071
			v1.035h-1.071v1.791c0,0.504,0.226,0.711,0.576,0.711c0.144,0,0.306-0.045,0.423-0.09L310.152,175.92z"/>
		<path fill="#556E82" d="M312.645,171.4c1.27,0,1.899,0.928,1.899,2.143c0,0.234-0.026,0.451-0.054,0.559h-2.674
			c0.117,0.676,0.566,0.973,1.161,0.973c0.333,0,0.64-0.1,0.964-0.297l0.441,0.801c-0.46,0.314-1.055,0.504-1.585,0.504
			c-1.278,0-2.26-0.863-2.26-2.34C310.538,172.293,311.573,171.4,312.645,171.4z M313.419,173.283c0-0.514-0.216-0.875-0.747-0.875
			c-0.414,0-0.774,0.279-0.865,0.875H313.419z"/>
		<path fill="#556E82" d="M315.461,171.51h1.08l0.09,0.783h0.037c0.324-0.604,0.81-0.893,1.27-0.893c0.252,0,0.404,0.037,0.531,0.09
			l-0.217,1.145c-0.162-0.045-0.297-0.072-0.486-0.072c-0.333,0-0.747,0.215-0.98,0.818v2.594h-1.324V171.51z"/>
	</g>
</g>
<g>
</g>
<g>
</g>
<g>
</g>
<g>
</g>
<g>
</g>
<g>
</g>
<g>
</g>
<g>
</g>
<g>
</g>
<g>
</g>
<g>
</g>
<g>
</g>
<g>
</g>
<g>
</g>
<g>
</g>
</svg>
