<?xml version="1.0" encoding="utf-8"?>
<!-- Generator: Adobe Illustrator 16.0.4, SVG Export Plug-In . SVG Version: 6.00 Build 0)  -->
<!DOCTYPE svg PUBLIC "-//W3C//DTD SVG 1.1//EN" "http://www.w3.org/Graphics/SVG/1.1/DTD/svg11.dtd">
<svg version="1.1" id="Layer_1" xmlns="http://www.w3.org/2000/svg" xmlns:xlink="http://www.w3.org/1999/xlink" x="0px" y="0px"
	 width="58.875px" height="52.773px" viewBox="0 0 58.875 52.773" enable-background="new 0 0 58.875 52.773" xml:space="preserve">
<g>
	<path fill="#F15A29" d="M36.612,27.669c2.558-6.15,5.566-12.15,8.252-18.248c0.896-2.037,1.797-4.072,2.656-6.126
		c0.305-0.723,0.805-2.06,0.596-2.878c-0.108-0.433-0.486-0.603-1.051-0.152c-0.723,0.574-1.539,1.584-2.027,2.36
		c-0.588,0.938-1.17,1.883-1.741,2.83c-1.101,1.817-2.181,3.646-3.233,5.488c-2.152,3.771-4.25,7.571-6.188,11.459
		c-1.713,3.435-3.686,7.135-4.334,10.952c-0.256,1.496-0.096,3.2,1.213,4.183c1.535,1.153,3.438,0.526,4.923-0.361
		c3.399-2.034,9.345-8.276,8.937-8.03c-0.455,0.274-5.848,5.891-2.354,8.279c3.005,2.057,10.229-0.819,12.602-2.811
		c0.685-0.575,1.353-1.17,2.006-1.778c0.604-0.562,2.158-1.852,1.998-2.69c-0.182-0.961-3.414,1.61-3.902,1.94
		c-2.318,1.562-8.133,3.982-9.342,2.407c-0.832-1.087,3.977-7.156,5.617-10.729c0.638-1.388,1.268-2.775,1.877-4.174
		c0.232-0.527,1.017-2.661,0.293-3.072c-0.881-0.501-3.629,2.198-4.469,2.919c-2.271,2.021-4.55,4.031-6.812,6.061
		c-0.79,0.707-1.58,1.414-2.369,2.121c-0.365,0.325-4.025,4.111-4.562,3.864C34.741,31.277,36.43,28.069,36.612,27.669z"/>
	<path fill="#F15A29" d="M22.265,25.105c-2.557,6.15-5.567,12.15-8.253,18.248c-0.896,2.037-1.796,4.072-2.656,6.126
		c-0.304,0.724-0.805,2.06-0.596,2.878c0.109,0.433,0.488,0.603,1.051,0.152c0.723-0.574,1.54-1.584,2.027-2.36
		c0.589-0.938,1.17-1.883,1.742-2.83c1.101-1.817,2.18-3.646,3.234-5.488c2.151-3.771,4.25-7.571,6.188-11.46
		c1.711-3.434,3.684-7.134,4.334-10.951c0.254-1.496,0.094-3.2-1.213-4.183c-1.536-1.153-3.439-0.526-4.924,0.361
		c-3.4,2.034-9.345,8.276-8.938,8.03c0.456-0.274,5.848-5.891,2.354-8.279c-3.004-2.057-10.229,0.819-12.601,2.812
		c-0.684,0.574-1.353,1.169-2.007,1.777c-0.604,0.562-2.156,1.852-1.998,2.69c0.182,0.961,3.415-1.61,3.904-1.94
		c2.317-1.562,8.131-3.982,9.34-2.406c0.833,1.087-3.976,7.155-5.616,10.728c-0.637,1.388-1.268,2.776-1.878,4.174
		c-0.232,0.527-1.016,2.661-0.292,3.072c0.88,0.501,3.629-2.198,4.468-2.92c2.271-2.021,4.55-4.03,6.814-6.06
		c0.79-0.707,1.578-1.414,2.367-2.121c0.365-0.325,4.027-4.111,4.562-3.864C24.136,21.498,22.446,24.706,22.265,25.105z"/>
</g>
</svg>
