<?xml version="1.0" encoding="utf-8"?>
<!-- Generator: Adobe Illustrator 16.0.4, SVG Export Plug-In . SVG Version: 6.00 Build 0)  -->
<!DOCTYPE svg PUBLIC "-//W3C//DTD SVG 1.1//EN" "http://www.w3.org/Graphics/SVG/1.1/DTD/svg11.dtd">
<svg version="1.1" id="Layer_1" xmlns="http://www.w3.org/2000/svg" xmlns:xlink="http://www.w3.org/1999/xlink" x="0px" y="0px"
	 width="350px" height="200px" viewBox="0 0 350 200" enable-background="new 0 0 350 200" xml:space="preserve">
<g>
	<path fill="#ACB8BF" d="M335.998,194.355c0,6.232-72.081,4.155-160.998,4.155s-160.999,1.038-160.998-4.155
		c0-2.295,72.081-4.154,160.998-4.154S335.998,192.061,335.998,194.355z"/>
	<rect x="48.111" y="10.267" fill="#556E82" width="254.588" height="21.636"/>
	<path fill="#415463" d="M305.053,2.133H44.946c-2.684,0-4.88,2.196-4.88,4.88v181.075c0,2.685,2.196,4.88,4.88,4.88h260.106
		c2.684,0,4.88-2.195,4.88-4.88V7.014C309.933,4.33,307.736,2.133,305.053,2.133z M300.911,177.548H49.089V12.453h251.822V177.548z"
		/>
	<path fill="#DAE4EA" d="M13.967,185.969c0.79,7.145,6.841,9.391,14.193,9.391h293.68c7.354,0,13.403-2.246,14.193-9.391H13.967z"/>
	<path fill="#ACB8BF" d="M175,185.969h-19.826c0,0,1.836,3.786,9.243,3.786c6.682,0,10.583,0,10.583,0s3.899,0,10.582,0
		c7.409,0,9.244-3.786,9.244-3.786H175z"/>
	<circle fill="#556E82" cx="174.999" cy="7.041" r="2.206"/>
	<circle fill="#ACB8BF" cx="175" cy="7.041" r="1.672"/>
	<path fill="#DAE4EA" d="M175.791,5.879c-0.09-0.019-0.182-0.029-0.277-0.029c-0.721,0-1.306,0.559-1.306,1.248
		c0,0.154,0.034,0.299,0.087,0.436L175.791,5.879z"/>
	<g>
		<g>
			<path fill="none" stroke="#ED8F00" stroke-width="2" stroke-miterlimit="10" d="M167.338,95.763c0,1.65-1.35,3-3,3h-38.898
				c-1.65,0-3-1.35-3-3V45.151c0-1.65,1.35-3,3-3h38.898c1.65,0,3,1.35,3,3V95.763z"/>
		</g>
		<line fill="none" stroke="#DAE4EA" stroke-miterlimit="10" x1="129.644" y1="52.888" x2="129.644" y2="97.868"/>
		<path fill="#ED8F00" d="M167.338,52.888v-7.055c0-2.024-1.318-3.682-2.928-3.682h-39.043c-1.61,0-2.928,1.657-2.928,3.682v7.055
			H167.338z"/>
		<circle fill="#FFFFFF" stroke="#69A6CC" stroke-miterlimit="10" cx="129.644" cy="59.558" r="1.627"/>
		<circle fill="#FFFFFF" stroke="#69A6CC" stroke-miterlimit="10" cx="129.644" cy="67.367" r="1.627"/>
		<circle fill="#FFFFFF" stroke="#69A6CC" stroke-miterlimit="10" cx="129.644" cy="75.175" r="1.627"/>
		<circle fill="#FFFFFF" stroke="#69A6CC" stroke-miterlimit="10" cx="129.644" cy="82.984" r="1.627"/>
		<circle fill="#FFFFFF" stroke="#69A6CC" stroke-miterlimit="10" cx="129.644" cy="90.792" r="1.627"/>
		
			<line fill="#ED8F00" stroke="#ACB8BF" stroke-linecap="round" stroke-miterlimit="10" x1="135.988" y1="57.931" x2="161.274" y2="57.931"/>
		
			<line fill="#ED8F00" stroke="#ACB8BF" stroke-linecap="round" stroke-miterlimit="10" x1="135.988" y1="60.86" x2="159.088" y2="60.86"/>
		
			<line fill="#ED8F00" stroke="#ACB8BF" stroke-linecap="round" stroke-miterlimit="10" x1="135.988" y1="65.739" x2="158.163" y2="65.739"/>
		
			<line fill="#ED8F00" stroke="#ACB8BF" stroke-linecap="round" stroke-miterlimit="10" x1="135.988" y1="68.668" x2="156.847" y2="68.668"/>
		
			<line fill="#ED8F00" stroke="#ACB8BF" stroke-linecap="round" stroke-miterlimit="10" x1="135.988" y1="73.548" x2="160.063" y2="73.548"/>
		
			<line fill="#ED8F00" stroke="#ACB8BF" stroke-linecap="round" stroke-miterlimit="10" x1="135.988" y1="76.477" x2="159.088" y2="76.477"/>
		
			<line fill="#ED8F00" stroke="#ACB8BF" stroke-linecap="round" stroke-miterlimit="10" x1="135.988" y1="81.356" x2="159.479" y2="81.356"/>
		
			<line fill="#ED8F00" stroke="#ACB8BF" stroke-linecap="round" stroke-miterlimit="10" x1="135.988" y1="84.285" x2="152.246" y2="84.285"/>
		
			<line fill="#ED8F00" stroke="#ACB8BF" stroke-linecap="round" stroke-miterlimit="10" x1="135.988" y1="89.166" x2="160.063" y2="89.166"/>
		
			<line fill="#ED8F00" stroke="#ACB8BF" stroke-linecap="round" stroke-miterlimit="10" x1="135.988" y1="92.093" x2="159.088" y2="92.093"/>
		
			<line fill="none" stroke="#FFFFFF" stroke-width="3" stroke-linecap="round" stroke-miterlimit="10" x1="127" y1="47.521" x2="150.507" y2="47.521"/>
		<circle fill="#FFFFFF" cx="162.239" cy="47.521" r="1.952"/>
	</g>
	<g>
		<g>
			<path fill="none" stroke="#ED8F00" stroke-width="2" stroke-miterlimit="10" d="M227.561,95.763c0,1.65-1.35,3-3,3h-38.898
				c-1.65,0-3-1.35-3-3V45.151c0-1.65,1.35-3,3-3h38.898c1.65,0,3,1.35,3,3V95.763z"/>
		</g>
		<line fill="none" stroke="#DAE4EA" stroke-miterlimit="10" x1="189.865" y1="52.888" x2="189.865" y2="97.787"/>
		<path fill="#ED8F00" d="M227.561,52.888v-7.055c0-2.024-1.317-3.682-2.928-3.682H185.59c-1.61,0-2.928,1.657-2.928,3.682v7.055
			H227.561z"/>
		<circle fill="#FFFFFF" stroke="#69A6CC" stroke-miterlimit="10" cx="189.865" cy="59.558" r="1.626"/>
		<circle fill="#FFFFFF" stroke="#69A6CC" stroke-miterlimit="10" cx="189.865" cy="67.367" r="1.626"/>
		<circle fill="#FFFFFF" stroke="#69A6CC" stroke-miterlimit="10" cx="189.865" cy="75.175" r="1.626"/>
		<circle fill="#FFFFFF" stroke="#69A6CC" stroke-miterlimit="10" cx="189.865" cy="82.984" r="1.626"/>
		<circle fill="#FFFFFF" stroke="#69A6CC" stroke-miterlimit="10" cx="189.865" cy="90.792" r="1.626"/>
		
			<line fill="#ED8F00" stroke="#ACB8BF" stroke-linecap="round" stroke-miterlimit="10" x1="196.21" y1="57.931" x2="214.856" y2="57.931"/>
		
			<line fill="#ED8F00" stroke="#ACB8BF" stroke-linecap="round" stroke-miterlimit="10" x1="196.21" y1="60.86" x2="219.309" y2="60.86"/>
		
			<line fill="#ED8F00" stroke="#ACB8BF" stroke-linecap="round" stroke-miterlimit="10" x1="196.21" y1="65.739" x2="221.749" y2="65.739"/>
		
			<line fill="#ED8F00" stroke="#ACB8BF" stroke-linecap="round" stroke-miterlimit="10" x1="196.21" y1="68.668" x2="213.616" y2="68.668"/>
		
			<line fill="#ED8F00" stroke="#ACB8BF" stroke-linecap="round" stroke-miterlimit="10" x1="196.21" y1="73.548" x2="220.286" y2="73.548"/>
		
			<line fill="#ED8F00" stroke="#ACB8BF" stroke-linecap="round" stroke-miterlimit="10" x1="196.21" y1="76.477" x2="216.869" y2="76.477"/>
		
			<line fill="#ED8F00" stroke="#ACB8BF" stroke-linecap="round" stroke-miterlimit="10" x1="196.21" y1="81.356" x2="221.749" y2="81.356"/>
		
			<line fill="#ED8F00" stroke="#ACB8BF" stroke-linecap="round" stroke-miterlimit="10" x1="196.21" y1="84.285" x2="212.253" y2="84.285"/>
		
			<line fill="#ED8F00" stroke="#ACB8BF" stroke-linecap="round" stroke-miterlimit="10" x1="196.21" y1="89.166" x2="220.286" y2="89.166"/>
		
			<line fill="#ED8F00" stroke="#ACB8BF" stroke-linecap="round" stroke-miterlimit="10" x1="196.21" y1="92.093" x2="220.509" y2="92.093"/>
		
			<line fill="none" stroke="#FFFFFF" stroke-width="3" stroke-linecap="round" stroke-miterlimit="10" x1="187.223" y1="47.521" x2="200.562" y2="47.521"/>
		<circle fill="#FFFFFF" cx="222.461" cy="47.521" r="1.953"/>
	</g>
	<g>
		<g>
			<path fill="none" stroke="#ED8F00" stroke-width="2" stroke-miterlimit="10" d="M287.782,95.763c0,1.65-1.35,3-3,3h-38.898
				c-1.65,0-3-1.35-3-3V45.151c0-1.65,1.35-3,3-3h38.898c1.65,0,3,1.35,3,3V95.763z"/>
		</g>
		<line fill="none" stroke="#DAE4EA" stroke-miterlimit="10" x1="250.088" y1="52.888" x2="250.088" y2="97.868"/>
		<path fill="#ED8F00" d="M287.782,52.888v-7.055c0-2.024-1.318-3.682-2.929-3.682h-39.043c-1.61,0-2.927,1.657-2.927,3.682v7.055
			H287.782z"/>
		<circle fill="#FFFFFF" stroke="#69A6CC" stroke-miterlimit="10" cx="250.087" cy="59.558" r="1.626"/>
		<circle fill="#FFFFFF" stroke="#69A6CC" stroke-miterlimit="10" cx="250.087" cy="67.367" r="1.626"/>
		<circle fill="#FFFFFF" stroke="#69A6CC" stroke-miterlimit="10" cx="250.087" cy="75.175" r="1.626"/>
		<circle fill="#FFFFFF" stroke="#69A6CC" stroke-miterlimit="10" cx="250.087" cy="82.984" r="1.626"/>
		<circle fill="#FFFFFF" stroke="#69A6CC" stroke-miterlimit="10" cx="250.087" cy="90.792" r="1.626"/>
		
			<line fill="#ED8F00" stroke="#ACB8BF" stroke-linecap="round" stroke-miterlimit="10" x1="256.432" y1="57.931" x2="273.838" y2="57.931"/>
		
			<line fill="#ED8F00" stroke="#ACB8BF" stroke-linecap="round" stroke-miterlimit="10" x1="256.432" y1="60.86" x2="277.973" y2="60.86"/>
		
			<line fill="#ED8F00" stroke="#ACB8BF" stroke-linecap="round" stroke-miterlimit="10" x1="256.432" y1="65.739" x2="281.972" y2="65.739"/>
		
			<line fill="#ED8F00" stroke="#ACB8BF" stroke-linecap="round" stroke-miterlimit="10" x1="256.432" y1="68.668" x2="279.532" y2="68.668"/>
		
			<line fill="#ED8F00" stroke="#ACB8BF" stroke-linecap="round" stroke-miterlimit="10" x1="256.432" y1="73.548" x2="277.092" y2="73.548"/>
		
			<line fill="#ED8F00" stroke="#ACB8BF" stroke-linecap="round" stroke-miterlimit="10" x1="256.432" y1="76.477" x2="281.972" y2="76.477"/>
		
			<line fill="#ED8F00" stroke="#ACB8BF" stroke-linecap="round" stroke-miterlimit="10" x1="256.432" y1="81.356" x2="277.092" y2="81.356"/>
		
			<line fill="#ED8F00" stroke="#ACB8BF" stroke-linecap="round" stroke-miterlimit="10" x1="256.432" y1="84.285" x2="277.092" y2="84.285"/>
		
			<line fill="#ED8F00" stroke="#ACB8BF" stroke-linecap="round" stroke-miterlimit="10" x1="256.432" y1="89.166" x2="281.972" y2="89.166"/>
		
			<line fill="#ED8F00" stroke="#ACB8BF" stroke-linecap="round" stroke-miterlimit="10" x1="256.432" y1="92.093" x2="279.532" y2="92.093"/>
		
			<line fill="none" stroke="#FFFFFF" stroke-width="3" stroke-linecap="round" stroke-miterlimit="10" x1="247.443" y1="47.521" x2="270.896" y2="47.521"/>
		<circle fill="#FFFFFF" cx="282.684" cy="47.521" r="1.952"/>
	</g>
	<g>
		<g>
			<path fill="none" stroke="#ED8F00" stroke-width="2" stroke-miterlimit="10" d="M107.116,165.564c0,1.65-1.35,3-3,3H65.217
				c-1.65,0-3-1.35-3-3v-50.611c0-1.65,1.35-3,3-3h38.899c1.65,0,3,1.35,3,3V165.564z"/>
		</g>
		<line fill="none" stroke="#DAE4EA" stroke-miterlimit="10" x1="69.421" y1="122.689" x2="69.421" y2="167.589"/>
		<path fill="#ED8F00" d="M107.116,122.689v-7.055c0-2.025-1.318-3.682-2.929-3.682H65.146c-1.61,0-2.929,1.656-2.929,3.682v7.055
			H107.116z"/>
		<circle fill="#FFFFFF" stroke="#69A6CC" stroke-miterlimit="10" cx="69.421" cy="129.359" r="1.626"/>
		<circle fill="#FFFFFF" stroke="#69A6CC" stroke-miterlimit="10" cx="69.421" cy="137.168" r="1.626"/>
		<circle fill="#FFFFFF" stroke="#69A6CC" stroke-miterlimit="10" cx="69.421" cy="144.977" r="1.626"/>
		<circle fill="#FFFFFF" stroke="#69A6CC" stroke-miterlimit="10" cx="69.421" cy="152.785" r="1.626"/>
		<circle fill="#FFFFFF" stroke="#69A6CC" stroke-miterlimit="10" cx="69.421" cy="160.594" r="1.626"/>
		
			<line fill="#ED8F00" stroke="#ACB8BF" stroke-linecap="round" stroke-miterlimit="10" x1="75.766" y1="127.732" x2="98.866" y2="127.732"/>
		
			<line fill="#ED8F00" stroke="#ACB8BF" stroke-linecap="round" stroke-miterlimit="10" x1="75.766" y1="130.66" x2="101.306" y2="130.66"/>
		
			<line fill="#ED8F00" stroke="#ACB8BF" stroke-linecap="round" stroke-miterlimit="10" x1="75.766" y1="135.541" x2="101.306" y2="135.541"/>
		
			<line fill="#ED8F00" stroke="#ACB8BF" stroke-linecap="round" stroke-miterlimit="10" x1="75.766" y1="138.469" x2="93.172" y2="138.469"/>
		
			<line fill="#ED8F00" stroke="#ACB8BF" stroke-linecap="round" stroke-miterlimit="10" x1="75.766" y1="143.35" x2="99.842" y2="143.35"/>
		
			<line fill="#ED8F00" stroke="#ACB8BF" stroke-linecap="round" stroke-miterlimit="10" x1="75.766" y1="146.277" x2="98.866" y2="146.277"/>
		
			<line fill="#ED8F00" stroke="#ACB8BF" stroke-linecap="round" stroke-miterlimit="10" x1="75.766" y1="151.158" x2="101.306" y2="151.158"/>
		
			<line fill="#ED8F00" stroke="#ACB8BF" stroke-linecap="round" stroke-miterlimit="10" x1="75.766" y1="154.086" x2="84.469" y2="154.086"/>
		
			<line fill="#ED8F00" stroke="#ACB8BF" stroke-linecap="round" stroke-miterlimit="10" x1="75.766" y1="158.966" x2="96.426" y2="158.966"/>
		
			<line fill="#ED8F00" stroke="#ACB8BF" stroke-linecap="round" stroke-miterlimit="10" x1="75.766" y1="161.895" x2="98.866" y2="161.895"/>
		
			<line fill="none" stroke="#FFFFFF" stroke-width="3" stroke-linecap="round" stroke-miterlimit="10" x1="66.777" y1="117.322" x2="90.285" y2="117.322"/>
		<circle fill="#FFFFFF" cx="102.018" cy="117.322" r="1.952"/>
	</g>
	<g>
		<g>
			<path fill="none" stroke="#ED8F00" stroke-width="2" stroke-miterlimit="10" d="M227.561,165.564c0,1.65-1.35,3-3,3h-38.898
				c-1.65,0-3-1.35-3-3v-50.611c0-1.65,1.35-3,3-3h38.898c1.65,0,3,1.35,3,3V165.564z"/>
		</g>
		<line fill="none" stroke="#DAE4EA" stroke-miterlimit="10" x1="189.865" y1="122.689" x2="189.865" y2="167.588"/>
		<path fill="#ED8F00" d="M227.561,122.689v-7.055c0-2.025-1.317-3.682-2.928-3.682H185.59c-1.61,0-2.928,1.656-2.928,3.682v7.055
			H227.561z"/>
		<circle fill="#FFFFFF" stroke="#69A6CC" stroke-miterlimit="10" cx="189.865" cy="129.359" r="1.626"/>
		<circle fill="#FFFFFF" stroke="#69A6CC" stroke-miterlimit="10" cx="189.865" cy="137.168" r="1.626"/>
		<circle fill="#FFFFFF" stroke="#69A6CC" stroke-miterlimit="10" cx="189.865" cy="144.977" r="1.626"/>
		<circle fill="#FFFFFF" stroke="#69A6CC" stroke-miterlimit="10" cx="189.865" cy="152.785" r="1.626"/>
		<circle fill="#FFFFFF" stroke="#69A6CC" stroke-miterlimit="10" cx="189.865" cy="160.594" r="1.626"/>
		
			<line fill="#ED8F00" stroke="#ACB8BF" stroke-linecap="round" stroke-miterlimit="10" x1="196.21" y1="127.732" x2="219.309" y2="127.732"/>
		
			<line fill="#ED8F00" stroke="#ACB8BF" stroke-linecap="round" stroke-miterlimit="10" x1="196.21" y1="130.66" x2="221.749" y2="130.66"/>
		
			<line fill="#ED8F00" stroke="#ACB8BF" stroke-linecap="round" stroke-miterlimit="10" x1="196.21" y1="135.541" x2="221.749" y2="135.541"/>
		
			<line fill="#ED8F00" stroke="#ACB8BF" stroke-linecap="round" stroke-miterlimit="10" x1="196.21" y1="138.469" x2="213.616" y2="138.469"/>
		
			<line fill="#ED8F00" stroke="#ACB8BF" stroke-linecap="round" stroke-miterlimit="10" x1="196.21" y1="143.35" x2="220.286" y2="143.35"/>
		
			<line fill="#ED8F00" stroke="#ACB8BF" stroke-linecap="round" stroke-miterlimit="10" x1="196.21" y1="146.277" x2="219.309" y2="146.277"/>
		
			<line fill="#ED8F00" stroke="#ACB8BF" stroke-linecap="round" stroke-miterlimit="10" x1="196.21" y1="151.158" x2="221.749" y2="151.158"/>
		
			<line fill="#ED8F00" stroke="#ACB8BF" stroke-linecap="round" stroke-miterlimit="10" x1="196.21" y1="154.086" x2="204.913" y2="154.086"/>
		
			<line fill="#ED8F00" stroke="#ACB8BF" stroke-linecap="round" stroke-miterlimit="10" x1="196.21" y1="158.966" x2="216.869" y2="158.966"/>
		
			<line fill="#ED8F00" stroke="#ACB8BF" stroke-linecap="round" stroke-miterlimit="10" x1="196.21" y1="161.895" x2="219.309" y2="161.895"/>
		
			<line fill="none" stroke="#FFFFFF" stroke-width="3" stroke-linecap="round" stroke-miterlimit="10" x1="187.223" y1="117.322" x2="215.343" y2="117.322"/>
		<circle fill="#FFFFFF" cx="222.461" cy="117.322" r="1.953"/>
	</g>
	<g>
		
			<path fill="none" stroke="#F7B86D" stroke-width="2" stroke-linecap="round" stroke-miterlimit="10" stroke-dasharray="6.1822,6.1822" d="
			M287.782,165.564c0,1.65-1.35,3-3,3h-38.898c-1.65,0-3-1.35-3-3v-50.611c0-1.65,1.35-3,3-3h38.898c1.65,0,3,1.35,3,3V165.564z"/>
	</g>
	<g>
		
			<path fill="none" stroke="#F7B86D" stroke-width="2" stroke-linecap="round" stroke-miterlimit="10" stroke-dasharray="6.1822,6.1822" d="
			M167.338,165.564c0,1.65-1.35,3-3,3h-38.898c-1.65,0-3-1.35-3-3v-50.611c0-1.65,1.35-3,3-3h38.898c1.65,0,3,1.35,3,3V165.564z"/>
	</g>
	<g>
		
			<path fill="none" stroke="#F7B86D" stroke-width="2" stroke-linecap="round" stroke-miterlimit="10" stroke-dasharray="6.1822,6.1822" d="
			M106.918,95.763c0,1.65-1.35,3-3,3H65.02c-1.65,0-3-1.35-3-3V45.151c0-1.65,1.35-3,3-3h38.898c1.65,0,3,1.35,3,3V95.763z"/>
	</g>
	<g>
		<g>
			<path fill="#FFFFFF" d="M140.34,132.541c0,1.65-1.35,3-3,3H98.441c-1.65,0-3-1.35-3-3V81.93c0-1.65,1.35-3,3-3h38.898
				c1.65,0,3,1.35,3,3V132.541z"/>
			<path fill="none" stroke="#ED8F00" stroke-width="2" stroke-miterlimit="10" d="M140.34,132.541c0,1.65-1.35,3-3,3H98.441
				c-1.65,0-3-1.35-3-3V81.93c0-1.65,1.35-3,3-3h38.898c1.65,0,3,1.35,3,3V132.541z"/>
		</g>
		<line fill="none" stroke="#DAE4EA" stroke-miterlimit="10" x1="102.645" y1="89.666" x2="102.645" y2="134.565"/>
		<path fill="#ED8F00" d="M140.34,89.666v-7.054c0-2.025-1.317-3.682-2.928-3.682H98.369c-1.61,0-2.928,1.657-2.928,3.682v7.054
			H140.34z"/>
		<circle fill="#FFFFFF" stroke="#69A6CC" stroke-miterlimit="10" cx="102.646" cy="96.336" r="1.627"/>
		<circle fill="#FFFFFF" stroke="#69A6CC" stroke-miterlimit="10" cx="102.646" cy="104.145" r="1.627"/>
		<circle fill="#FFFFFF" stroke="#69A6CC" stroke-miterlimit="10" cx="102.646" cy="111.953" r="1.627"/>
		<circle fill="#FFFFFF" stroke="#69A6CC" stroke-miterlimit="10" cx="102.646" cy="119.762" r="1.627"/>
		<circle fill="#FFFFFF" stroke="#69A6CC" stroke-miterlimit="10" cx="102.646" cy="127.57" r="1.627"/>
		
			<line fill="#ED8F00" stroke="#ACB8BF" stroke-linecap="round" stroke-miterlimit="10" x1="108.989" y1="94.709" x2="132.089" y2="94.709"/>
		
			<line fill="#ED8F00" stroke="#ACB8BF" stroke-linecap="round" stroke-miterlimit="10" x1="108.989" y1="97.638" x2="134.529" y2="97.638"/>
		
			<line fill="#ED8F00" stroke="#ACB8BF" stroke-linecap="round" stroke-miterlimit="10" x1="108.989" y1="102.518" x2="134.529" y2="102.518"/>
		
			<line fill="#ED8F00" stroke="#ACB8BF" stroke-linecap="round" stroke-miterlimit="10" x1="108.989" y1="105.445" x2="126.396" y2="105.445"/>
		
			<line fill="#ED8F00" stroke="#ACB8BF" stroke-linecap="round" stroke-miterlimit="10" x1="108.989" y1="110.326" x2="133.065" y2="110.326"/>
		
			<line fill="#ED8F00" stroke="#ACB8BF" stroke-linecap="round" stroke-miterlimit="10" x1="108.989" y1="113.254" x2="132.089" y2="113.254"/>
		
			<line fill="#ED8F00" stroke="#ACB8BF" stroke-linecap="round" stroke-miterlimit="10" x1="108.989" y1="118.135" x2="134.529" y2="118.135"/>
		
			<line fill="#ED8F00" stroke="#ACB8BF" stroke-linecap="round" stroke-miterlimit="10" x1="108.989" y1="121.062" x2="117.692" y2="121.062"/>
		
			<line fill="#ED8F00" stroke="#ACB8BF" stroke-linecap="round" stroke-miterlimit="10" x1="108.989" y1="125.942" x2="129.649" y2="125.942"/>
		
			<line fill="#ED8F00" stroke="#ACB8BF" stroke-linecap="round" stroke-miterlimit="10" x1="108.989" y1="128.871" x2="132.089" y2="128.871"/>
		
			<line fill="none" stroke="#FFFFFF" stroke-width="3" stroke-linecap="round" stroke-miterlimit="10" x1="100.002" y1="84.298" x2="114.729" y2="84.298"/>
		<circle fill="#FFFFFF" cx="135.241" cy="84.298" r="1.952"/>
	</g>
	<rect x="263.217" y="128.627" fill="#F7B86D" width="4.88" height="23.426"/>
	<rect x="253.944" y="137.898" fill="#F7B86D" width="23.426" height="4.881"/>
	
		<line fill="none" stroke="#DAE4EA" stroke-width="4" stroke-linecap="round" stroke-miterlimit="10" x1="219.309" y1="22.143" x2="230.147" y2="22.143"/>
	
		<line fill="none" stroke="#DAE4EA" stroke-width="4" stroke-linecap="round" stroke-miterlimit="10" x1="243.648" y1="22.143" x2="259.917" y2="22.143"/>
	
		<line fill="none" stroke="#DAE4EA" stroke-width="4" stroke-linecap="round" stroke-miterlimit="10" x1="273.838" y1="22.143" x2="286.759" y2="22.143"/>
	<path fill="#E7EEF2" d="M78.613,17.75H63.972c-2.425,0-4.392,1.967-4.392,4.392s1.967,4.393,4.392,4.393h14.642
		c2.425,0,4.392-1.968,4.392-4.393S81.038,17.75,78.613,17.75z"/>
	<g opacity="0.2">
		<path opacity="0.5" fill="#FFFFFF" d="M273.784,185.969h35.18V7.014c0-1.647-1.28-4.026-4.321-3.904H196.21L273.784,185.969z"/>
	</g>
	<path fill="#DAE4EA" d="M305.053,193.945H44.946c-3.229,0-5.856-2.627-5.856-5.856V7.014c0-3.229,2.627-5.856,5.856-5.856h260.106
		c3.229,0,5.856,2.627,5.856,5.856v181.075C310.909,191.318,308.282,193.945,305.053,193.945z M44.946,3.109
		c-2.152,0-3.904,1.751-3.904,3.904v181.075c0,2.153,1.752,3.905,3.904,3.905h260.106c2.154,0,3.904-1.752,3.904-3.905V7.014
		c0-2.153-1.75-3.904-3.904-3.904H44.946z"/>
</g>
<g>
</g>
<g>
</g>
<g>
</g>
<g>
</g>
<g>
</g>
<g>
</g>
<g>
</g>
<g>
</g>
<g>
</g>
<g>
</g>
<g>
</g>
<g>
</g>
<g>
</g>
<g>
</g>
<g>
</g>
</svg>
